<svg xmlns="http://www.w3.org/2000/svg" width="37.999" height="38.346" viewBox="0 0 37.999 38.346">
  <g id="Group_636" data-name="Group 636" transform="translate(-48.977 556.913)">
    <path id="Path_89" data-name="Path 89" d="M108.659-536.533v.1c0,.067.068.168.136.168.1,0,.1-.134.1-.2l-.068.034a.255.255,0,0,1-.068-.168,1.189,1.189,0,0,0,.034-.2c-.068.034-.034.034-.068.135,0,.034-.068.034-.068.134Zm2.949-.134h0s.2.168.2.2-.068.068-.135.068h0c-.1,0-.068-.135-.068-.235Zm-.034-.034h0c-.068.067-.068.235-.068.336.034.034.1.1.136.1h.034a.25.25,0,0,0,.2-.2c0-.134-.068-.168-.1-.235h-.1v-.033c0-.034,0-.034-.068-.067Zm-1.39,0h0l.068.034v.034a.442.442,0,0,1-.1.168,1.128,1.128,0,0,0-.2.1c.034.034.034.034.068.034h.034a1.474,1.474,0,0,1,.237-.135.339.339,0,0,0,.136-.235c0-.033,0-.1-.068-.1h-.034c-.034,0-.136.067-.136.1Zm2.813.2h0v.067c0,.067.034.168.1.168a.108.108,0,0,0,.1-.1v-.033c0-.135-.1.1-.1-.235v-.134c.034,0,.034,0,.034-.034v-.067H113.1c0,.168-.068.1-.068.168-.034.034-.034.168-.034.2Zm-5.525,1.546h0v.2a2.325,2.325,0,0,0,.1.269c.068.067.136.168.237.168h.068c.169,0,.237-.135.3-.235.034-.067.034-.168.1-.2.034-.034.17-.034.237-.067a.479.479,0,0,0,.305-.269c.068-.067.2-.37,0-.37h-.068c-.068,0-.17.034-.17,0,0-.1.3-.437.373-.5v-.068a1.249,1.249,0,0,0-.508.706c0,.034.034.135.1.135h.034c.068,0,.17-.034.17,0,0,.1-.441.4-.441.3,0-.067.068-.1.068-.168v-.033c-.1,0-.1.067-.17.134s-.136.067-.2.134c-.17-.034-.237-.2-.237-.4a1.683,1.683,0,0,1,.373-.941,2.215,2.215,0,0,0,.271-1.008c0-.1,0-.4-.1-.437a1.6,1.6,0,0,0,0,.4c-.034.134-.034.269-.068.37a1.656,1.656,0,0,1-.271.6,2.552,2.552,0,0,0-.509,1.277Zm5.457-.739h0c.068.033.271.2.271.269,0,.034-.237.2-.237.269h0a.662.662,0,0,0,.3.3,2.014,2.014,0,0,1,.271-.269c0-.1-.237-.235-.271-.3.034-.1.271-.269.271-.3a2.591,2.591,0,0,0-.3-.3,1.453,1.453,0,0,0-.305.336Zm-2.1-5.747h0v6.083c0,.033,0,.033-.034.033h-.034c-.1,0-.17-.168-.2-.269,0-.134-.034-.269-.17-.269a.917.917,0,0,0-.576.336,1.1,1.1,0,0,0-.2.706c0,.034-.1.067-.1.067-.1,0-.068-.437-.068-.538v-2.958a2.819,2.819,0,0,0,0-.538,1.586,1.586,0,0,0-.237-.4v4.537c-.136.1-.271.168-.407.269a1.631,1.631,0,0,0-.373.3c-.169.134-.542.538-.847.5l-.169-.033c-.136-.1-.2-.1-.237-.3-.034-.168.068-.336.068-.437-.068,0-.17.37-.17.5v.034a.6.6,0,0,0,.1.37c.068.134.271.168.271.235a1.422,1.422,0,0,0,.915-.471c.136-.1.678-.6.813-.6h.034v.6a2.95,2.95,0,0,1-.61.706,1.854,1.854,0,0,1-.881.471h-.1c-.136,0-.2-.135-.237-.235-.034-.2.034-.269.034-.4h-.034v.1c-.068.034-.1.269-.1.37a.586.586,0,0,0,.237.47c.237.1.339-.034.61-.034.068-.1.068-.067.169-.134,0-.034.17-.134.17-.134h.068l-.034.168a.977.977,0,0,0-.1.336v.168c0,.3.237.706.542.706h.034c.237,0,.61-.4.712-.571.068-.067.61-.638.61-.638.068,0,.068,0,.068.067.034-.034.068-.134.1-.168.068-.134.068-.1.169-.168a1.132,1.132,0,0,1,.441-.135h.135c.1,0,.136.067.17.067.068,0,.1-.067.1-.135v-.067c0-.1-.169-.2-.339-.2a1.829,1.829,0,0,0-1.186.672,6.024,6.024,0,0,0-.441.47.782.782,0,0,1-.237.235c-.034.034-.237.2-.237.2l-.2.034h-.034c-.237,0-.339-.235-.339-.437v-.1a1.553,1.553,0,0,1,.305-.807,2.439,2.439,0,0,0,.271-.3c.034-.034.068-.1.1-.135,0-.034.068-.168.1-.168h.034c.034,0,.034.168.068.235a.623.623,0,0,0,.068.235.526.526,0,0,0,.407.269h.034a.682.682,0,0,0,.3-.235.742.742,0,0,0,.136-.437v-.033c0-.135-.1-.571-.17-.571s-.068.269-.1.336c.034.1.136.2.136.336v.034c0,.135-.17.168-.3.168h-.1c-.169,0-.3-.4-.3-.638v-.672c0-.067.1-.067.17-.067h.135a.64.64,0,0,1,.373.168c.1.067.2.2.271.235a.674.674,0,0,0,.136-.269v-.034c0-.1-.3-.3-.373-.37-.136-.067-.407-.235-.407-.37v-.034c0-.168.373-.336.509-.336h.1c.17,0,.068.538.441.538h.034a9.3,9.3,0,0,0,0,.974c.068.269.169.538.475.538h.068c.237,0,.407-.3.441-.538,0-.235-.034-.638-.2-.739l-.068.336h0c0,.067.136.168.136.269v.134c0,.067-.17.168-.238.168h-.1c-.136,0-.271-.235-.271-.37v-.74c0-.067.135-.1.2-.168.034-.033.1-.235.169-.235h.034a.431.431,0,0,0,.305.235h.068c.17,0,.305-.3.305-.5v-.067c0-.1-.034-.135-.034-.2,0-.1-.034-.067-.068-.168h0l-.068.269c0,.034.034.067.034.1h0a.181.181,0,0,1-.17.168h-.034c-.169,0-.237-.168-.237-.336v-.067c-.136,0-.169.2-.2.3-.034.067-.17.235-.271.235-.034,0-.034,0-.034-.033V-541.2a.912.912,0,0,1-.2-.4h-.034Zm2.61,4.268h0v.034a3.952,3.952,0,0,0,.542,1.781,4.625,4.625,0,0,1,.678,1.68v.135a2.138,2.138,0,0,1-.542,1.378,3.35,3.35,0,0,1-.508.47,2.377,2.377,0,0,1-.305.2l-.136.067c-.1.068-.136.034-.136.135h.068a4.649,4.649,0,0,0,.678-.37,3.638,3.638,0,0,0,.542-.47,2.35,2.35,0,0,0,.576-1.445v-.168a3.316,3.316,0,0,0-.2-.874c-.034-.1-.136-.269-.17-.37a3.075,3.075,0,0,1-.17-.336,3.568,3.568,0,0,1-.61-1.512v-.034c0-.168.135.067.169.067,0-.033.034-.067.034-.134a2.454,2.454,0,0,0-.136-.471,2.137,2.137,0,0,0-.068-.235c-.034-.1-.034-.2-.1-.235a1.7,1.7,0,0,0-.2.706Zm.305,2.184h0l-.068.034c0,.1-.068.134-.068.235,0,.067.136.168.2.168a.189.189,0,0,0,.17-.2v-.067c0-.1-.17-.269-.17-.134v.1a.089.089,0,0,1,.1.1v.067h-.1l-.034.034-.1-.135h.034l.034-.2.068-.067-.034-.033Zm-1.7.739h0v.1c0,.067.034.134.1.134h0c.068,0,.1-.067.1-.134h0c0-.034,0-.034-.034-.067l-.068.033v-.3c0-.034,0,0-.034-.034a.629.629,0,0,0-.068.269Zm-1.458.437h0c-.1.033-.169.5,0,.5h0c.068,0,.1-.067.1-.134v-.067c-.068.034-.034.034-.068.034s-.034-.067-.034-.1v-.235Zm3.831.3h0a.647.647,0,0,0-.17-.3h-.034c-.1,0,.068.235.068.269.068.067.034.269.068.336h.034Zm-2.78.37h0l.271.269c.068-.034.3-.2.3-.3a1.025,1.025,0,0,0-.271-.269,1.3,1.3,0,0,0-.3.3Zm-3.424.135h0a2.057,2.057,0,0,0,.2-.135c.034-.034.068-.1.136-.134,0-.1.034-.2-.068-.2-.068,0-.17.034-.17.067s.068.034.068.1c0,.134-.237.2-.237.269.034.034.034.034.068.034Zm4.949-.941h0c0-.067.136-.134.237-.1.068,0,.2.1.2.168,0,.034-.17,0-.237,0a.37.37,0,0,1-.2-.034Zm-.746-5.176h0v.034l.034,2.184v4.167c0,.067-.136.135-.2.2a1.257,1.257,0,0,0-.237.2,4.574,4.574,0,0,0-.407.4c-.2.2-.61.807-.915.807h-.1c-.271,0-.373-.269-.373-.538v-.1l.034-.168.1-.336a1.075,1.075,0,0,0-.2.6v.067a.924.924,0,0,0,.17.538.512.512,0,0,0,.441.269c.339,0,.678-.471.847-.672.136-.135.237-.269.373-.4a1.925,1.925,0,0,0,.373-.37h.068c.034,0,.034,0,.034.034v.168l-.034.773a1.624,1.624,0,0,0,.2-.537,3.259,3.259,0,0,0,.034-.6,1.691,1.691,0,0,1,.441-.135,1.592,1.592,0,0,0,.475-.134.794.794,0,0,0,.475-.706v-.1a1.193,1.193,0,0,0-.2-.639c-.068-.1-.305-.37-.441-.37h-.034c-.237,0-.407.437-.407.672,0,.4.509.37.847.37a.173.173,0,0,1,.068.134v.1c0,.134-.339.235-.508.235-.136.034-.2,0-.339.034a1.617,1.617,0,0,1-.3.1h-.068v-5.949a1.5,1.5,0,0,0-.2-.4c0,.033-.034.033-.034.067Zm-3.525,6.755h0a1.287,1.287,0,0,0,.305.3c.034-.067.237-.235.237-.3s-.237-.3-.271-.3a1.163,1.163,0,0,0-.271.3Zm4.746.168h0v-.034c0-.067,0-.067-.034-.1h-.068c-.034,0-.034,0-.1.033v.067c0,.034.034.034.034.067s-.1.168-.1.2c-.1,0-.1,0-.136.067h.068c.068,0,.339-.2.339-.3Zm-2.576.067h.068c.034,0,.034.033.068.033s.068,0,.068-.033v-.034c0-.034-.1-.1-.136-.1H111.1c-.136,0-.136.235-.169.336-.1-.033-.1-.2-.271-.2-.034.033-.034,0-.034.033s.068.135.136.135h.034c.034.067.068.067.1.134s.034.1.068.168H111l.034-.37Zm-3.017.134h0c0-.034.034-.1.034-.134l-.034-.034a.338.338,0,0,0-.034.1v.033l-.034.034-.034.134c0,.067.068.2.17.2a.234.234,0,0,0,.068-.134v-.034h-.068a.256.256,0,0,1-.068-.168Zm1.8,1.008h0c.1,0,.1-.067.1-.134h-.034c-.136,0-.068-.2-.136-.269-.034.034-.034.034-.034.1v.2a.152.152,0,0,0,.1.1Zm.746-.134h.1c.3,0,.712-.6.915-.807a4.574,4.574,0,0,1,.407-.4,1.257,1.257,0,0,1,.237-.2c.068-.067.2-.134.2-.2V-536.9l-.034-2.184v-.034c0-.034.034-.034.034-.067a1.5,1.5,0,0,1,.2.4v5.949h.068a1.617,1.617,0,0,0,.3-.1c.136-.034.2,0,.339-.034.169,0,.508-.1.508-.235v-.1a.173.173,0,0,0-.068-.134c-.339,0-.847.033-.847-.37,0-.235.17-.672.407-.672h.034c.136,0,.373.269.441.37a1.193,1.193,0,0,1,.2.639v.1a.794.794,0,0,1-.475.706,1.592,1.592,0,0,1-.475.134,1.691,1.691,0,0,0-.441.135,3.259,3.259,0,0,1-.034.6,1.624,1.624,0,0,1-.2.537l.034-.773v-.168c0-.034,0-.034-.034-.034h-.068a1.925,1.925,0,0,1-.373.37c-.136.135-.237.269-.373.4-.17.2-.508.672-.847.672a.512.512,0,0,1-.441-.269.924.924,0,0,1-.17-.538v-.067a1.075,1.075,0,0,1,.2-.6l-.1.336-.034.168v.1c0,.269.1.538.373.538Zm-.034-4.47h0c.034.1.1.269.2.269h.034c.034,0,.034,0,.034-.033v-6.251h.034a.912.912,0,0,0,.2.4v5.848c0,.033,0,.033.034.033.1,0,.237-.168.271-.235.034-.1.068-.3.2-.3v.067c0,.168.068.336.237.336h.034a.181.181,0,0,0,.17-.168h0c0-.034-.034-.067-.034-.1l.068-.269h0c.034.1.068.067.068.168,0,.067.034.1.034.2v.067c0,.2-.136.5-.305.5h-.068a.431.431,0,0,1-.305-.235h-.034c-.068,0-.135.2-.169.235-.068.067-.2.1-.2.168v.74c0,.134.135.37.271.37h.1c.068,0,.238-.1.238-.168v-.134c0-.1-.136-.2-.136-.269h0l.068-.336c.17.1.2.5.2.739-.034.235-.2.538-.441.538H111.3c-.305,0-.407-.269-.475-.538a9.3,9.3,0,0,1,0-.974h-.034c-.373,0-.271-.538-.441-.538h-.1c-.136,0-.509.168-.509.336v.034c0,.134.271.3.407.37.068.067.373.269.373.37v.034a.674.674,0,0,1-.136.269c-.068-.034-.169-.168-.271-.235a.64.64,0,0,0-.373-.168h-.135c-.068,0-.17,0-.17.067v.672c0,.235.136.638.3.638h.1c.135,0,.3-.034.3-.168v-.034c0-.135-.1-.235-.136-.336.034-.067.034-.336.1-.336s.17.437.17.571v.033a.742.742,0,0,1-.136.437.682.682,0,0,1-.3.235h-.034a.526.526,0,0,1-.407-.269.623.623,0,0,1-.068-.235c-.034-.067-.034-.235-.068-.235h-.034c-.034,0-.1.135-.1.168-.034.034-.068.1-.1.135a2.439,2.439,0,0,1-.271.3,1.553,1.553,0,0,0-.305.807v.1c0,.2.1.437.339.437h.034l.2-.034s.2-.168.237-.2a.782.782,0,0,0,.237-.235,6.024,6.024,0,0,1,.441-.47,1.829,1.829,0,0,1,1.186-.672c.17,0,.339.1.339.2v.067c0,.067-.034.135-.1.135-.034,0-.068-.067-.17-.067h-.135a1.132,1.132,0,0,0-.441.135c-.1.067-.1.034-.169.168-.034.034-.068.134-.1.168,0-.067,0-.067-.068-.067,0,0-.542.571-.61.638-.1.168-.475.571-.712.571h-.034c-.3,0-.542-.4-.542-.706V-532a.977.977,0,0,1,.1-.336l.034-.168h-.068s-.17.1-.17.134c-.1.067-.1.034-.169.134-.271,0-.373.134-.61.034a.586.586,0,0,1-.237-.47c0-.1.034-.336.1-.37v-.1h.034c0,.135-.068.2-.034.4.034.1.1.235.237.235h.1a1.854,1.854,0,0,0,.881-.471,2.95,2.95,0,0,0,.61-.706v-.6h-.034c-.136,0-.678.5-.813.6a1.422,1.422,0,0,1-.915.471c0-.067-.2-.1-.271-.235a.6.6,0,0,1-.1-.37v-.034c0-.134.1-.5.17-.5,0,.1-.1.269-.068.437.034.2.1.2.237.3l.169.033c.305.034.678-.37.847-.5a1.631,1.631,0,0,1,.373-.3c.136-.1.271-.168.407-.269v-4.537a1.586,1.586,0,0,1,.237.4,2.819,2.819,0,0,1,0,.538v2.958c0,.1-.034.538.068.538,0,0,.1-.034.1-.067a1.1,1.1,0,0,1,.2-.706.917.917,0,0,1,.576-.336c.136,0,.17.135.17.269Zm.542.269h0c-.034,0-.034-.033-.034-.067V-540.6a3.618,3.618,0,0,0,0-.6c-.034-.1-.17-.269-.17-.4-.136,0-.068.1-.068.2v6.05c0,.033-.034.033-.068.033-.1,0-.17-.168-.17-.3-.034-.135-.068-.269-.2-.269h-.034c-.2,0-.441.235-.542.336a.97.97,0,0,0-.2.739c-.1.034-.136.1-.136-.067v-3.361a2.866,2.866,0,0,0-.034-.571l-.1-.2c-.034-.067-.068-.2-.136-.2v4.571c-.136.1-.271.134-.441.235-.1.1-.238.2-.339.3-.169.168-.542.538-.847.5l-.169-.034c-.1-.067-.2-.1-.2-.3-.034-.168.068-.269.068-.437.034,0,.034,0,.034-.067v-.033l-.068.033v.067c-.1.034-.17.37-.17.5v.067a.71.71,0,0,0,.1.4c.068.1.237.168.237.235a1.447,1.447,0,0,0,.576-.168c.068-.033.034,0,.1-.067.034-.033.068-.067.1-.067a1.083,1.083,0,0,0,.2-.168c.135-.135.644-.6.813-.6v.538c0,.134-.509.672-.61.739a2.028,2.028,0,0,1-.881.471h-.068c-.136,0-.2-.135-.237-.235-.068-.2.034-.269.034-.37v-.034c0-.034,0,0-.034-.034h-.034l-.034.1a1.442,1.442,0,0,0-.068.4.472.472,0,0,0,.508.538,1.912,1.912,0,0,1,.339-.067.961.961,0,0,1,.373-.269v.135c-.068,0-.1.235-.1.336v.168c0,.336.237.706.542.706h.034c.407,0,1.051-.975,1.356-1.21.034.033,0,0,0,.033s0,0-.034.067,0,.034-.034.067a.3.3,0,0,0-.034.168.5.5,0,0,0-.068.336v.067c0,.4.2.84.61.84h0c.339,0,.678-.5.881-.672.136-.134.237-.269.373-.4a4.359,4.359,0,0,1,.373-.4c.034,0,.034,0,.034.034v.941l.068-.033c0-.067.1-.37.136-.5a1.752,1.752,0,0,0,.068-.6,3.549,3.549,0,0,1,.441-.135.966.966,0,0,0,.441-.134.745.745,0,0,0,.475-.672v-.168a1.076,1.076,0,0,0-.2-.6c-.034-.134-.305-.4-.441-.4h-.034c-.237,0-.475.5-.441.773.068.336.509.3.881.3a1.426,1.426,0,0,1,.034.168v.034c0,.168-.339.269-.509.269-.17.034-.2,0-.339.034a1.279,1.279,0,0,1-.305.067v-5.915a.54.54,0,0,0-.136-.235c-.034-.067-.034-.2-.136-.2v.2l.034,2.151-.034,4.1c0,.1-.135.168-.2.235-.068.034-.136.135-.2.2a4.785,4.785,0,0,0-.441.4c-.169.2-.576.773-.881.773h-.1c-.271,0-.373-.269-.373-.5v-.1l.034-.168a3.138,3.138,0,0,0,.1-.3,1.479,1.479,0,0,1,.136-.235,1.146,1.146,0,0,1,.576-.269h.1c.1,0,.136.067.237.1a.256.256,0,0,0,.068-.168v-.067c0-.134-.169-.235-.339-.235h0a1.829,1.829,0,0,0-1.186.672,6.91,6.91,0,0,0-.475.5c-.068.1-.136.135-.2.235a2.767,2.767,0,0,0-.271.2h-.2c-.237,0-.3-.2-.3-.437v-.033a1.171,1.171,0,0,1,.3-.807c.034-.067.2-.235.237-.3s.068-.1.1-.168c.034-.034.1-.168.136-.168s.034.2.068.269a.62.62,0,0,0,.068.235.49.49,0,0,0,.373.235h.068a.431.431,0,0,0,.3-.235.714.714,0,0,0,.136-.4v-.1c0-.134-.068-.538-.17-.538h0c-.068,0-.1.3-.1.336,0,.1.1.168.1.336,0,.134-.136.2-.271.2h-.068c-.169,0-.3-.437-.3-.638v-.639c0-.067.068-.067.136-.067h.135c.271,0,.61.4.644.4s.136-.235.136-.3v-.034c0-.1-.271-.336-.373-.37-.1-.067-.373-.235-.373-.4,0-.134.339-.336.475-.336h.068c.2,0,.068.538.475.538l.034.033a9.305,9.305,0,0,0,0,.975c.068.269.169.5.475.5h.1c.2,0,.407-.3.407-.538a1.911,1.911,0,0,0-.034-.437c0-.1-.1-.336-.17-.336,0,0-.068.3-.068.37v.034c0,.033.1.168.1.235v.134c0,.067-.136.135-.2.135h-.1c-.136,0-.271-.2-.271-.37v-.706c0-.033.169-.1.2-.168.068-.067.1-.2.2-.2,0,.067.2.235.271.235h.1c.2,0,.305-.3.305-.5v-.135c0-.134,0-.269-.1-.336a2.294,2.294,0,0,0-.1.269c0,.034.034.034.034.1a.217.217,0,0,1-.17.168h0a.223.223,0,0,1-.2-.235c-.034-.1-.034-.37-.136-.135-.068.135-.2.5-.373.5Zm.847,4.235h0a.108.108,0,0,0,.1.1c.1,0,.1-.067.1-.134-.17,0-.1-.135-.136-.3-.068.034-.068.068-.068.135Z" transform="translate(-42.91 -11.306)" fill="#2a357d" fill-rule="evenodd"/>
    <path id="Path_90" data-name="Path 90" d="M53.139-528.2c-2.271,2.789-2.407,5.276-1.559,7.629,1.39,3.8,5.559,6.049,6.237,10.654a10.159,10.159,0,0,1-2.542,8.167c2.542-3.529-.17-7.7-3.458-11.931-3.729-4.839-4.271-10.754,1.322-14.518Zm29.66,0h0c2.305,2.789,2.441,5.276,1.559,7.629-1.39,3.8-5.525,6.049-6.237,10.654a10.278,10.278,0,0,0,2.542,8.167c-2.542-3.529.2-7.7,3.457-11.931,3.763-4.839,4.271-10.754-1.322-14.518Zm-7.932-5.949h0c2.271,2.789,2.407,5.31,1.559,7.629-1.39,3.8-5.559,6.05-6.237,10.687A10.062,10.062,0,0,0,72.7-507.7c-2.508-3.529.2-7.7,3.491-11.931,3.729-4.806,4.271-10.754-1.322-14.519Zm-13.8,0h0c-2.271,2.789-2.407,5.31-1.526,7.629,1.356,3.8,5.525,6.05,6.2,10.687a10.062,10.062,0,0,1-2.508,8.133c2.542-3.529-.2-7.7-3.491-11.931-3.729-4.806-4.237-10.754,1.322-14.519Z" transform="translate(0 -16.816)" fill="#f7d606" fill-rule="evenodd"/>
    <path id="Path_91" data-name="Path 91" d="M90.079-539.876c2.271,2.789,2.407,5.31,1.559,7.629-1.39,3.8-5.559,6.049-6.237,10.687a10.086,10.086,0,0,0,2.542,8.133c-2.542-3.529.17-7.7,3.458-11.931,3.763-4.839,4.271-10.754-1.322-14.518Zm-11.05-5.848h0c-3.8.908-5.729,2.554-6.712,4.57-2.509,5.277,3.356,12.233,6.983,15.628a36.673,36.673,0,0,0,5.695-7.326c1.932-3.294,2.746-6.117.746-9.074a9.957,9.957,0,0,0-6.237-3.8c7.322,3.932,4.813,12.468-.17,17.241-5.559-4.167-7.661-13.107-.3-17.241Zm-10.678,5.848h0c-2.271,2.789-2.407,5.31-1.559,7.629,1.39,3.8,5.559,6.049,6.237,10.687a10.063,10.063,0,0,1-2.508,8.133c2.508-3.529-.2-7.7-3.492-11.931-3.729-4.839-4.237-10.754,1.322-14.518Z" transform="translate(-11.246 -8.265)" fill="#2a357d" fill-rule="evenodd"/>
    <path id="Path_92" data-name="Path 92" d="M116.611-556.779c.034-.033.068-.033.1-.067a1.364,1.364,0,0,0,.1,1.748,1.153,1.153,0,0,0,1.729-.067,1.36,1.36,0,0,0,.034-1.748l.1.1a1.6,1.6,0,0,1,.034,2.184,1.394,1.394,0,0,1-2.034.067,1.677,1.677,0,0,1-.068-2.218Z" transform="translate(-49.676)" fill="#2a357d" fill-rule="evenodd"/>
  </g>
</svg>
