<svg xmlns="http://www.w3.org/2000/svg" width="200.424" height="205.204" viewBox="0 0 200.424 205.204">
  <g id="Group_4" data-name="Group 4" transform="translate(-622.928 556.913)">
    <g id="Group_2" data-name="Group 2" transform="translate(622.928 -414.444)">
      <path id="Path_7" data-name="Path 7" d="M653.575-369.645c0,11.078-5.172,16.585-15.579,16.585-10.024,0-15.069-5.381-15.069-16.206v-21.207h8.364v21.4c0,5.951,2.362,8.863,7.024,8.863q6.895,0,6.9-8.546v-21.714h8.364Zm45.78,16.015h-7.534v-22.093c0-2.343.128-4.938.319-7.85h-.191c-.128.57-.319,1.077-.448,1.646s-.319,1.013-.447,1.583c-.192.443-.319.886-.447,1.266a6.781,6.781,0,0,1-.447.95l-6.96,13.42h-5.81l-6.832-13.42c-.064-.19-.192-.443-.319-.76-.064-.317-.255-.759-.383-1.2a13.319,13.319,0,0,1-.383-1.519,17.93,17.93,0,0,1-.384-1.963h-.255c.128,1.646.192,3.1.255,4.431.064,1.393.064,2.532.064,3.419v22.093h-7.534v-36.843H671.9l6.577,12.787c.128.443.383.823.51,1.266a7.455,7.455,0,0,1,.511,1.393,12.811,12.811,0,0,1,.574,1.393c.128.443.192.823.319,1.2h.128c.064-.38.256-.76.319-1.33q.193-.664.383-1.329c.128-.569.319-1.013.447-1.456.192-.443.319-.823.447-1.2l6.768-12.724h10.471Zm46.164,0h-7.534v-22.093c0-2.343.064-4.938.319-7.85h-.255a7.678,7.678,0,0,1-.383,1.646,14.6,14.6,0,0,1-.447,1.583c-.128.443-.319.886-.447,1.266s-.319.7-.383.95l-7.088,13.42h-5.81l-6.832-13.42a6.44,6.44,0,0,0-.192-.76,5.333,5.333,0,0,1-.383-1.2c-.192-.507-.319-1.013-.511-1.519-.128-.633-.192-1.266-.383-1.963H715c.128,1.646.191,3.1.255,4.431,0,1.393.128,2.532.128,3.419v22.093h-7.534v-36.843h10.216l6.512,12.787c.256.443.383.823.639,1.266.128.507.383.95.511,1.393.128.507.319.887.447,1.393a5.2,5.2,0,0,1,.383,1.2h.063a5.564,5.564,0,0,0,.383-1.33l.383-1.329c.191-.569.255-1.013.383-1.456.255-.443.383-.823.574-1.2l6.641-12.724h10.535Zm41.055,0h-9.067l-2.682-8.229H761.609l-2.553,8.229h-9.067l13.472-36.843h9.9Zm-13.664-14.623h0L768.952-380.6a19.387,19.387,0,0,1-.639-3.228h-.128a20.213,20.213,0,0,1-.7,3.165l-4.023,12.408Zm50.441,14.623h-8.364v-15H799.536v15h-8.364v-36.843h8.364v14.687h15.452v-14.687h8.364Z" transform="translate(-622.928 390.473)" fill="#fff"/>
      <path id="Path_8" data-name="Path 8" d="M624.588-325.55h-1.66v-14.624h1.66Zm12.451,0h-1.724V-331.5c0-2.216-.83-3.355-2.427-3.355a2.739,2.739,0,0,0-2.107.949,3.456,3.456,0,0,0-.83,2.406v5.951h-1.66V-336h1.66v1.773h0a3.871,3.871,0,0,1,3.512-1.963,3.141,3.141,0,0,1,2.618,1.076,4.814,4.814,0,0,1,.958,3.165Zm7.981-.127h0a2.762,2.762,0,0,1-1.532.316c-1.852,0-2.746-1.013-2.746-2.975v-6.2h-1.787V-336h1.787v-2.532l1.661-.507V-336h2.618v1.456H642.4v5.887a2.106,2.106,0,0,0,.383,1.456,1.453,1.453,0,0,0,1.213.506,1.46,1.46,0,0,0,1.022-.379Zm10.6-4.685h-7.47a4.371,4.371,0,0,0,.958,2.722,3.19,3.19,0,0,0,2.49.949,5.486,5.486,0,0,0,3.256-1.139v1.519a6.187,6.187,0,0,1-3.64,1.013,4.365,4.365,0,0,1-3.511-1.393,5.933,5.933,0,0,1-1.277-4.051,5.493,5.493,0,0,1,1.4-3.925,4.39,4.39,0,0,1,3.448-1.519,3.985,3.985,0,0,1,3.193,1.266,5.574,5.574,0,0,1,1.149,3.736Zm-1.724-1.393h0a3.6,3.6,0,0,0-.7-2.279,2.558,2.558,0,0,0-1.916-.823,2.766,2.766,0,0,0-2.043.886,3.787,3.787,0,0,0-1.021,2.216Zm9.705-2.532h0a1.8,1.8,0,0,0-1.276-.38,2.21,2.21,0,0,0-1.788,1.076,4.771,4.771,0,0,0-.7,2.722v5.318h-1.724V-336h1.724v2.215h.064a3.515,3.515,0,0,1,1.085-1.772,2.7,2.7,0,0,1,1.661-.633,1.8,1.8,0,0,1,.957.19Zm10.535,8.736h-1.66V-331.5c0-2.216-.83-3.355-2.427-3.355a2.647,2.647,0,0,0-2.107.949,3.788,3.788,0,0,0-.83,2.406v5.951h-1.724V-336h1.724v1.773h.064a3.707,3.707,0,0,1,3.448-1.963,3.062,3.062,0,0,1,2.618,1.076,5.191,5.191,0,0,1,.894,3.165Zm10.727,0H683.2V-327.2h-.063a3.544,3.544,0,0,1-3.256,1.9,3.315,3.315,0,0,1-2.427-.823,3.043,3.043,0,0,1-.894-2.215c0-1.9,1.149-3.039,3.511-3.355l3.129-.443c0-1.773-.7-2.722-2.171-2.722a5.127,5.127,0,0,0-3.448,1.329v-1.709a6.706,6.706,0,0,1,3.575-.949c2.491,0,3.7,1.266,3.7,3.861ZM683.2-330.8h0l-2.553.38a3.463,3.463,0,0,0-1.724.507,1.667,1.667,0,0,0-.639,1.456,1.764,1.764,0,0,0,.51,1.266,2.425,2.425,0,0,0,1.469.506,2.8,2.8,0,0,0,2.107-.886,3.276,3.276,0,0,0,.829-2.215Zm9.705,5.128h0a2.865,2.865,0,0,1-1.6.316c-1.788,0-2.682-1.013-2.682-2.975v-6.2h-1.852V-336h1.852v-2.532l1.66-.507V-336h2.618v1.456h-2.618v5.887a2.581,2.581,0,0,0,.319,1.456,1.452,1.452,0,0,0,1.213.506,1.62,1.62,0,0,0,1.085-.379Zm3-12.914h0a1.184,1.184,0,0,1-.766-.317,1.327,1.327,0,0,1-.319-.823,1.163,1.163,0,0,1,.319-.76,1.183,1.183,0,0,1,.766-.317,1.351,1.351,0,0,1,.83.317,1.163,1.163,0,0,1,.319.76,1.327,1.327,0,0,1-.319.823,1.351,1.351,0,0,1-.83.317Zm.83,10.129h0c0,.949.383,1.456,1.15,1.456a3.253,3.253,0,0,0,.829-.127v1.519c-.191,0-.319.063-.574.063a2.411,2.411,0,0,1-.7.063,2.057,2.057,0,0,1-.895-.19,1.272,1.272,0,0,1-.766-.507,1.538,1.538,0,0,1-.511-.823,3.051,3.051,0,0,1-.191-1.14V-336h1.66Zm8.173,3.165h0a5.172,5.172,0,0,1-3.767-1.456,5.64,5.64,0,0,1-1.341-3.925,5.533,5.533,0,0,1,1.469-4.051,5.036,5.036,0,0,1,3.895-1.456,4.794,4.794,0,0,1,3.7,1.393,5.989,5.989,0,0,1,1.277,3.988,5.446,5.446,0,0,1-1.406,3.988,5.02,5.02,0,0,1-3.831,1.519Zm.128-9.559h0a3.339,3.339,0,0,0-2.554,1.139,4.456,4.456,0,0,0-.958,3.039,4.22,4.22,0,0,0,.958,2.912,3.288,3.288,0,0,0,2.554,1.076,3.062,3.062,0,0,0,2.49-1.076,4.479,4.479,0,0,0,.894-2.975,4.791,4.791,0,0,0-.894-3.039,3.065,3.065,0,0,0-2.49-1.076Zm16.537,9.306h-1.661V-331.5c0-2.216-.83-3.355-2.49-3.355a2.522,2.522,0,0,0-2.043.949,3.46,3.46,0,0,0-.83,2.406v5.951h-1.724V-336h1.724v1.773h0A3.842,3.842,0,0,1,718-336.186a3.064,3.064,0,0,1,2.618,1.076,4.814,4.814,0,0,1,.958,3.165Zm10.726,0h-1.724V-327.2h0a3.543,3.543,0,0,1-3.256,1.9,3.22,3.22,0,0,1-2.427-.823,2.81,2.81,0,0,1-.894-2.215c0-1.9,1.15-3.039,3.448-3.355l3.129-.443c0-1.773-.7-2.722-2.107-2.722a5.408,5.408,0,0,0-3.512,1.329v-1.709a6.864,6.864,0,0,1,3.575-.949c2.49,0,3.767,1.266,3.767,3.861Zm-1.724-5.255h0l-2.554.38a3.964,3.964,0,0,0-1.724.507,1.808,1.808,0,0,0-.574,1.456,1.761,1.761,0,0,0,.511,1.266,2.164,2.164,0,0,0,1.469.506,2.905,2.905,0,0,0,2.107-.886,3.229,3.229,0,0,0,.766-2.215Zm6.449,2.343h0c0,.949.383,1.456,1.15,1.456a3.252,3.252,0,0,0,.829-.127v1.519c-.191,0-.319.063-.574.063a2.412,2.412,0,0,1-.7.063,2.057,2.057,0,0,1-.895-.19,1.272,1.272,0,0,1-.766-.507,2.108,2.108,0,0,1-.574-.823,5.613,5.613,0,0,1-.128-1.14V-341h1.66Zm19.794,2.279h0a7.962,7.962,0,0,1-4.086.886,6.217,6.217,0,0,1-4.98-2.025,7.3,7.3,0,0,1-1.916-5.254,7.61,7.61,0,0,1,2.107-5.635,7.11,7.11,0,0,1,5.364-2.152,9.47,9.47,0,0,1,3.512.57v1.835a7.414,7.414,0,0,0-3.512-.886,5.376,5.376,0,0,0-4.086,1.709,6.332,6.332,0,0,0-1.6,4.495,6.124,6.124,0,0,0,1.469,4.241,5.213,5.213,0,0,0,3.895,1.582,6.92,6.92,0,0,0,3.831-1.013Zm7.151.886h0a4.921,4.921,0,0,1-3.7-1.456,5.67,5.67,0,0,1-1.4-3.925,5.533,5.533,0,0,1,1.468-4.051,5.13,5.13,0,0,1,3.9-1.456,4.646,4.646,0,0,1,3.639,1.393,5.446,5.446,0,0,1,1.4,3.988,5.481,5.481,0,0,1-1.468,3.988,5.023,5.023,0,0,1-3.831,1.519Zm.128-9.559h0a3.337,3.337,0,0,0-2.553,1.139,4.456,4.456,0,0,0-.958,3.039,4.22,4.22,0,0,0,.958,2.912,3.286,3.286,0,0,0,2.553,1.076,3.288,3.288,0,0,0,2.554-1.076,4.481,4.481,0,0,0,.83-2.975,4.79,4.79,0,0,0-.83-3.039,3.291,3.291,0,0,0-2.554-1.076Zm9.386,6.394h0c0,.949.383,1.456,1.15,1.456a2.762,2.762,0,0,0,.766-.127v1.519c-.128,0-.255.063-.51.063a2.418,2.418,0,0,1-.7.063,2.05,2.05,0,0,1-.894-.19,1.269,1.269,0,0,1-.766-.507,1.528,1.528,0,0,1-.511-.823,3.009,3.009,0,0,1-.256-1.14V-341h1.724Zm5.364,0h0c0,.949.319,1.456,1.085,1.456a2.858,2.858,0,0,0,.83-.127v1.519c-.128,0-.319.063-.511.063a2.637,2.637,0,0,1-.7.063,2.057,2.057,0,0,1-.895-.19,1.648,1.648,0,0,1-.829-.507,3.1,3.1,0,0,1-.511-.823,3.123,3.123,0,0,1-.128-1.14V-341h1.66Zm12.2-1.9h-7.47a4.371,4.371,0,0,0,.958,2.722,3.434,3.434,0,0,0,2.554.949,5.8,5.8,0,0,0,3.256-1.139v1.519a6.55,6.55,0,0,1-3.7,1.013,4.315,4.315,0,0,1-3.448-1.393,5.629,5.629,0,0,1-1.277-4.051,5.749,5.749,0,0,1,1.34-3.925,4.58,4.58,0,0,1,3.448-1.519,4.035,4.035,0,0,1,3.256,1.266,5.922,5.922,0,0,1,1.085,3.736Zm-1.724-1.393h0a3.6,3.6,0,0,0-.7-2.279,2.558,2.558,0,0,0-1.916-.823,2.875,2.875,0,0,0-2.043.886,4.215,4.215,0,0,0-1.021,2.216Zm13.281,5.381h0c0,3.861-1.851,5.761-5.555,5.761a7.294,7.294,0,0,1-3.448-.759v-1.646a7.451,7.451,0,0,0,3.385.949c2.618,0,3.895-1.393,3.895-4.115v-1.139h0a3.936,3.936,0,0,1-3.64,2.025,4.05,4.05,0,0,1-3.193-1.393,5.8,5.8,0,0,1-1.149-3.735,6.355,6.355,0,0,1,1.277-4.241,4.34,4.34,0,0,1,3.511-1.519,3.472,3.472,0,0,1,3.193,1.646h0V-336H802.6Zm-1.724-3.861h0v-1.583a2.8,2.8,0,0,0-.83-2.089,2.739,2.739,0,0,0-2.107-.949,2.98,2.98,0,0,0-2.427,1.139,4.8,4.8,0,0,0-.894,3.165,4.268,4.268,0,0,0,.829,2.785,2.821,2.821,0,0,0,2.235,1.076,2.8,2.8,0,0,0,2.3-1.013,3.711,3.711,0,0,0,.894-2.532Zm13.6-.127h-7.47a3.732,3.732,0,0,0,.958,2.722,3.381,3.381,0,0,0,2.49.949,5.638,5.638,0,0,0,3.256-1.139v1.519a6.332,6.332,0,0,1-3.64,1.013,4.452,4.452,0,0,1-3.511-1.393,5.933,5.933,0,0,1-1.277-4.051,5.492,5.492,0,0,1,1.4-3.925,4.389,4.389,0,0,1,3.448-1.519,3.983,3.983,0,0,1,3.192,1.266,5.574,5.574,0,0,1,1.15,3.736Zm-1.788-1.393h0a3.578,3.578,0,0,0-.639-2.279,2.7,2.7,0,0,0-1.979-.823,2.628,2.628,0,0,0-1.979.886,4.278,4.278,0,0,0-1.085,2.216Zm3.7,5.824h0V-327.7a4.77,4.77,0,0,0,3,1.013c1.468,0,2.234-.506,2.234-1.456a1.5,1.5,0,0,0-.191-.759,3.874,3.874,0,0,0-.511-.507,8.422,8.422,0,0,0-.766-.379c-.319-.127-.575-.253-.958-.38a10.988,10.988,0,0,1-1.213-.57,2.9,2.9,0,0,1-.895-.633,2,2,0,0,1-.51-.76,2.919,2.919,0,0,1-.192-1.076,3.133,3.133,0,0,1,.319-1.329,4.062,4.062,0,0,1,.894-.949,6.572,6.572,0,0,1,1.341-.507,3.749,3.749,0,0,1,1.468-.19,5.921,5.921,0,0,1,2.427.443v1.709a4.792,4.792,0,0,0-2.682-.823,3.257,3.257,0,0,0-.83.127,2.009,2.009,0,0,0-.639.317,1.714,1.714,0,0,0-.447.506,1.252,1.252,0,0,0-.128.57,2.251,2.251,0,0,0,.128.7,1.489,1.489,0,0,0,.447.443,2.482,2.482,0,0,0,.7.38c.255.127.574.253.894.443a4.847,4.847,0,0,1,1.277.506,6.275,6.275,0,0,1,.958.633,4.108,4.108,0,0,1,.639.823,4.706,4.706,0,0,1,.191,1.077,2.922,2.922,0,0,1-.319,1.329,2.3,2.3,0,0,1-.957.949,4.28,4.28,0,0,1-1.341.57,6.522,6.522,0,0,1-1.6.189,5.33,5.33,0,0,1-2.745-.633Z" transform="translate(-622.928 383.347)" fill="#fff"/>
    </g>
    <g id="Group_3" data-name="Group 3" transform="translate(660.903 -556.913)">
      <path id="Path_9" data-name="Path 9" d="M730.6-524.985v.33c0,.22.223.55.444.55.333,0,.333-.44.333-.661l-.222.11a.837.837,0,0,1-.223-.55,3.863,3.863,0,0,0,.111-.661c-.222.11-.111.11-.222.441,0,.11-.223.11-.223.44Zm9.661-.44h0s.666.55.666.66-.222.221-.444.221h0c-.333,0-.222-.441-.222-.771Zm-.111-.11h0c-.222.22-.222.77-.222,1.1.11.11.333.33.444.33h.11a.822.822,0,0,0,.667-.661c0-.44-.223-.55-.334-.77h-.333v-.11c0-.11,0-.11-.222-.221Zm-4.552,0h0l.222.11v.11a1.454,1.454,0,0,1-.333.55,3.708,3.708,0,0,0-.667.33c.111.11.111.11.223.11h.111a4.827,4.827,0,0,1,.777-.441,1.112,1.112,0,0,0,.444-.77c0-.11,0-.33-.223-.33h-.111c-.11,0-.443.221-.443.33Zm9.215.661h0v.22c0,.22.111.55.334.55a.353.353,0,0,0,.333-.33v-.11c0-.441-.333.33-.333-.771v-.44c.11,0,.11,0,.11-.11v-.22h-.11c0,.55-.223.33-.223.55-.111.11-.111.55-.111.661Zm-18.1,5.064h0v.661a7.59,7.59,0,0,0,.333.881c.222.22.444.55.777.55h.222c.556,0,.778-.441,1-.771.111-.22.111-.55.333-.66.111-.11.556-.11.777-.221a1.57,1.57,0,0,0,1-.88c.222-.221.666-1.211,0-1.211h-.223c-.222,0-.555.11-.555,0,0-.33,1-1.431,1.221-1.651v-.221a4.09,4.09,0,0,0-1.666,2.312c0,.11.11.441.333.441h.111c.222,0,.555-.11.555,0,0,.33-1.443,1.321-1.443.99,0-.22.222-.33.222-.55v-.11c-.333,0-.333.22-.555.44s-.444.22-.667.44c-.555-.11-.777-.66-.777-1.321,0-1.431.667-2.092,1.221-3.082a7.245,7.245,0,0,0,.888-3.3c0-.33,0-1.322-.333-1.431a5.246,5.246,0,0,0,0,1.321c-.111.44-.111.881-.223,1.211a5.411,5.411,0,0,1-.888,1.982,8.349,8.349,0,0,0-1.666,4.183Zm17.877-2.422h0c.222.11.889.66.889.88,0,.11-.777.661-.777.881h0a2.168,2.168,0,0,0,1,.991,6.582,6.582,0,0,1,.889-.881c0-.33-.777-.77-.889-.991.111-.33.889-.88.889-.99a8.442,8.442,0,0,0-1-.991,4.736,4.736,0,0,0-1,1.1Zm-6.885-18.826h0v19.926c0,.109,0,.109-.111.109h-.11c-.333,0-.555-.55-.667-.881,0-.44-.11-.881-.555-.881a3,3,0,0,0-1.887,1.1,3.586,3.586,0,0,0-.667,2.311c0,.11-.333.221-.333.221-.333,0-.222-1.431-.222-1.762V-530.6a9.312,9.312,0,0,0,0-1.762,5.219,5.219,0,0,0-.777-1.321v14.862c-.444.33-.888.55-1.333.88a5.347,5.347,0,0,0-1.221.991c-.556.44-1.777,1.762-2.776,1.651l-.556-.11c-.443-.33-.666-.33-.777-.991-.11-.55.223-1.1.223-1.431-.223,0-.555,1.211-.555,1.651v.11a1.971,1.971,0,0,0,.333,1.211c.223.44.889.55.889.77a4.656,4.656,0,0,0,3-1.542c.443-.33,2.22-1.982,2.665-1.982h.111v1.982a9.657,9.657,0,0,1-2,2.312c-.555.441-1.888,1.542-2.887,1.542h-.333c-.444,0-.667-.441-.777-.771-.111-.66.11-.88.11-1.321h-.11v.33c-.223.11-.333.881-.333,1.211a1.921,1.921,0,0,0,.777,1.541c.777.33,1.11-.11,2-.11.222-.33.222-.221.555-.441,0-.11.556-.44.556-.44h.222l-.111.55a3.221,3.221,0,0,0-.333,1.1v.55c0,.991.777,2.312,1.777,2.312h.111c.777,0,2-1.321,2.332-1.872.222-.22,2-2.091,2-2.091.222,0,.222,0,.222.22.111-.11.223-.44.333-.55.223-.44.223-.33.556-.55a3.7,3.7,0,0,1,1.443-.441h.444c.333,0,.444.221.556.221.222,0,.333-.221.333-.441v-.22c0-.33-.556-.661-1.11-.661-1.666,0-3,1.322-3.887,2.2a19.855,19.855,0,0,0-1.443,1.541,2.576,2.576,0,0,1-.777.77c-.111.11-.777.661-.777.661l-.666.11h-.111c-.777,0-1.11-.771-1.11-1.431v-.33a5.089,5.089,0,0,1,1-2.642,7.932,7.932,0,0,0,.889-.99c.111-.11.222-.33.333-.441,0-.11.223-.55.333-.55h.111c.111,0,.111.55.222.771a2.026,2.026,0,0,0,.223.77,1.719,1.719,0,0,0,1.333.881h.11a2.232,2.232,0,0,0,1-.771,2.437,2.437,0,0,0,.444-1.431v-.11c0-.441-.333-1.872-.555-1.872s-.222.881-.333,1.1c.111.33.444.66.444,1.1v.11c0,.441-.556.55-1,.55h-.333c-.555,0-1-1.321-1-2.091v-2.2c0-.22.333-.22.555-.22h.444a2.1,2.1,0,0,1,1.221.55c.333.221.666.661.888.771a2.208,2.208,0,0,0,.444-.881v-.11c0-.33-1-.99-1.221-1.211-.444-.22-1.333-.77-1.333-1.21v-.11c0-.55,1.221-1.1,1.666-1.1h.333c.556,0,.223,1.762,1.443,1.762h.111a30.462,30.462,0,0,0,0,3.192c.223.881.556,1.762,1.554,1.762h.223c.777,0,1.332-.99,1.443-1.762,0-.77-.111-2.091-.666-2.422l-.223,1.1h0c0,.22.444.55.444.881v.44c0,.221-.555.55-.777.55h-.333c-.444,0-.888-.77-.888-1.21v-2.422c0-.22.444-.33.667-.55.11-.11.333-.77.555-.77h.111a1.41,1.41,0,0,0,1,.77h.222c.555,0,1-.99,1-1.651v-.22c0-.33-.11-.441-.11-.661,0-.33-.111-.22-.223-.55h0l-.222.881c0,.11.11.22.11.33h0a.592.592,0,0,1-.555.55h-.111c-.555,0-.777-.55-.777-1.1v-.221c-.444,0-.556.661-.666.991-.111.22-.556.77-.889.77-.111,0-.111,0-.111-.109v-19.156a3,3,0,0,1-.666-1.321h-.111Zm8.55,13.982h0v.11a12.947,12.947,0,0,0,1.776,5.835c.667,1.431,2.221,3.633,2.221,5.5v.441a7,7,0,0,1-1.777,4.514,10.949,10.949,0,0,1-1.666,1.541,7.69,7.69,0,0,1-1,.661l-.444.22c-.333.221-.444.11-.444.441h.223a15.225,15.225,0,0,0,2.22-1.211,11.869,11.869,0,0,0,1.776-1.541,7.7,7.7,0,0,0,1.888-4.734v-.55a10.83,10.83,0,0,0-.667-2.862c-.11-.33-.443-.881-.555-1.211a10.077,10.077,0,0,1-.556-1.1c-.666-1.321-2-3.082-2-4.953v-.11c0-.55.444.22.555.22,0-.109.111-.22.111-.44a8.105,8.105,0,0,0-.444-1.542,6.991,6.991,0,0,0-.223-.77c-.11-.33-.11-.661-.333-.77a5.568,5.568,0,0,0-.666,2.312Zm1,7.155h0l-.222.11c0,.33-.223.44-.223.77,0,.221.444.55.667.55a.617.617,0,0,0,.555-.66v-.221c0-.33-.555-.88-.555-.44v.33a.293.293,0,0,1,.333.33v.22h-.333l-.111.11-.333-.441h.111l.11-.661.223-.22-.111-.11ZM741.7-517.5h0v.33c0,.22.111.44.333.44h0c.222,0,.334-.22.334-.44h0c0-.11,0-.11-.111-.22l-.222.109v-.99c0-.11,0,0-.11-.11a2.059,2.059,0,0,0-.223.881Zm-4.775,1.431h0c-.333.109-.555,1.651,0,1.651h0c.223,0,.333-.22.333-.44v-.221c-.222.11-.11.11-.222.11s-.111-.22-.111-.33v-.77Zm12.548.99h0a2.122,2.122,0,0,0-.556-.99h-.111c-.333,0,.223.77.223.881.222.22.11.881.222,1.1h.111Zm-9.105,1.211h0l.888.881c.223-.11,1-.661,1-.99a3.357,3.357,0,0,0-.888-.881,4.253,4.253,0,0,0-1,.99Zm-11.215.441h0a6.8,6.8,0,0,0,.666-.441c.111-.11.222-.33.444-.44,0-.33.111-.661-.223-.661-.222,0-.555.11-.555.22s.222.11.222.33c0,.441-.777.661-.777.881.111.11.111.11.223.11Zm16.211-3.083h0c0-.22.444-.44.777-.33.222,0,.666.33.666.55,0,.11-.555,0-.777,0a1.207,1.207,0,0,1-.666-.11Zm-2.443-16.954h0v.11l.111,7.155v13.651c0,.221-.444.441-.666.661a4.165,4.165,0,0,0-.778.661,15.076,15.076,0,0,0-1.332,1.321c-.667.661-2,2.642-3,2.642h-.333c-.888,0-1.221-.881-1.221-1.762v-.33l.111-.55.333-1.1a3.522,3.522,0,0,0-.666,1.982v.22a3.028,3.028,0,0,0,.555,1.762,1.677,1.677,0,0,0,1.444.881c1.11,0,2.22-1.542,2.776-2.2.444-.441.777-.881,1.221-1.322a6.316,6.316,0,0,0,1.221-1.21h.222c.111,0,.111,0,.111.11v.55l-.111,2.532a5.306,5.306,0,0,0,.666-1.761,10.591,10.591,0,0,0,.111-1.982,5.52,5.52,0,0,1,1.444-.441,5.216,5.216,0,0,0,1.554-.44,2.6,2.6,0,0,0,1.554-2.312v-.33a3.9,3.9,0,0,0-.667-2.092c-.222-.33-1-1.21-1.443-1.21h-.111c-.777,0-1.332,1.431-1.332,2.2,0,1.321,1.665,1.211,2.776,1.211a.571.571,0,0,1,.222.44v.33c0,.44-1.11.77-1.666.77-.444.11-.666,0-1.11.11a5.3,5.3,0,0,1-1,.33H743.7v-19.486a4.931,4.931,0,0,0-.666-1.321c0,.11-.111.11-.111.22Zm-11.548,22.128h0a4.217,4.217,0,0,0,1,.991c.11-.22.777-.771.777-.991s-.777-.99-.889-.99a3.812,3.812,0,0,0-.888.99Zm15.545.55h0v-.11c0-.221,0-.221-.111-.33h-.222c-.111,0-.111,0-.333.11v.221c0,.11.11.11.11.22s-.333.55-.333.661c-.333,0-.333,0-.444.22h.222c.222,0,1.11-.661,1.11-.991Zm-8.439.221h.222c.11,0,.11.11.222.11s.223,0,.223-.11v-.11c0-.11-.334-.33-.444-.33H738.6c-.444,0-.444.77-.556,1.1-.333-.11-.333-.66-.888-.66-.111.11-.111,0-.111.11s.222.441.444.441h.11c.111.22.223.22.334.44s.11.33.222.55h.111l.111-1.211Zm-9.882.44h0c0-.11.111-.33.111-.44l-.111-.11a1.1,1.1,0,0,0-.111.33v.11l-.11.11-.111.44c0,.221.222.661.555.661a.766.766,0,0,0,.222-.44v-.11h-.222a.837.837,0,0,1-.223-.55Zm5.885,3.3h0c.333,0,.333-.22.333-.44h-.11c-.444,0-.223-.661-.444-.881-.111.11-.111.11-.111.33v.661a.5.5,0,0,0,.333.33Zm2.443-.44h.333c1,0,2.332-1.982,3-2.642a15.076,15.076,0,0,1,1.332-1.321,4.165,4.165,0,0,1,.778-.661c.222-.22.666-.44.666-.661V-526.2l-.111-7.155v-.11c0-.11.111-.11.111-.22a4.931,4.931,0,0,1,.666,1.321v19.486h.223a5.3,5.3,0,0,0,1-.33c.444-.11.666,0,1.11-.11.556,0,1.666-.33,1.666-.77v-.33a.571.571,0,0,0-.222-.44c-1.111,0-2.776.11-2.776-1.211,0-.77.555-2.2,1.332-2.2h.111c.444,0,1.221.881,1.443,1.21a3.9,3.9,0,0,1,.667,2.092v.33a2.6,2.6,0,0,1-1.554,2.312,5.216,5.216,0,0,1-1.554.44,5.52,5.52,0,0,0-1.444.441,10.591,10.591,0,0,1-.111,1.982,5.306,5.306,0,0,1-.666,1.761l.111-2.532v-.55c0-.11,0-.11-.111-.11H742.7a6.316,6.316,0,0,1-1.221,1.21c-.444.441-.777.881-1.221,1.322-.556.66-1.666,2.2-2.776,2.2a1.677,1.677,0,0,1-1.444-.881,3.028,3.028,0,0,1-.555-1.762v-.22a3.522,3.522,0,0,1,.666-1.982l-.333,1.1-.111.55v.33c0,.881.333,1.762,1.221,1.762Zm-.111-14.642h0c.111.33.334.881.667.881h.11c.111,0,.111,0,.111-.109v-20.477h.111a3,3,0,0,0,.666,1.321v19.156c0,.109,0,.109.111.109.333,0,.777-.55.889-.77.11-.33.222-.991.666-.991v.221c0,.55.223,1.1.777,1.1h.111a.592.592,0,0,0,.555-.55h0c0-.11-.11-.22-.11-.33l.222-.881h0c.111.33.223.22.223.55,0,.22.11.33.11.661v.22c0,.661-.444,1.651-1,1.651h-.222a1.41,1.41,0,0,1-1-.77h-.111c-.222,0-.444.661-.555.77-.223.22-.667.33-.667.55v2.422c0,.44.444,1.21.888,1.21h.333c.223,0,.777-.33.777-.55v-.44c0-.33-.444-.661-.444-.881h0l.223-1.1c.555.33.666,1.651.666,2.422-.111.771-.666,1.762-1.443,1.762h-.223c-1,0-1.332-.881-1.554-1.762a30.462,30.462,0,0,1,0-3.192H737.6c-1.221,0-.888-1.762-1.443-1.762h-.333c-.444,0-1.666.55-1.666,1.1v.11c0,.44.889.99,1.333,1.21.222.221,1.221.881,1.221,1.211v.11a2.208,2.208,0,0,1-.444.881c-.223-.11-.556-.55-.888-.771a2.1,2.1,0,0,0-1.221-.55h-.444c-.222,0-.555,0-.555.22v2.2c0,.77.444,2.091,1,2.091h.333c.444,0,1-.11,1-.55v-.11c0-.441-.333-.771-.444-1.1.111-.221.111-1.1.333-1.1s.555,1.431.555,1.872v.11a2.437,2.437,0,0,1-.444,1.431,2.232,2.232,0,0,1-1,.771h-.11a1.719,1.719,0,0,1-1.333-.881,2.026,2.026,0,0,1-.223-.77c-.11-.221-.11-.771-.222-.771h-.111c-.11,0-.333.441-.333.55-.111.11-.222.33-.333.441a7.932,7.932,0,0,1-.889.99,5.089,5.089,0,0,0-1,2.642v.33c0,.66.333,1.431,1.11,1.431h.111l.666-.11s.666-.55.777-.661a2.576,2.576,0,0,0,.777-.77,19.855,19.855,0,0,1,1.443-1.541c.888-.881,2.221-2.2,3.887-2.2.555,0,1.11.33,1.11.661v.22c0,.22-.111.441-.333.441-.111,0-.223-.221-.556-.221h-.444a3.7,3.7,0,0,0-1.443.441c-.333.22-.333.11-.556.55-.11.11-.222.44-.333.55,0-.22,0-.22-.222-.22,0,0-1.777,1.871-2,2.091-.333.551-1.554,1.872-2.332,1.872h-.111c-1,0-1.777-1.321-1.777-2.312v-.55a3.221,3.221,0,0,1,.333-1.1l.111-.55h-.222s-.556.33-.556.44c-.333.22-.333.11-.555.441-.888,0-1.221.44-2,.11a1.921,1.921,0,0,1-.777-1.541c0-.33.11-1.1.333-1.211v-.33h.11c0,.441-.222.661-.11,1.321.11.33.333.771.777.771h.333c1,0,2.332-1.1,2.887-1.542a9.657,9.657,0,0,0,2-2.312v-1.982h-.111c-.444,0-2.221,1.651-2.665,1.982a4.656,4.656,0,0,1-3,1.542c0-.22-.666-.33-.889-.77a1.971,1.971,0,0,1-.333-1.211v-.11c0-.44.333-1.651.555-1.651,0,.33-.333.881-.223,1.431.111.661.334.661.777.991l.556.11c1,.11,2.22-1.211,2.776-1.651a5.347,5.347,0,0,1,1.221-.991c.444-.33.889-.55,1.333-.88v-14.862a5.219,5.219,0,0,1,.777,1.321,9.312,9.312,0,0,1,0,1.762v9.688c0,.33-.111,1.762.222,1.762,0,0,.333-.11.333-.221a3.586,3.586,0,0,1,.667-2.311,3,3,0,0,1,1.887-1.1c.444,0,.555.441.555.881Zm1.777.881h0c-.111,0-.111-.109-.111-.22v-17.064a11.77,11.77,0,0,0,0-1.982c-.11-.33-.555-.881-.555-1.321-.444,0-.223.33-.223.66v19.817c0,.109-.111.109-.222.109-.333,0-.555-.55-.555-.99-.111-.441-.222-.881-.666-.881h-.111c-.666,0-1.443.77-1.776,1.1a3.177,3.177,0,0,0-.667,2.422c-.333.11-.444.33-.444-.22V-530.6a9.467,9.467,0,0,0-.11-1.871l-.334-.661c-.11-.22-.222-.661-.443-.661v14.973c-.444.33-.888.44-1.444.77-.333.33-.777.661-1.11.99-.556.55-1.777,1.762-2.776,1.652l-.556-.11c-.333-.22-.666-.33-.666-.991-.111-.55.223-.88.223-1.431.11,0,.11,0,.11-.22v-.11l-.222.11v.22c-.333.11-.555,1.211-.555,1.652v.22a2.335,2.335,0,0,0,.333,1.321c.223.33.777.55.777.771a4.742,4.742,0,0,0,1.888-.551c.222-.11.11,0,.333-.22.111-.11.222-.22.333-.22a3.5,3.5,0,0,0,.666-.55c.444-.441,2.11-1.982,2.666-1.982v1.762c0,.44-1.666,2.2-2,2.422-.555.441-2,1.542-2.887,1.542h-.223c-.443,0-.666-.441-.777-.771-.222-.66.111-.88.111-1.21v-.11c0-.11,0,0-.111-.11h-.11l-.111.33a4.692,4.692,0,0,0-.222,1.322,1.546,1.546,0,0,0,1.665,1.762,6.3,6.3,0,0,1,1.111-.221,3.147,3.147,0,0,1,1.221-.881v.441c-.222,0-.333.77-.333,1.1v.55c0,1.1.777,2.312,1.777,2.312h.111c1.332,0,3.442-3.193,4.441-3.963.111.11,0,0,0,.11s0,0-.11.221,0,.11-.111.22a.983.983,0,0,0-.111.55,1.641,1.641,0,0,0-.222,1.1v.22c0,1.322.666,2.753,2,2.753h0c1.11,0,2.22-1.652,2.887-2.2.443-.44.777-.881,1.221-1.321a14.522,14.522,0,0,1,1.221-1.321c.111,0,.111,0,.111.11v3.082l.223-.11c0-.22.333-1.211.443-1.651a5.716,5.716,0,0,0,.223-1.982,11.554,11.554,0,0,1,1.443-.441,3.162,3.162,0,0,0,1.444-.44,2.442,2.442,0,0,0,1.554-2.2v-.55a3.518,3.518,0,0,0-.667-1.982c-.11-.44-1-1.321-1.443-1.321h-.111c-.777,0-1.555,1.651-1.443,2.532.222,1.1,1.666.991,2.887.991a4.7,4.7,0,0,1,.11.55v.11c0,.55-1.11.881-1.665.881-.555.11-.667,0-1.111.11a4.164,4.164,0,0,1-1,.22v-19.376a1.766,1.766,0,0,0-.444-.77c-.111-.22-.111-.661-.444-.661v.661l.111,7.046-.111,13.431c0,.33-.444.55-.666.77-.222.11-.444.441-.667.661a15.768,15.768,0,0,0-1.443,1.321c-.556.661-1.887,2.532-2.887,2.532h-.333c-.888,0-1.221-.881-1.221-1.651v-.33l.111-.55a10.29,10.29,0,0,0,.333-.99,4.767,4.767,0,0,1,.444-.771,3.757,3.757,0,0,1,1.887-.881h.333c.334,0,.444.221.777.33a.835.835,0,0,0,.223-.55v-.22c0-.44-.556-.77-1.11-.77h0c-1.666,0-3,1.321-3.887,2.2-.555.55-1,.991-1.555,1.651-.222.33-.444.441-.666.77a9.1,9.1,0,0,0-.888.661h-.666c-.777,0-1-.661-1-1.431v-.11a3.832,3.832,0,0,1,1-2.642c.111-.22.666-.77.777-.991s.222-.33.333-.55c.111-.11.333-.55.444-.55s.111.661.222.881a2.019,2.019,0,0,0,.223.77,1.6,1.6,0,0,0,1.221.771h.222a1.413,1.413,0,0,0,1-.771,2.348,2.348,0,0,0,.444-1.321v-.33c0-.44-.223-1.762-.555-1.762h0c-.222,0-.333.991-.333,1.1,0,.33.333.55.333,1.1,0,.44-.444.66-.889.66h-.222c-.555,0-1-1.431-1-2.091v-2.092c0-.22.223-.22.444-.22h.444c.889,0,2,1.321,2.11,1.321s.444-.77.444-.99v-.11c0-.33-.889-1.1-1.221-1.211-.333-.22-1.221-.77-1.221-1.321,0-.44,1.11-1.1,1.554-1.1h.222c.667,0,.223,1.762,1.554,1.762l.111.11a30.478,30.478,0,0,0,0,3.193c.223.881.556,1.651,1.554,1.651h.333c.667,0,1.333-.99,1.333-1.762a6.216,6.216,0,0,0-.111-1.431c0-.33-.333-1.1-.555-1.1,0,0-.223.991-.223,1.211v.11c0,.11.334.55.334.77v.44c0,.221-.444.441-.667.441h-.333c-.444,0-.888-.661-.888-1.211v-2.312c0-.11.555-.33.667-.55.222-.22.333-.66.666-.66,0,.22.666.77.888.77h.333c.666,0,1-.991,1-1.651v-.441c0-.44,0-.881-.333-1.1a7.529,7.529,0,0,0-.333.881c0,.11.111.11.111.33a.71.71,0,0,1-.556.55h0a.73.73,0,0,1-.666-.77c-.111-.33-.111-1.211-.444-.441-.223.441-.666,1.651-1.221,1.651Zm2.776,13.872h0a.352.352,0,0,0,.333.33c.333,0,.333-.22.333-.44-.555,0-.333-.441-.444-.991-.222.11-.222.221-.222.441Z" transform="translate(-675.658 554.709)" fill="#fff" fill-rule="evenodd"/>
      <path id="Path_10" data-name="Path 10" d="M680.929-514.663c-7.439,9.138-7.884,17.284-5.108,24.99,4.552,12.44,18.21,19.816,20.43,34.9a33.272,33.272,0,0,1-8.328,26.752c8.328-11.559-.555-25.21-11.325-39.082-12.215-15.853-13.991-35.229,4.33-47.558Zm97.159,0h0c7.551,9.138,7.995,17.284,5.108,24.99-4.553,12.44-18.1,19.816-20.431,34.9a33.673,33.673,0,0,0,8.328,26.752c-8.328-11.559.667-25.21,11.326-39.082,12.325-15.853,13.991-35.229-4.33-47.558ZM752.1-534.149h0c7.439,9.138,7.883,17.394,5.108,24.99-4.552,12.441-18.21,19.817-20.43,35.009A32.96,32.96,0,0,0,745-447.508c-8.217-11.56.666-25.211,11.437-39.082,12.214-15.743,13.991-35.229-4.33-47.559Zm-45.192,0h0c-7.44,9.138-7.884,17.394-5,24.99,4.442,12.441,18.1,19.817,20.32,35.009a32.964,32.964,0,0,1-8.217,26.642c8.328-11.56-.667-25.211-11.438-39.082-12.214-15.743-13.88-35.229,4.331-47.559Z" transform="translate(-667.292 553.635)" fill="#f7d606" fill-rule="evenodd"/>
      <path id="Path_11" data-name="Path 11" d="M767.288-526.568c7.44,9.138,7.884,17.394,5.108,24.99-4.553,12.44-18.211,19.816-20.431,35.009-1.333,9.247,1.776,19.816,8.328,26.641-8.328-11.559.556-25.21,11.326-39.082,12.325-15.853,13.99-35.229-4.331-47.558Zm-36.2-19.156h0c-12.436,2.973-18.766,8.367-21.985,14.972-8.217,17.285,10.992,40.073,22.873,51.192a120.128,120.128,0,0,0,18.654-24c6.329-10.789,8.995-20.037,2.443-29.725-4.886-7.046-12.214-10.458-20.431-12.44,23.984,12.881,15.768,40.843-.555,56.476-18.21-13.651-25.095-42.935-1-56.476Zm-34.977,19.156h0c-7.439,9.138-7.884,17.394-5.108,24.99,4.553,12.44,18.21,19.816,20.431,35.009a32.963,32.963,0,0,1-8.217,26.641c8.217-11.559-.666-25.21-11.437-39.082-12.214-15.853-13.88-35.229,4.33-47.558Z" transform="translate(-669.485 555.302)" fill="#fff" fill-rule="evenodd"/>
      <path id="Path_12" data-name="Path 12" d="M735.806-556.473c.111-.11.223-.11.333-.22a4.467,4.467,0,0,0,.334,5.725,3.776,3.776,0,0,0,5.662-.22,4.454,4.454,0,0,0,.111-5.725l.333.33a5.225,5.225,0,0,1,.111,7.155,4.565,4.565,0,0,1-6.662.221,5.493,5.493,0,0,1-.223-7.266Z" transform="translate(-676.977 556.913)" fill="#fff" fill-rule="evenodd"/>
    </g>
  </g>
</svg>
