<svg xmlns="http://www.w3.org/2000/svg" width="143.992" height="147.426" viewBox="0 0 143.992 147.426">
  <g id="Group_34" data-name="Group 34" transform="translate(-4.612 556.913)">
    <g id="Group_30" data-name="Group 30" transform="translate(4.612 -454.558)">
      <path id="Path_87" data-name="Path 87" d="M26.631-375.51c0,7.959-3.716,11.916-11.193,11.916-7.2,0-10.826-3.866-10.826-11.643v-15.236h6.009V-375.1c0,4.275,1.7,6.367,5.046,6.367q4.954,0,4.954-6.14v-15.6h6.009ZM59.521-364H54.108v-15.872c0-1.683.092-3.548.229-5.64H54.2c-.092.41-.229.774-.321,1.183s-.229.728-.321,1.137c-.138.319-.229.636-.322.91a4.8,4.8,0,0,1-.321.683l-5,9.641H43.741L38.832-381.6c-.046-.137-.137-.319-.229-.546-.046-.228-.183-.545-.275-.864a9.583,9.583,0,0,1-.276-1.092,12.751,12.751,0,0,1-.275-1.41h-.184c.092,1.183.138,2.229.184,3.184.046,1,.046,1.819.046,2.456V-364H32.41v-26.469H39.8l4.725,9.187c.092.319.275.592.367.91a5.39,5.39,0,0,1,.367,1,9.22,9.22,0,0,1,.413,1c.092.319.137.592.229.865h.092c.046-.273.183-.546.229-.956l.275-.955c.092-.409.229-.728.321-1.046.138-.318.229-.591.322-.864L52-390.473h7.523Zm33.165,0H87.273v-15.872c0-1.683.046-3.548.229-5.64h-.183a5.514,5.514,0,0,1-.276,1.183,10.486,10.486,0,0,1-.321,1.137c-.092.319-.229.636-.321.91s-.229.5-.275.683l-5.091,9.641H76.861L71.952-381.6a4.628,4.628,0,0,0-.138-.546,3.861,3.861,0,0,1-.275-.864c-.138-.364-.229-.728-.367-1.092-.092-.455-.138-.91-.275-1.41H70.76c.092,1.183.138,2.229.183,3.184,0,1,.092,1.819.092,2.456V-364H65.621v-26.469h7.34l4.679,9.187c.183.319.275.592.459.91.092.364.275.683.367,1,.092.364.229.637.322,1a3.732,3.732,0,0,1,.275.865h.046a4.028,4.028,0,0,0,.275-.956l.276-.955c.138-.409.183-.728.275-1.046.184-.318.275-.591.413-.864l4.77-9.141h7.569Zm29.5,0h-6.514l-1.927-5.912h-9.5L102.411-364H95.9l9.679-26.469h7.11Zm-9.817-10.505h0l-2.844-8.869a13.8,13.8,0,0,1-.459-2.319h-.092a14.524,14.524,0,0,1-.5,2.274l-2.89,8.915ZM148.6-364h-6.009v-10.779h-11.1V-364h-6.009v-26.469h6.009v10.552h11.1v-10.552H148.6Z" transform="translate(-4.612 390.473)" fill="#2a357d"/>
      <path id="Path_88" data-name="Path 88" d="M5.805-329.9H4.612v-10.506H5.805Zm8.945,0H13.511v-4.275c0-1.592-.6-2.411-1.743-2.411a1.968,1.968,0,0,0-1.514.682,2.485,2.485,0,0,0-.6,1.729v4.275H8.465v-7.5H9.658v1.274h0a2.782,2.782,0,0,1,2.523-1.41,2.256,2.256,0,0,1,1.881.773,3.459,3.459,0,0,1,.688,2.274Zm5.734-.091h0a1.983,1.983,0,0,1-1.1.227c-1.33,0-1.973-.727-1.973-2.137v-4.457H16.126V-337.4H17.41v-1.819l1.193-.364v2.183h1.881v1.046H18.6v4.23a1.513,1.513,0,0,0,.275,1.046,1.045,1.045,0,0,0,.872.363,1.048,1.048,0,0,0,.734-.272Zm7.615-3.366H22.731a3.141,3.141,0,0,0,.688,1.956,2.292,2.292,0,0,0,1.789.682,3.938,3.938,0,0,0,2.339-.819v1.092a4.445,4.445,0,0,1-2.614.728,3.137,3.137,0,0,1-2.523-1,4.263,4.263,0,0,1-.918-2.911,3.946,3.946,0,0,1,1.009-2.82,3.155,3.155,0,0,1,2.477-1.092,2.862,2.862,0,0,1,2.294.91,4,4,0,0,1,.826,2.684Zm-1.239-1h0a2.586,2.586,0,0,0-.5-1.637,1.838,1.838,0,0,0-1.376-.592,1.989,1.989,0,0,0-1.468.637,2.72,2.72,0,0,0-.734,1.592Zm6.972-1.819h0a1.3,1.3,0,0,0-.918-.273,1.588,1.588,0,0,0-1.285.773,3.428,3.428,0,0,0-.5,1.956v3.821H29.888v-7.5h1.239v1.592h.046a2.534,2.534,0,0,1,.78-1.273,1.943,1.943,0,0,1,1.193-.455,1.3,1.3,0,0,1,.688.137ZM41.4-329.9H40.209v-4.275c0-1.592-.6-2.411-1.743-2.411a1.9,1.9,0,0,0-1.514.682,2.721,2.721,0,0,0-.6,1.729v4.275H35.117v-7.5h1.239v1.274H36.4a2.664,2.664,0,0,1,2.477-1.41,2.2,2.2,0,0,1,1.881.773,3.726,3.726,0,0,1,.642,2.274Zm7.707,0H47.915v-1.183h-.046a2.546,2.546,0,0,1-2.339,1.364,2.382,2.382,0,0,1-1.743-.591,2.186,2.186,0,0,1-.642-1.592c0-1.365.826-2.183,2.523-2.411l2.248-.319c0-1.274-.5-1.956-1.56-1.956a3.685,3.685,0,0,0-2.478.955v-1.228a4.818,4.818,0,0,1,2.569-.682c1.789,0,2.66.91,2.66,2.774Zm-1.192-3.775h0l-1.835.273a2.487,2.487,0,0,0-1.239.364,1.2,1.2,0,0,0-.459,1.046,1.265,1.265,0,0,0,.367.91,1.739,1.739,0,0,0,1.055.363,2.014,2.014,0,0,0,1.514-.637,2.351,2.351,0,0,0,.6-1.592Zm6.972,3.684h0a2.061,2.061,0,0,1-1.147.227c-1.285,0-1.927-.727-1.927-2.137v-4.457h-1.33V-337.4h1.33v-1.819l1.192-.364v2.183h1.881v1.046H53.007v4.23a1.86,1.86,0,0,0,.229,1.046,1.045,1.045,0,0,0,.872.363,1.166,1.166,0,0,0,.78-.272Zm2.156-9.278h0a.851.851,0,0,1-.551-.228.956.956,0,0,1-.229-.591.838.838,0,0,1,.229-.546.851.851,0,0,1,.551-.228.969.969,0,0,1,.6.228.836.836,0,0,1,.229.546.953.953,0,0,1-.229.591.969.969,0,0,1-.6.228Zm.6,7.277h0c0,.682.276,1.046.826,1.046a2.347,2.347,0,0,0,.6-.091v1.092c-.138,0-.229.046-.413.046a1.73,1.73,0,0,1-.5.046,1.473,1.473,0,0,1-.642-.137.915.915,0,0,1-.551-.364,1.1,1.1,0,0,1-.367-.591,2.179,2.179,0,0,1-.138-.819V-337.4H57.64Zm5.872,2.274h0a3.716,3.716,0,0,1-2.706-1.046,4.051,4.051,0,0,1-.963-2.82,3.978,3.978,0,0,1,1.055-2.911,3.619,3.619,0,0,1,2.8-1.046,3.442,3.442,0,0,1,2.66,1,4.3,4.3,0,0,1,.918,2.865,3.913,3.913,0,0,1-1.009,2.865,3.608,3.608,0,0,1-2.753,1.092Zm.092-6.867h0a2.4,2.4,0,0,0-1.834.819,3.2,3.2,0,0,0-.688,2.183,3.032,3.032,0,0,0,.688,2.092,2.361,2.361,0,0,0,1.834.773,2.2,2.2,0,0,0,1.789-.773,3.218,3.218,0,0,0,.643-2.138,3.442,3.442,0,0,0-.643-2.183,2.2,2.2,0,0,0-1.789-.773ZM75.484-329.9H74.291v-4.275c0-1.592-.6-2.411-1.789-2.411a1.813,1.813,0,0,0-1.468.682,2.485,2.485,0,0,0-.6,1.729v4.275H69.2v-7.5h1.239v1.274h0a2.759,2.759,0,0,1,2.477-1.41,2.2,2.2,0,0,1,1.881.773,3.459,3.459,0,0,1,.688,2.274Zm7.706,0H81.952v-1.183h0a2.545,2.545,0,0,1-2.339,1.364,2.311,2.311,0,0,1-1.743-.591,2.019,2.019,0,0,1-.643-1.592c0-1.365.826-2.183,2.477-2.411l2.248-.319c0-1.274-.5-1.956-1.513-1.956a3.885,3.885,0,0,0-2.523.955v-1.228a4.932,4.932,0,0,1,2.569-.682c1.789,0,2.706.91,2.706,2.774Zm-1.239-3.775h0l-1.834.273a2.842,2.842,0,0,0-1.239.364,1.3,1.3,0,0,0-.413,1.046,1.265,1.265,0,0,0,.367.91,1.556,1.556,0,0,0,1.055.363,2.086,2.086,0,0,0,1.513-.637,2.32,2.32,0,0,0,.55-1.592Zm4.633,1.683h0c0,.682.276,1.046.826,1.046a2.347,2.347,0,0,0,.6-.091v1.092c-.138,0-.229.046-.413.046a1.73,1.73,0,0,1-.5.046,1.473,1.473,0,0,1-.642-.137.915.915,0,0,1-.551-.364,1.514,1.514,0,0,1-.413-.591,4.078,4.078,0,0,1-.092-.819V-341h1.192Zm14.22,1.637h0a5.718,5.718,0,0,1-2.936.637,4.467,4.467,0,0,1-3.578-1.455,5.245,5.245,0,0,1-1.376-3.775A5.468,5.468,0,0,1,94.43-339a5.106,5.106,0,0,1,3.853-1.546,6.8,6.8,0,0,1,2.523.41v1.319a5.326,5.326,0,0,0-2.523-.637,3.861,3.861,0,0,0-2.935,1.228,4.546,4.546,0,0,0-1.147,3.229,4.4,4.4,0,0,0,1.055,3.047,3.746,3.746,0,0,0,2.8,1.136,4.971,4.971,0,0,0,2.752-.728Zm5.137.637h0a3.535,3.535,0,0,1-2.66-1.046,4.077,4.077,0,0,1-1.009-2.82,3.975,3.975,0,0,1,1.055-2.911,3.684,3.684,0,0,1,2.8-1.046,3.34,3.34,0,0,1,2.615,1,3.913,3.913,0,0,1,1.009,2.865,3.938,3.938,0,0,1-1.055,2.865,3.609,3.609,0,0,1-2.753,1.092Zm.092-6.867h0a2.4,2.4,0,0,0-1.835.819,3.2,3.2,0,0,0-.688,2.183,3.032,3.032,0,0,0,.688,2.092,2.363,2.363,0,0,0,1.835.773,2.361,2.361,0,0,0,1.834-.773,3.216,3.216,0,0,0,.6-2.138,3.438,3.438,0,0,0-.6-2.183,2.363,2.363,0,0,0-1.834-.773Zm6.743,4.594h0c0,.682.275,1.046.825,1.046a1.994,1.994,0,0,0,.551-.091v1.092c-.092,0-.184.046-.367.046a1.735,1.735,0,0,1-.5.046,1.473,1.473,0,0,1-.642-.137.914.914,0,0,1-.55-.364,1.1,1.1,0,0,1-.367-.591,2.162,2.162,0,0,1-.183-.819V-341h1.239Zm3.853,0h0c0,.682.229,1.046.78,1.046a2.046,2.046,0,0,0,.6-.091v1.092c-.092,0-.229.046-.367.046a1.9,1.9,0,0,1-.5.046,1.473,1.473,0,0,1-.642-.137,1.183,1.183,0,0,1-.6-.364,2.228,2.228,0,0,1-.367-.591,2.246,2.246,0,0,1-.092-.819V-341h1.193Zm8.761-1.365h-5.367a3.141,3.141,0,0,0,.688,1.956,2.467,2.467,0,0,0,1.835.682,4.163,4.163,0,0,0,2.339-.819v1.092a4.706,4.706,0,0,1-2.66.728,3.1,3.1,0,0,1-2.477-1,4.047,4.047,0,0,1-.918-2.911,4.13,4.13,0,0,1,.963-2.82,3.29,3.29,0,0,1,2.477-1.092,2.9,2.9,0,0,1,2.34.91,4.258,4.258,0,0,1,.78,2.684Zm-1.239-1h0a2.586,2.586,0,0,0-.5-1.637,1.837,1.837,0,0,0-1.376-.592,2.066,2.066,0,0,0-1.468.637,3.033,3.033,0,0,0-.734,1.592Zm9.541,3.866h0c0,2.774-1.33,4.139-3.991,4.139a5.241,5.241,0,0,1-2.477-.545v-1.183a5.355,5.355,0,0,0,2.432.682c1.881,0,2.8-1,2.8-2.956v-.818h0a2.828,2.828,0,0,1-2.615,1.455,2.908,2.908,0,0,1-2.293-1,4.17,4.17,0,0,1-.826-2.683,4.569,4.569,0,0,1,.918-3.047,3.12,3.12,0,0,1,2.523-1.092,2.494,2.494,0,0,1,2.294,1.183h0V-337.4H133.7Zm-1.239-2.774h0V-334.4a2.013,2.013,0,0,0-.6-1.5,1.967,1.967,0,0,0-1.513-.682,2.143,2.143,0,0,0-1.743.819,3.449,3.449,0,0,0-.642,2.274,3.063,3.063,0,0,0,.6,2,2.025,2.025,0,0,0,1.605.773,2.015,2.015,0,0,0,1.652-.728,2.669,2.669,0,0,0,.642-1.819Zm9.771-.091h-5.367a2.681,2.681,0,0,0,.688,1.956,2.43,2.43,0,0,0,1.789.682,4.049,4.049,0,0,0,2.339-.819v1.092a4.549,4.549,0,0,1-2.615.728,3.2,3.2,0,0,1-2.523-1,4.263,4.263,0,0,1-.918-2.911,3.946,3.946,0,0,1,1.009-2.82,3.154,3.154,0,0,1,2.477-1.092,2.863,2.863,0,0,1,2.294.91,4,4,0,0,1,.825,2.684Zm-1.284-1h0a2.574,2.574,0,0,0-.459-1.637,1.942,1.942,0,0,0-1.422-.592,1.889,1.889,0,0,0-1.422.637,3.083,3.083,0,0,0-.78,1.592Zm2.66,4.184h0v-1.274a3.426,3.426,0,0,0,2.156.728c1.055,0,1.606-.363,1.606-1.046a1.075,1.075,0,0,0-.138-.545,2.746,2.746,0,0,0-.367-.364,6.053,6.053,0,0,0-.55-.272c-.229-.091-.413-.182-.688-.273a7.9,7.9,0,0,1-.871-.41,2.072,2.072,0,0,1-.642-.454,1.434,1.434,0,0,1-.367-.546,2.11,2.11,0,0,1-.138-.773,2.251,2.251,0,0,1,.229-.955,2.919,2.919,0,0,1,.642-.682,4.721,4.721,0,0,1,.964-.364,2.694,2.694,0,0,1,1.055-.137,4.252,4.252,0,0,1,1.743.319v1.228a3.442,3.442,0,0,0-1.927-.592,2.344,2.344,0,0,0-.6.091,1.442,1.442,0,0,0-.459.228,1.24,1.24,0,0,0-.321.363.908.908,0,0,0-.092.41,1.635,1.635,0,0,0,.092.5,1.076,1.076,0,0,0,.321.318,1.791,1.791,0,0,0,.5.273c.183.091.413.182.642.319a3.481,3.481,0,0,1,.918.363,4.449,4.449,0,0,1,.688.455,2.951,2.951,0,0,1,.459.591,3.346,3.346,0,0,1,.138.774,2.1,2.1,0,0,1-.229.955,1.654,1.654,0,0,1-.688.682,3.075,3.075,0,0,1-.964.41,4.681,4.681,0,0,1-1.146.136,3.831,3.831,0,0,1-1.973-.454Z" transform="translate(-4.612 371.423)" fill="#2a357d"/>
    </g>
    <g id="Group_31" data-name="Group 31" transform="translate(31.895 -556.913)">
      <path id="Path_89" data-name="Path 89" d="M110.815-529.665v.237c0,.158.16.4.319.4.239,0,.239-.316.239-.475l-.159.079a.6.6,0,0,1-.159-.4,2.8,2.8,0,0,0,.079-.475c-.159.079-.079.079-.159.317,0,.079-.16.079-.16.316Zm6.94-.316h0s.478.4.478.474-.159.159-.319.159h0c-.24,0-.16-.317-.16-.554Zm-.08-.079h0c-.159.158-.159.553-.159.791.08.079.239.237.319.237h.08a.589.589,0,0,0,.478-.475c0-.316-.16-.4-.239-.553h-.239v-.079c0-.079,0-.079-.16-.159Zm-3.27,0h0l.159.079v.079a1.044,1.044,0,0,1-.239.4,2.656,2.656,0,0,0-.478.237c.079.079.079.079.159.079h.08a3.468,3.468,0,0,1,.558-.317.8.8,0,0,0,.319-.553c0-.079,0-.237-.16-.237h-.079c-.08,0-.319.159-.319.237Zm6.621.475h0v.158c0,.158.079.4.239.4a.254.254,0,0,0,.239-.237v-.079c0-.317-.239.237-.239-.554v-.316c.08,0,.08,0,.08-.079v-.158h-.08c0,.4-.16.237-.16.4-.079.079-.079.4-.079.475Zm-13,3.638h0v.475a5.448,5.448,0,0,0,.239.633c.16.158.319.4.558.4h.16c.4,0,.558-.317.718-.554.08-.158.08-.4.239-.474.08-.079.4-.079.558-.159a1.127,1.127,0,0,0,.718-.632c.159-.159.478-.87,0-.87h-.159c-.16,0-.4.079-.4,0,0-.237.718-1.028.878-1.186v-.159a2.938,2.938,0,0,0-1.2,1.661c0,.079.08.317.239.317h.08c.159,0,.4-.079.4,0,0,.237-1.037.949-1.037.712,0-.158.16-.237.16-.4v-.079c-.24,0-.24.158-.4.316s-.319.158-.478.316c-.4-.079-.558-.474-.558-.949a3.961,3.961,0,0,1,.878-2.214,5.213,5.213,0,0,0,.638-2.373c0-.237,0-.949-.239-1.028a3.769,3.769,0,0,0,0,.949c-.08.316-.08.633-.159.87a3.9,3.9,0,0,1-.638,1.424,6,6,0,0,0-1.2,3.005Zm12.844-1.74h0c.16.079.638.474.638.632,0,.079-.558.475-.558.633h0a1.558,1.558,0,0,0,.718.712,4.731,4.731,0,0,1,.638-.633c0-.237-.558-.553-.638-.712.08-.237.638-.632.638-.712a6.093,6.093,0,0,0-.718-.712,3.419,3.419,0,0,0-.718.791Zm-4.946-13.525h0V-526.9c0,.079,0,.079-.08.079h-.08c-.239,0-.4-.4-.478-.633,0-.316-.08-.633-.4-.633a2.158,2.158,0,0,0-1.356.792,2.577,2.577,0,0,0-.478,1.66c0,.079-.24.159-.24.159-.239,0-.159-1.028-.159-1.266v-6.96a6.635,6.635,0,0,0,0-1.266,3.732,3.732,0,0,0-.558-.949v10.678c-.319.237-.638.4-.958.632a3.838,3.838,0,0,0-.878.712c-.4.316-1.276,1.266-1.994,1.186l-.4-.079c-.319-.237-.479-.237-.558-.712-.08-.4.159-.791.159-1.028-.159,0-.4.87-.4,1.186v.079a1.412,1.412,0,0,0,.24.87c.159.316.638.4.638.554a3.345,3.345,0,0,0,2.154-1.108c.319-.237,1.6-1.424,1.914-1.424h.08v1.424a6.939,6.939,0,0,1-1.436,1.661,4.363,4.363,0,0,1-2.074,1.108h-.239c-.319,0-.478-.317-.558-.554-.08-.474.08-.632.08-.949h-.08v.237c-.159.079-.239.633-.239.87a1.38,1.38,0,0,0,.558,1.107c.558.237.8-.079,1.436-.079.159-.237.159-.159.4-.317,0-.079.4-.316.4-.316h.159l-.079.4a2.3,2.3,0,0,0-.239.791v.4c0,.712.558,1.661,1.276,1.661h.08c.558,0,1.436-.949,1.675-1.345.159-.158,1.436-1.5,1.436-1.5.159,0,.159,0,.159.158.08-.079.16-.316.24-.4.159-.316.159-.237.4-.4a2.665,2.665,0,0,1,1.037-.317h.319c.24,0,.319.159.4.159.159,0,.239-.159.239-.317v-.158c0-.237-.4-.475-.8-.475a4.305,4.305,0,0,0-2.792,1.582,14.15,14.15,0,0,0-1.037,1.107,1.844,1.844,0,0,1-.558.553c-.079.079-.558.475-.558.475l-.478.079h-.08c-.558,0-.8-.554-.8-1.028v-.237a3.656,3.656,0,0,1,.718-1.9,5.744,5.744,0,0,0,.638-.712c.08-.079.16-.237.239-.317,0-.079.16-.4.24-.4h.079c.08,0,.08.4.16.554a1.466,1.466,0,0,0,.159.553,1.237,1.237,0,0,0,.958.633h.08a1.606,1.606,0,0,0,.718-.554,1.747,1.747,0,0,0,.319-1.028v-.079c0-.317-.239-1.345-.4-1.345s-.159.633-.239.791c.08.237.319.474.319.791v.079c0,.317-.4.4-.718.4h-.24c-.4,0-.718-.949-.718-1.5V-524.6c0-.158.239-.158.4-.158h.319a1.506,1.506,0,0,1,.878.4c.24.159.479.475.638.554a1.585,1.585,0,0,0,.319-.633v-.079c0-.237-.718-.711-.878-.87-.319-.158-.958-.553-.958-.87v-.079c0-.4.878-.791,1.2-.791h.239c.4,0,.16,1.266,1.037,1.266h.08a21.882,21.882,0,0,0,0,2.293c.159.633.4,1.266,1.117,1.266h.159c.558,0,.957-.711,1.037-1.266,0-.553-.079-1.5-.478-1.74l-.159.791h0c0,.158.319.4.319.633v.316c0,.159-.4.4-.559.4h-.239c-.319,0-.638-.553-.638-.87v-1.74c0-.158.319-.237.478-.4.08-.079.239-.553.4-.553h.08a1.014,1.014,0,0,0,.718.553h.159c.4,0,.718-.711.718-1.186v-.158c0-.237-.08-.317-.08-.475,0-.237-.08-.158-.16-.4h0l-.159.633c0,.079.08.158.08.237h0a.425.425,0,0,1-.4.4h-.08c-.4,0-.558-.4-.558-.791v-.159c-.319,0-.4.475-.478.712-.08.158-.4.553-.638.553-.079,0-.079,0-.079-.079v-13.762a2.147,2.147,0,0,1-.479-.949h-.079Zm6.142,10.045h0v.079a9.3,9.3,0,0,0,1.277,4.192c.478,1.028,1.6,2.61,1.6,3.954v.317a5.032,5.032,0,0,1-1.277,3.243,7.892,7.892,0,0,1-1.2,1.107,5.575,5.575,0,0,1-.718.475l-.319.158c-.239.159-.319.079-.319.317h.16a10.933,10.933,0,0,0,1.6-.87,8.556,8.556,0,0,0,1.277-1.107,5.531,5.531,0,0,0,1.356-3.4v-.4a7.8,7.8,0,0,0-.478-2.056c-.08-.237-.319-.633-.4-.87a7.243,7.243,0,0,1-.4-.791c-.478-.949-1.435-2.215-1.435-3.559v-.079c0-.4.319.158.4.158,0-.079.08-.158.08-.316a5.778,5.778,0,0,0-.319-1.108,5.033,5.033,0,0,0-.159-.553c-.08-.237-.08-.475-.24-.553a4,4,0,0,0-.478,1.661Zm.718,5.141h0l-.16.079c0,.237-.159.316-.159.553,0,.159.319.4.478.4a.444.444,0,0,0,.4-.474v-.159c0-.237-.4-.632-.4-.316v.237a.211.211,0,0,1,.239.237v.158h-.239l-.08.079-.239-.317h.08l.08-.475.159-.158-.08-.079Zm-3.989,1.74h0v.237c0,.158.08.316.24.316h0c.159,0,.239-.158.239-.316h0c0-.079,0-.079-.08-.158l-.159.079v-.712c0-.079,0,0-.08-.079a1.479,1.479,0,0,0-.16.633Zm-3.43,1.028h0c-.239.079-.4,1.186,0,1.186h0c.16,0,.24-.158.24-.316v-.159c-.16.079-.08.079-.16.079s-.08-.158-.08-.237v-.553Zm9.015.712h0a1.524,1.524,0,0,0-.4-.712H123.9c-.24,0,.159.553.159.633.159.158.08.633.159.791h.08Zm-6.541.87h0l.638.633c.159-.079.718-.475.718-.711a2.413,2.413,0,0,0-.638-.633,3.067,3.067,0,0,0-.718.712Zm-8.057.317h0a4.818,4.818,0,0,0,.478-.317c.08-.079.16-.237.319-.316,0-.237.08-.475-.159-.475-.16,0-.4.079-.4.158s.16.079.16.237c0,.317-.558.475-.558.633.079.079.079.079.159.079Zm11.647-2.215h0c0-.158.319-.316.558-.237.16,0,.479.237.479.4,0,.079-.4,0-.558,0a.869.869,0,0,1-.479-.079Zm-1.755-12.18h0v.079l.08,5.141v9.807c0,.159-.319.317-.478.475a2.969,2.969,0,0,0-.558.475,10.766,10.766,0,0,0-.958.949c-.478.475-1.436,1.9-2.154,1.9h-.24c-.638,0-.877-.633-.877-1.266v-.237l.079-.4.239-.791a2.53,2.53,0,0,0-.478,1.424v.158a2.176,2.176,0,0,0,.4,1.266,1.2,1.2,0,0,0,1.037.633c.8,0,1.6-1.108,1.994-1.582.319-.317.558-.633.878-.95a4.54,4.54,0,0,0,.878-.87h.159c.08,0,.08,0,.08.079v.4l-.08,1.819a3.826,3.826,0,0,0,.479-1.265,7.671,7.671,0,0,0,.079-1.424,3.975,3.975,0,0,1,1.037-.317,3.748,3.748,0,0,0,1.117-.316,1.87,1.87,0,0,0,1.117-1.661v-.237a2.809,2.809,0,0,0-.478-1.5c-.16-.237-.718-.87-1.037-.87H121.9c-.558,0-.958,1.028-.958,1.582,0,.949,1.2.87,1.994.87a.408.408,0,0,1,.159.316v.237c0,.316-.8.553-1.2.553-.319.079-.479,0-.8.079a3.793,3.793,0,0,1-.718.237h-.16v-14a3.542,3.542,0,0,0-.478-.949c0,.079-.08.079-.08.158Zm-8.3,15.9h0a3.029,3.029,0,0,0,.718.712c.08-.158.558-.554.558-.712s-.558-.711-.638-.711a2.738,2.738,0,0,0-.638.711Zm11.168.4h0v-.079c0-.159,0-.159-.079-.237h-.16c-.08,0-.08,0-.239.079v.159c0,.079.08.079.08.158s-.239.4-.239.475c-.24,0-.24,0-.319.158h.159c.16,0,.8-.475.8-.712Zm-6.062.159h.159c.08,0,.08.079.159.079s.16,0,.16-.079v-.079c0-.079-.239-.237-.319-.237h-.08c-.319,0-.319.553-.4.791-.239-.079-.239-.474-.638-.474-.08.079-.08,0-.08.079s.16.317.319.317h.08c.08.158.159.158.239.316s.08.237.159.4h.08l.08-.87Zm-7.1.316h0c0-.079.08-.237.08-.316l-.08-.079a.793.793,0,0,0-.079.237v.079l-.08.079-.08.316c0,.159.16.475.4.475a.55.55,0,0,0,.159-.316v-.079h-.159a.6.6,0,0,1-.16-.4Zm4.229,2.373h0c.239,0,.239-.158.239-.316h-.08c-.319,0-.159-.475-.319-.633-.08.079-.08.079-.08.237v.475a.358.358,0,0,0,.24.237Zm1.754-.316h.24c.718,0,1.675-1.424,2.154-1.9a10.766,10.766,0,0,1,.958-.949,2.969,2.969,0,0,1,.558-.475c.159-.158.478-.316.478-.475v-9.807l-.08-5.141v-.079c0-.079.08-.079.08-.158a3.542,3.542,0,0,1,.478.949v14h.16a3.793,3.793,0,0,0,.718-.237c.319-.079.479,0,.8-.079.4,0,1.2-.237,1.2-.553v-.237a.408.408,0,0,0-.159-.316c-.8,0-1.994.079-1.994-.87,0-.553.4-1.582.958-1.582h.079c.319,0,.878.633,1.037.87a2.809,2.809,0,0,1,.478,1.5v.237a1.87,1.87,0,0,1-1.117,1.661,3.748,3.748,0,0,1-1.117.316,3.975,3.975,0,0,0-1.037.317,7.671,7.671,0,0,1-.079,1.424,3.826,3.826,0,0,1-.479,1.265l.08-1.819v-.4c0-.079,0-.079-.08-.079h-.159a4.54,4.54,0,0,1-.878.87c-.319.317-.558.633-.878.95-.4.474-1.2,1.582-1.994,1.582a1.2,1.2,0,0,1-1.037-.633,2.176,2.176,0,0,1-.4-1.266v-.158a2.53,2.53,0,0,1,.478-1.424l-.239.791-.079.4v.237c0,.633.239,1.266.877,1.266Zm-.079-10.52h0c.079.237.239.633.478.633h.08c.08,0,.08,0,.08-.079v-14.711H116a2.147,2.147,0,0,0,.479.949V-526.9c0,.079,0,.079.079.079.239,0,.558-.4.638-.553.08-.237.159-.712.478-.712v.159c0,.4.16.791.558.791h.08a.425.425,0,0,0,.4-.4h0c0-.079-.08-.158-.08-.237l.159-.633h0c.08.237.16.158.16.4,0,.158.08.237.08.475v.158c0,.475-.319,1.186-.718,1.186h-.159a1.014,1.014,0,0,1-.718-.553h-.08c-.159,0-.319.475-.4.553-.16.158-.478.237-.478.4v1.74c0,.316.319.87.638.87h.239c.16,0,.559-.237.559-.4v-.316c0-.237-.319-.475-.319-.633h0l.159-.791c.4.237.478,1.186.478,1.74-.079.554-.478,1.266-1.037,1.266h-.159c-.718,0-.958-.633-1.117-1.266a21.882,21.882,0,0,1,0-2.293h-.08c-.878,0-.638-1.266-1.037-1.266h-.239c-.319,0-1.2.4-1.2.791v.079c0,.316.638.711.958.87.16.159.878.633.878.87v.079a1.585,1.585,0,0,1-.319.633c-.159-.079-.4-.4-.638-.554a1.506,1.506,0,0,0-.878-.4h-.319c-.16,0-.4,0-.4.158v1.582c0,.553.319,1.5.718,1.5h.24c.319,0,.718-.079.718-.4v-.079c0-.317-.239-.554-.319-.791.08-.159.08-.791.239-.791s.4,1.028.4,1.345v.079a1.747,1.747,0,0,1-.319,1.028,1.606,1.606,0,0,1-.718.554h-.08a1.237,1.237,0,0,1-.958-.633,1.466,1.466,0,0,1-.159-.553c-.08-.159-.08-.554-.16-.554h-.079c-.08,0-.24.317-.24.4-.079.079-.159.237-.239.317a5.744,5.744,0,0,1-.638.712,3.656,3.656,0,0,0-.718,1.9v.237c0,.474.239,1.028.8,1.028h.08l.478-.079s.479-.4.558-.475a1.844,1.844,0,0,0,.558-.553,14.15,14.15,0,0,1,1.037-1.107,4.305,4.305,0,0,1,2.792-1.582c.4,0,.8.237.8.475v.158c0,.158-.08.317-.239.317-.08,0-.159-.159-.4-.159h-.319a2.665,2.665,0,0,0-1.037.317c-.239.158-.239.079-.4.4-.08.079-.16.316-.24.4,0-.158,0-.158-.159-.158,0,0-1.277,1.344-1.436,1.5-.239.4-1.117,1.345-1.675,1.345h-.08c-.718,0-1.276-.949-1.276-1.661v-.4a2.3,2.3,0,0,1,.239-.791l.079-.4h-.159s-.4.237-.4.316c-.239.158-.239.079-.4.317-.638,0-.878.316-1.436.079a1.38,1.38,0,0,1-.558-1.107c0-.237.08-.791.239-.87v-.237h.08c0,.317-.16.475-.08.949.08.237.239.554.558.554h.239a4.363,4.363,0,0,0,2.074-1.108,6.939,6.939,0,0,0,1.436-1.661v-1.424h-.08c-.319,0-1.6,1.186-1.914,1.424a3.345,3.345,0,0,1-2.154,1.108c0-.158-.478-.237-.638-.554a1.412,1.412,0,0,1-.24-.87v-.079c0-.316.24-1.186.4-1.186,0,.237-.239.633-.159,1.028.079.475.239.475.558.712l.4.079c.718.079,1.6-.87,1.994-1.186a3.838,3.838,0,0,1,.878-.712c.319-.237.638-.4.958-.632v-10.678a3.732,3.732,0,0,1,.558.949,6.635,6.635,0,0,1,0,1.266v6.96c0,.237-.08,1.266.159,1.266,0,0,.24-.079.24-.159a2.577,2.577,0,0,1,.478-1.66,2.158,2.158,0,0,1,1.356-.792c.319,0,.4.317.4.633Zm1.276.633h0c-.079,0-.079-.079-.079-.158v-12.259a8.515,8.515,0,0,0,0-1.424c-.08-.237-.4-.633-.4-.949-.319,0-.159.237-.159.474V-526.9c0,.079-.08.079-.16.079-.239,0-.4-.4-.4-.712-.079-.317-.159-.633-.478-.633h-.08c-.478,0-1.037.553-1.276.791a2.282,2.282,0,0,0-.478,1.74c-.24.079-.319.237-.319-.158V-533.7a6.745,6.745,0,0,0-.08-1.344l-.239-.475c-.08-.158-.16-.475-.319-.475v10.757c-.319.237-.638.316-1.037.553-.24.237-.559.475-.8.712-.4.4-1.276,1.266-1.994,1.187l-.4-.079c-.239-.158-.479-.237-.479-.712-.079-.4.16-.632.16-1.028.08,0,.08,0,.08-.158v-.079l-.16.079v.158c-.239.079-.4.87-.4,1.187v.158a1.672,1.672,0,0,0,.24.949c.159.237.558.4.558.554a3.4,3.4,0,0,0,1.356-.4c.159-.079.08,0,.239-.158.08-.079.16-.158.239-.158a2.545,2.545,0,0,0,.479-.4c.319-.317,1.515-1.424,1.914-1.424v1.266c0,.316-1.2,1.582-1.436,1.74a4.773,4.773,0,0,1-2.074,1.108h-.159c-.319,0-.479-.317-.558-.554-.16-.474.079-.632.079-.87v-.079c0-.079,0,0-.079-.079h-.08l-.08.237a3.4,3.4,0,0,0-.159.95,1.111,1.111,0,0,0,1.2,1.266,4.5,4.5,0,0,1,.8-.159,2.262,2.262,0,0,1,.878-.633v.317c-.16,0-.239.553-.239.791v.4c0,.791.558,1.661,1.276,1.661h.08c.958,0,2.473-2.294,3.191-2.847.079.079,0,0,0,.079s0,0-.08.159,0,.079-.08.158a.711.711,0,0,0-.079.4,1.175,1.175,0,0,0-.16.791v.158c0,.949.478,1.978,1.436,1.978h0c.8,0,1.6-1.187,2.074-1.582.319-.316.558-.633.878-.949a10.241,10.241,0,0,1,.878-.949c.079,0,.079,0,.079.079v2.214l.16-.079c0-.158.239-.87.319-1.186a4.123,4.123,0,0,0,.159-1.424,8.361,8.361,0,0,1,1.037-.317,2.272,2.272,0,0,0,1.037-.316,1.754,1.754,0,0,0,1.117-1.582v-.4a2.532,2.532,0,0,0-.478-1.424c-.08-.316-.718-.949-1.037-.949H121.9c-.558,0-1.117,1.186-1.037,1.819.16.791,1.2.712,2.074.712a3.355,3.355,0,0,1,.08.4v.079c0,.4-.8.633-1.2.633-.4.079-.478,0-.8.079a3,3,0,0,1-.718.158v-13.92a1.268,1.268,0,0,0-.319-.553c-.079-.158-.079-.475-.319-.475v.475l.08,5.062-.08,9.649c0,.237-.319.4-.478.553-.159.079-.319.317-.478.475a11.257,11.257,0,0,0-1.037.949c-.4.475-1.356,1.819-2.074,1.819h-.24c-.638,0-.877-.633-.877-1.186v-.237l.079-.4a7.4,7.4,0,0,0,.239-.711,3.473,3.473,0,0,1,.319-.554,2.7,2.7,0,0,1,1.357-.633h.239c.239,0,.319.159.558.237a.6.6,0,0,0,.159-.4v-.158c0-.316-.4-.553-.8-.553h0a4.3,4.3,0,0,0-2.792,1.582,16.26,16.26,0,0,0-1.117,1.186c-.16.237-.319.317-.479.553a6.51,6.51,0,0,0-.638.475h-.479c-.558,0-.718-.475-.718-1.028v-.079a2.756,2.756,0,0,1,.718-1.9c.08-.158.479-.553.558-.712s.16-.237.239-.4c.08-.079.24-.4.319-.4s.08.475.16.633a1.461,1.461,0,0,0,.159.553,1.153,1.153,0,0,0,.878.554h.16a1.014,1.014,0,0,0,.718-.554,1.682,1.682,0,0,0,.319-.949v-.237c0-.316-.159-1.266-.4-1.266h0c-.159,0-.239.712-.239.791,0,.237.239.4.239.791,0,.316-.319.474-.638.474h-.16c-.4,0-.718-1.028-.718-1.5v-1.5c0-.158.159-.158.319-.158h.319c.638,0,1.436.949,1.516.949s.319-.553.319-.711v-.079c0-.237-.638-.791-.878-.87-.239-.158-.878-.553-.878-.949,0-.316.8-.791,1.117-.791h.16c.478,0,.159,1.266,1.117,1.266l.08.079a21.892,21.892,0,0,0,0,2.294c.159.633.4,1.186,1.117,1.186h.239c.478,0,.957-.711.957-1.266a4.5,4.5,0,0,0-.079-1.028c0-.237-.239-.791-.4-.791,0,0-.159.712-.159.87v.079c0,.079.239.4.239.553v.316c0,.159-.319.317-.479.317h-.239c-.319,0-.638-.475-.638-.87v-1.661c0-.079.4-.237.478-.4.159-.158.239-.474.478-.474,0,.158.479.553.638.553h.239c.478,0,.718-.712.718-1.186v-.317c0-.316,0-.633-.24-.791a5.406,5.406,0,0,0-.239.633c0,.079.08.079.08.237a.51.51,0,0,1-.4.4h0a.525.525,0,0,1-.478-.553c-.08-.237-.08-.87-.319-.317-.159.317-.478,1.186-.878,1.186Zm1.994,9.966h0a.254.254,0,0,0,.239.237c.24,0,.24-.158.24-.316-.4,0-.24-.317-.319-.712-.16.079-.16.159-.16.317Z" transform="translate(-71.343 551.02)" fill="#2a357d" fill-rule="evenodd"/>
      <path id="Path_90" data-name="Path 90" d="M58.773-520.149c-5.345,6.565-5.664,12.417-3.669,17.954,3.271,8.937,13.083,14.236,14.679,25.072A23.909,23.909,0,0,1,63.8-457.9c5.983-8.3-.4-18.112-8.137-28.078-8.775-11.389-10.052-25.31,3.111-34.167Zm69.8,0h0c5.425,6.565,5.744,12.417,3.669,17.954-3.27,8.937-13,14.236-14.678,25.072a24.187,24.187,0,0,0,5.983,19.22c-5.983-8.3.478-18.112,8.137-28.078,8.855-11.389,10.052-25.31-3.111-34.167Zm-18.667-14h0c5.345,6.565,5.664,12.5,3.67,17.954-3.27,8.938-13.083,14.237-14.678,25.151a23.68,23.68,0,0,0,5.9,19.141c-5.9-8.305.479-18.113,8.217-28.078,8.776-11.31,10.052-25.31-3.111-34.168Zm-32.468,0h0c-5.345,6.565-5.664,12.5-3.59,17.954,3.191,8.938,13,14.237,14.6,25.151a23.68,23.68,0,0,1-5.9,19.141c5.983-8.305-.478-18.113-8.217-28.078-8.776-11.31-9.972-25.31,3.111-34.168Z" transform="translate(-48.977 548.148)" fill="#f7d606" fill-rule="evenodd"/>
      <path id="Path_91" data-name="Path 91" d="M125.1-531.962c5.345,6.565,5.664,12.5,3.669,17.954-3.271,8.937-13.083,14.236-14.679,25.151a23.737,23.737,0,0,0,5.983,19.14c-5.983-8.3.4-18.112,8.137-28.078,8.855-11.389,10.052-25.31-3.111-34.167ZM99.1-545.724h0c-8.935,2.136-13.482,6.011-15.8,10.756-5.9,12.418,7.9,28.79,16.433,36.778a86.309,86.309,0,0,0,13.4-17.242c4.547-7.751,6.461-14.4,1.755-21.355-3.51-5.062-8.775-7.514-14.678-8.937,17.231,9.254,11.328,29.343-.4,40.574C86.732-514.957,81.786-536,99.1-545.724ZM73.968-531.962h0c-5.345,6.565-5.664,12.5-3.67,17.954,3.271,8.937,13.083,14.236,14.679,25.151a23.684,23.684,0,0,1-5.9,19.14c5.9-8.3-.479-18.112-8.217-28.078-8.775-11.389-9.972-25.31,3.111-34.167Z" transform="translate(-54.838 552.605)" fill="#2a357d" fill-rule="evenodd"/>
      <path id="Path_92" data-name="Path 92" d="M117.134-556.6c.079-.079.159-.079.239-.158a3.209,3.209,0,0,0,.239,4.113,2.713,2.713,0,0,0,4.069-.158,3.2,3.2,0,0,0,.079-4.113l.24.237a3.754,3.754,0,0,1,.079,5.14,3.28,3.28,0,0,1-4.786.159,3.946,3.946,0,0,1-.159-5.22Z" transform="translate(-74.87 556.913)" fill="#2a357d" fill-rule="evenodd"/>
    </g>
  </g>
</svg>
