<svg xmlns="http://www.w3.org/2000/svg" width="15.299" height="16.574" viewBox="0 0 15.299 16.574">
  <g id="Group_633" data-name="Group 633" transform="translate(-32 -16)">
    <path id="Rectangle_14" data-name="Rectangle 14" d="M-6.725-8H6.024A1.276,1.276,0,0,1,7.3-6.725V6.024A1.276,1.276,0,0,1,6.024,7.3H-6.725A1.276,1.276,0,0,1-8,6.024V-6.725A1.276,1.276,0,0,1-6.725-8ZM6.024,6.024V-6.725H-6.726V6.024Z" transform="translate(40 25.275)" fill="#327aff"/>
    <path id="Line_9" data-name="Line 9" d="M-7.363-4.175A.637.637,0,0,1-8-4.813v-2.55A.637.637,0,0,1-7.363-8a.637.637,0,0,1,.637.637v2.55A.637.637,0,0,1-7.363-4.175Z" transform="translate(50.837 24)" fill="#327aff"/>
    <path id="Line_10" data-name="Line 10" d="M-7.363-4.175A.637.637,0,0,1-8-4.813v-2.55A.637.637,0,0,1-7.363-8a.637.637,0,0,1,.637.637v2.55A.637.637,0,0,1-7.363-4.175Z" transform="translate(43.187 24)" fill="#327aff"/>
    <path id="Line_11" data-name="Line 11" d="M6.662-6.725H-7.363A.637.637,0,0,1-8-7.363.637.637,0,0,1-7.363-8H6.662a.637.637,0,0,1,.637.637A.637.637,0,0,1,6.662-6.725Z" transform="translate(40 29.1)" fill="#327aff"/>
    <path id="Path_93" data-name="Path 93" d="M86.651,124.776a.636.636,0,0,1-.438-.175l-2.019-1.912a.637.637,0,1,1,.877-.926l1.581,1.5,3.28-3.093a.637.637,0,1,1,.875.928L87.088,124.6A.636.636,0,0,1,86.651,124.776Z" transform="translate(-47.852 -95.708)" fill="#327aff"/>
  </g>
</svg>
