<svg id="Group_77" data-name="Group 77" xmlns="http://www.w3.org/2000/svg" width="18.419" height="19.954" viewBox="0 0 18.419 19.954">
  <path id="Rectangle_14" data-name="Rectangle 14" d="M-6.465-8H8.884a1.537,1.537,0,0,1,1.535,1.535V8.884a1.537,1.537,0,0,1-1.535,1.535H-6.465A1.537,1.537,0,0,1-8,8.884V-6.465A1.537,1.537,0,0,1-6.465-8ZM8.884,8.884V-6.465H-6.466V8.884Z" transform="translate(8 9.535)" fill="#bcbcff"/>
  <path id="Line_9" data-name="Line 9" d="M-7.233-3.4A.767.767,0,0,1-8-4.163v-3.07A.767.767,0,0,1-7.233-8a.767.767,0,0,1,.767.767v3.07A.767.767,0,0,1-7.233-3.4Z" transform="translate(21.047 8)" fill="#bcbcff"/>
  <path id="Line_10" data-name="Line 10" d="M-7.233-3.4A.767.767,0,0,1-8-4.163v-3.07A.767.767,0,0,1-7.233-8a.767.767,0,0,1,.767.767v3.07A.767.767,0,0,1-7.233-3.4Z" transform="translate(11.837 8)" fill="#bcbcff"/>
  <path id="Line_11" data-name="Line 11" d="M9.651-6.465H-7.233A.767.767,0,0,1-8-7.233.767.767,0,0,1-7.233-8H9.651a.767.767,0,0,1,.767.767A.767.767,0,0,1,9.651-6.465Z" transform="translate(8 14.14)" fill="#bcbcff"/>
  <path id="Path_93" data-name="Path 93" d="M87.193,125.751a.765.765,0,0,1-.528-.21l-2.43-2.3a.767.767,0,0,1,1.056-1.114l1.9,1.8,3.949-3.723a.767.767,0,0,1,1.053,1.117l-4.477,4.221A.765.765,0,0,1,87.193,125.751Z" transform="translate(-79.007 -110.019)" fill="#bcbcff"/>
</svg>
