<svg id="Group_76" data-name="Group 76" xmlns="http://www.w3.org/2000/svg" width="21.78" height="18.429" viewBox="0 0 21.78 18.429">
  <path id="Ellipse_1" data-name="Ellipse 1" d="M-3.812-8A4.193,4.193,0,0,1,.377-3.812,4.193,4.193,0,0,1-3.812.377,4.193,4.193,0,0,1-8-3.812,4.193,4.193,0,0,1-3.812-8Zm0,6.7A2.516,2.516,0,0,0-1.3-3.812,2.516,2.516,0,0,0-3.812-6.325,2.516,2.516,0,0,0-6.325-3.812,2.516,2.516,0,0,0-3.812-1.3Z" transform="translate(12.188 14.702)" fill="#bcbcff"/>
  <path id="Path_93" data-name="Path 93" d="M44.1,58.429H37.676a.838.838,0,0,1-.757-.478,5.029,5.029,0,0,0-9.086,0,.838.838,0,0,1-.757.478h-1.4A1.675,1.675,0,0,1,24,56.754V41.675A1.677,1.677,0,0,1,25.675,40H44.1a1.677,1.677,0,0,1,1.675,1.675V56.754A1.677,1.677,0,0,1,44.1,58.429ZM25.675,41.675V56.754h.9a6.7,6.7,0,0,1,11.61,0h5.924V41.675Z" transform="translate(-24 -40)" fill="#bcbcff"/>
  <path id="Path_94" data-name="Path 94" d="M70.241,83.728H68.565a.838.838,0,1,1,0-1.675H69.4V73.675H57.675v.838a.838.838,0,1,1-1.675,0V72.838A.838.838,0,0,1,56.838,72h13.4a.838.838,0,0,1,.838.838V82.89A.838.838,0,0,1,70.241,83.728Z" transform="translate(-52.649 -68.649)" fill="#bcbcff"/>
</svg>
