<svg xmlns="http://www.w3.org/2000/svg" width="37.034" height="31.336" viewBox="0 0 37.034 31.336">
  <g id="Group_634" data-name="Group 634" transform="translate(-84 -315)">
    <path id="Ellipse_1" data-name="Ellipse 1" d="M-.878-8A7.13,7.13,0,0,1,6.244-.878,7.13,7.13,0,0,1-.878,6.244,7.13,7.13,0,0,1-8-.878,7.13,7.13,0,0,1-.878-8Zm0,11.4A4.278,4.278,0,0,0,3.4-.878,4.278,4.278,0,0,0-.878-5.151,4.278,4.278,0,0,0-5.151-.878,4.278,4.278,0,0,0-.878,3.4Z" transform="translate(99.122 334.395)" fill="#4b9d69"/>
    <path id="Path_93" data-name="Path 93" d="M58.185,71.336H47.255a1.424,1.424,0,0,1-1.287-.814,8.55,8.55,0,0,0-15.449,0,1.424,1.424,0,0,1-1.287.814H26.849A2.849,2.849,0,0,1,24,68.488V42.849A2.852,2.852,0,0,1,26.849,40H58.185a2.852,2.852,0,0,1,2.849,2.849V68.488A2.852,2.852,0,0,1,58.185,71.336ZM26.849,42.849V68.488h1.525a11.4,11.4,0,0,1,19.74,0H58.187l0-25.639Z" transform="translate(60 275)" fill="#4b9d69"/>
    <path id="Path_94" data-name="Path 94" d="M80.214,91.941H77.366a1.424,1.424,0,1,1,0-2.849H78.79V74.849H58.849v1.424a1.424,1.424,0,1,1-2.849,0V73.424A1.424,1.424,0,0,1,57.424,72h22.79a1.424,1.424,0,0,1,1.424,1.424V90.517A1.424,1.424,0,0,1,80.214,91.941Z" transform="translate(33.698 248.698)" fill="#4b9d69"/>
  </g>
</svg>
