<svg xmlns="http://www.w3.org/2000/svg" xmlns:xlink="http://www.w3.org/1999/xlink" width="43" height="42" viewBox="0 0 43 42">
  <defs>
    <linearGradient id="linear-gradient" x1="1.063" y1="-0.08" x2="0.105" y2="1.142" gradientUnits="objectBoundingBox">
      <stop offset="0" stop-color="#cb18e6"/>
      <stop offset="0.542" stop-color="#ff2300"/>
      <stop offset="1" stop-color="#fff703"/>
    </linearGradient>
  </defs>
  <g id="Group_202" data-name="Group 202" transform="translate(-139 -313)">
    <g id="Ellipse_8" data-name="Ellipse 8" transform="translate(139 313)" stroke="#b4b4b4" stroke-width="0.2" fill="url(#linear-gradient)">
      <ellipse cx="21.5" cy="21" rx="21.5" ry="21" stroke="none"/>
      <ellipse cx="21.5" cy="21" rx="21.4" ry="20.9" fill="none"/>
    </g>
    <path id="instagram" d="M11.656,8.742A2.915,2.915,0,0,0,8.742,5.828,2.915,2.915,0,0,0,5.828,8.742a2.915,2.915,0,0,0,2.914,2.914,2.915,2.915,0,0,0,2.914-2.914Zm1.571,0a4.469,4.469,0,0,1-4.485,4.485A4.469,4.469,0,0,1,4.257,8.742,4.469,4.469,0,0,1,8.742,4.257a4.469,4.469,0,0,1,4.485,4.485Zm1.229-4.667a1.047,1.047,0,1,1-1.787-.74,1.047,1.047,0,0,1,1.787.74Zm-5.714-2.5-.871-.006q-.791-.006-1.2,0t-1.1.034A8.976,8.976,0,0,0,4.4,1.712a4.524,4.524,0,0,0-.813.211A2.977,2.977,0,0,0,1.924,3.586a4.568,4.568,0,0,0-.211.814A8.976,8.976,0,0,0,1.6,5.572q-.028.689-.034,1.1t0,1.2q.006.791.006.871t-.006.871q-.006.791,0,1.2t.034,1.1a8.976,8.976,0,0,0,.114,1.172,4.541,4.541,0,0,0,.211.813A2.977,2.977,0,0,0,3.586,15.56a4.568,4.568,0,0,0,.814.211,8.977,8.977,0,0,0,1.172.114q.689.028,1.1.034t1.2,0l.871-.006.871.006q.791.006,1.2,0t1.1-.034a8.976,8.976,0,0,0,1.172-.114,4.568,4.568,0,0,0,.814-.211A2.977,2.977,0,0,0,15.561,13.9a4.568,4.568,0,0,0,.211-.814,8.977,8.977,0,0,0,.114-1.172q.028-.689.034-1.1t0-1.2q-.006-.791-.006-.871t.006-.871q.006-.791,0-1.2t-.034-1.1A8.976,8.976,0,0,0,15.772,4.4a4.48,4.48,0,0,0-.212-.813A2.977,2.977,0,0,0,13.9,1.924a4.568,4.568,0,0,0-.814-.211A8.976,8.976,0,0,0,11.912,1.6q-.689-.028-1.1-.034t-1.2,0l-.871.006Zm8.742,7.171q0,2.607-.057,3.608a5.339,5.339,0,0,1-1.411,3.665,5.339,5.339,0,0,1-3.665,1.411q-1,.057-3.608.057t-3.608-.057a5.339,5.339,0,0,1-3.665-1.411A5.339,5.339,0,0,1,.057,12.35Q0,11.348,0,8.742T.057,5.133A5.339,5.339,0,0,1,1.468,1.468,5.339,5.339,0,0,1,5.133.057Q6.135,0,8.742,0T12.35.057a5.339,5.339,0,0,1,3.665,1.411,5.339,5.339,0,0,1,1.411,3.665Q17.484,6.135,17.484,8.742Z" transform="translate(152.258 325.258)" fill="#fff"/>
  </g>
</svg>
