<svg xmlns="http://www.w3.org/2000/svg" width="19.403" height="15.523" viewBox="0 0 19.403 15.523">
  <g id="money" transform="translate(-1.125 -4.5)">
    <path id="Path_93" data-name="Path 93" d="M17.941,4.5H1.125V17.436H17.941ZM16.648,16.142H2.419V5.794H16.648Z" fill="#5f9a90"/>
    <path id="Path_94" data-name="Path 94" d="M21.626,10.125v11H6.75v1.294H22.919V10.125Z" transform="translate(-2.391 -2.391)" fill="#5f9a90"/>
    <path id="Path_95" data-name="Path 95" d="M13.6,16.585a3.05,3.05,0,0,0,2.911-3.166A3.05,3.05,0,0,0,13.6,10.253a3.05,3.05,0,0,0-2.911,3.166A3.05,3.05,0,0,0,13.6,16.585Zm0-5.039a1.761,1.761,0,0,1,1.617,1.872A1.761,1.761,0,0,1,13.6,15.291a1.761,1.761,0,0,1-1.617-1.873A1.761,1.761,0,0,1,13.6,11.546Z" transform="translate(-4.065 -2.446)" fill="#5f9a90"/>
    <path id="Path_96" data-name="Path 96" d="M5.625,9.563H6.919v7.115H5.625Z" transform="translate(-1.913 -2.152)" fill="#5f9a90"/>
    <path id="Path_97" data-name="Path 97" d="M23.625,9.563h1.294v7.115H23.625Z" transform="translate(-9.564 -2.152)" fill="#5f9a90"/>
  </g>
</svg>
