<svg xmlns="http://www.w3.org/2000/svg" width="16.978" height="20.065" viewBox="0 0 16.978 20.065">
  <path id="md-notifications-outline" d="M14.162,6.871a6.969,6.969,0,0,1,1.153.216A4.916,4.916,0,0,1,19.062,11.9v6.154l.449.451.376.377H8.341l.376-.377.449-.451V11.9a4.915,4.915,0,0,1,3.747-4.816,8.546,8.546,0,0,1,1.153-.216m.048-3.5a1.474,1.474,0,0,0-1.5,1.505v.7A6.5,6.5,0,0,0,7.623,11.9v5.518l-2,2.006v1H22.6v-1l-2-2.006V11.9a6.5,6.5,0,0,0-4.993-6.32v-.7A1.475,1.475,0,0,0,14.114,3.375Zm2,18.058H12.117a2,2,0,1,0,4,0Z" transform="translate(-5.625 -3.375)" fill="#bcbcff"/>
</svg>
