<svg xmlns="http://www.w3.org/2000/svg" width="101.463" height="92.581" viewBox="0 0 101.463 92.581">
  <g id="Site_Stats-rafiki_1_" data-name="Site Stats-rafiki (1)" transform="translate(-15.808 -58.53)">
    <g id="freepik--background-complete--inject-64" transform="translate(16.792 58.53)">
      <rect id="Rectangle_95" data-name="Rectangle 95" width="49.645" height="35.638" transform="translate(11.531 1.764)" fill="#fafafa"/>
      <path id="Path_1354" data-name="Path 1354" d="M223,110.031,210.376,74.39H200.9l12.626,35.641Z" transform="translate(-164.652 -72.626)" fill="#fff"/>
      <path id="Path_1355" data-name="Path 1355" d="M141.3,110.031,128.676,74.39H125.22l12.626,35.641Z" transform="translate(-108.433 -72.626)" fill="#fff"/>
      <path id="Path_1356" data-name="Path 1356" d="M94.941,69.63H149.32a.219.219,0,0,1,.219.221h0a.219.219,0,0,1-.219.219H94.941a.221.221,0,0,1-.221-.219h0A.221.221,0,0,1,94.941,69.63Z" transform="translate(-85.776 -69.09)" fill="#e0e0e0"/>
      <rect id="Rectangle_96" data-name="Rectangle 96" width="0.589" height="35.792" transform="translate(36.06 1.689)" fill="#f0f0f0"/>
      <rect id="Rectangle_97" data-name="Rectangle 97" width="0.293" height="35.792" transform="translate(35.764 1.689)" fill="#e0e0e0"/>
      <rect id="Rectangle_98" data-name="Rectangle 98" width="0.589" height="50.332" transform="translate(11.189 19.878) rotate(-90)" fill="#f0f0f0"/>
      <path id="Path_1357" data-name="Path 1357" d="M103.45,108.744h0V73h50.329v35.744h0v.589H103.45Zm49.743,0V73.6H104.039v35.139Z" transform="translate(-92.261 -71.593)" fill="#f0f0f0"/>
      <rect id="Rectangle_99" data-name="Rectangle 99" width="0.293" height="36.325" transform="translate(10.893 1.422)" fill="#e0e0e0"/>
      <path id="Path_1358" data-name="Path 1358" d="M101.135,67.53v41.853H90.51L92.459,67.53Z" transform="translate(-82.649 -67.53)" fill="#ebebeb" opacity="0.5"/>
      <path id="Path_1359" data-name="Path 1359" d="M269.65,67.53v41.853h10.625L278.326,67.53Z" transform="translate(-215.723 -67.53)" fill="#ebebeb" opacity="0.5"/>
      <rect id="Rectangle_100" data-name="Rectangle 100" width="4.053" height="32.871" transform="translate(0.509 46.868)" fill="#f0f0f0"/>
      <rect id="Rectangle_101" data-name="Rectangle 101" width="44.649" height="1.229" transform="translate(1.288 79.739)" fill="#f0f0f0"/>
      <rect id="Rectangle_102" data-name="Rectangle 102" width="42.152" height="32.871" transform="translate(46.716 79.739) rotate(180)" fill="#f5f5f5"/>
      <rect id="Rectangle_103" data-name="Rectangle 103" width="4.143" height="1.072" transform="translate(0 45.796)" fill="#f0f0f0"/>
      <rect id="Rectangle_104" data-name="Rectangle 104" width="43.083" height="1.072" transform="translate(47.223 46.868) rotate(180)" fill="#fafafa"/>
      <path id="Path_1360" data-name="Path 1360" d="M122.588,274.789H83.35V258.54h39.238Zm-38.966-.273h38.693v-15.7H83.623Z" transform="translate(-77.33 -209.422)" fill="#e0e0e0"/>
      <path id="Path_1361" data-name="Path 1361" d="M122.588,338.544H83.35V328.05h39.238Zm-38.966-.273h38.693v-9.949H83.623Z" transform="translate(-77.33 -261.058)" fill="#e0e0e0"/>
      <rect id="Rectangle_105" data-name="Rectangle 105" width="28.664" height="0.872" rx="0.436" transform="translate(11.307 49.254)" fill="#e0e0e0"/>
      <rect id="Rectangle_106" data-name="Rectangle 106" width="28.664" height="0.872" rx="0.436" transform="translate(11.307 67.129)" fill="#e0e0e0"/>
      <rect id="Rectangle_107" data-name="Rectangle 107" width="23.575" height="71.929" transform="translate(97.613 79.389) rotate(180)" fill="#f0f0f0"/>
      <rect id="Rectangle_108" data-name="Rectangle 108" width="0.748" height="71.929" transform="translate(73.29 7.462)" fill="#e0e0e0"/>
      <rect id="Rectangle_109" data-name="Rectangle 109" width="15.925" height="66.442" transform="translate(93.79 76.646) rotate(180)" fill="#fafafa"/>
    </g>
    <g id="freepik--Shadow--inject-64" transform="translate(15.808 145.289)">
      <ellipse id="freepik--path--inject-64" cx="49.858" cy="2.911" rx="49.858" ry="2.911" fill="#222c70"/>
    </g>
    <g id="freepik--Screen--inject-64" transform="translate(43.024 78.451)">
      <rect id="Rectangle_110" data-name="Rectangle 110" width="1.242" height="0.257" transform="translate(73.561 18.992) rotate(-85.86)" fill="#f7d606"/>
      <rect id="Rectangle_111" data-name="Rectangle 111" width="3.603" height="0.257" transform="translate(73.729 16.656) rotate(-85.86)" fill="#f7d606"/>
      <path id="Path_1408" data-name="Path 1408" d="M230.95,198.486H167.966a3.225,3.225,0,0,1-3.25-3.5l3.343-46.492A3.832,3.832,0,0,1,171.8,145h62.983a3.222,3.222,0,0,1,3.25,3.5l-3.343,46.492a3.832,3.832,0,0,1-3.742,3.5Z" transform="translate(-163.996 -144.999)" fill="#f7d606"/>
      <path id="Path_1409" data-name="Path 1409" d="M295.76,343.262H275.314L271.67,318h20.446Z" transform="translate(-243.456 -273.513)" fill="#f7d606"/>
      <path id="Path_1410" data-name="Path 1410" d="M287.564,410.38H265.45l-.44,1.507h22.117Z" transform="translate(-238.508 -342.138)" fill="#f7d606"/>
      <path id="Path_1411" data-name="Path 1411" d="M293.193,330.161l-19.926-1.088L271.67,318h19.77Z" transform="translate(-243.456 -273.513)" fill="#263238"/>
      <path id="Path_1412" data-name="Path 1412" d="M228.194,198.486H165.208a3.222,3.222,0,0,1-3.245-3.51l3.343-46.492A3.831,3.831,0,0,1,169.042,145h62.986a3.222,3.222,0,0,1,3.248,3.5l-3.343,46.492a3.829,3.829,0,0,1-3.739,3.5Z" transform="translate(-161.95 -144.999)" fill="#263238"/>
      <rect id="Rectangle_112" data-name="Rectangle 112" width="26.738" height="0.247" transform="translate(71.251 30.604) rotate(-85.9)" fill="#fff"/>
      <rect id="Rectangle_113" data-name="Rectangle 113" width="9.26" height="0.247" transform="translate(70.432 42.162) rotate(-85.9)" fill="#fff"/>
      <path id="Path_1413" data-name="Path 1413" d="M230.876,200.081H168.291a2.51,2.51,0,0,1-2.528-2.726l3.32-46.3A2.983,2.983,0,0,1,172,148.33h62.6a2.51,2.51,0,0,1,2.528,2.723L233.8,197.36a2.983,2.983,0,0,1-2.929,2.721Z" transform="translate(-164.776 -147.473)" fill="#fff"/>
      <path id="Path_1414" data-name="Path 1414" d="M230.876,200.081H168.291a2.51,2.51,0,0,1-2.528-2.726l3.32-46.3A2.983,2.983,0,0,1,172,148.33h62.6a2.51,2.51,0,0,1,2.528,2.723L233.8,197.36a2.983,2.983,0,0,1-2.929,2.721Z" transform="translate(-164.776 -147.473)" fill="#f7d606" opacity="0.2"/>
      <path id="Path_1415" data-name="Path 1415" d="M192.294,203.994H177.678a1.211,1.211,0,0,1-1.221-1.317l3.225-45a1.44,1.44,0,0,1,1.412-1.317h14.616a1.209,1.209,0,0,1,1.221,1.317l-3.225,45A1.443,1.443,0,0,1,192.294,203.994Z" transform="translate(-172.723 -153.438)" fill="#fff" opacity="0.5"/>
      <path id="Path_1416" data-name="Path 1416" d="M210.815,170.8h-7.565a1.093,1.093,0,0,1-1.1-1.185l.082-1.16a1.3,1.3,0,0,1,1.27-1.185h7.568a1.093,1.093,0,0,1,1.1,1.185l-.085,1.16A1.286,1.286,0,0,1,210.815,170.8Z" transform="translate(-191.809 -161.543)" fill="#f7d606" opacity="0.4"/>
      <path id="Path_1417" data-name="Path 1417" d="M178.221,206.515H166.673a1.9,1.9,0,0,1-1.921-2.057l.831-11.561a2.265,2.265,0,0,1,2.217-2.057H179.35a1.9,1.9,0,0,1,1.918,2.057l-.828,11.551A2.263,2.263,0,0,1,178.221,206.515Z" transform="translate(-164.027 -179.052)" fill="#f7d606"/>
      <path id="Path_1418" data-name="Path 1418" d="M220.8,215a.864.864,0,0,0-.843.789l-.121,1.677a.725.725,0,0,0,.733.787h1.173a.211.211,0,0,0,.208-.2l.206-2.862a.18.18,0,0,0-.183-.2Z" transform="translate(-204.946 -196.999)" fill="#fff"/>
      <path id="Path_1419" data-name="Path 1419" d="M184.417,200.4H177.15a.291.291,0,0,1-.293-.316h0a.345.345,0,0,1,.339-.316h7.28a.291.291,0,0,1,.293.316h0A.347.347,0,0,1,184.417,200.4Z" transform="translate(-173.023 -185.686)" fill="#fff"/>
      <path id="Path_1420" data-name="Path 1420" d="M183.932,206.66H176.65a.291.291,0,0,1-.293-.316h0a.345.345,0,0,1,.339-.314h7.282a.288.288,0,0,1,.293.314h0A.345.345,0,0,1,183.932,206.66Z" transform="translate(-172.651 -190.336)" fill="#fff"/>
      <path id="Path_1421" data-name="Path 1421" d="M180.965,212.913H176.2a.293.293,0,0,1-.293-.316h0a.345.345,0,0,1,.339-.316h4.765a.291.291,0,0,1,.293.316h0A.347.347,0,0,1,180.965,212.913Z" transform="translate(-172.318 -194.979)" fill="#fff"/>
      <path id="Path_1422" data-name="Path 1422" d="M182.392,226.043h-7.03a1.245,1.245,0,0,1-1.255-1.353l.257-3.7a1.476,1.476,0,0,1,1.448-1.35h7.043a1.245,1.245,0,0,1,1.255,1.35l-.257,3.7A1.481,1.481,0,0,1,182.392,226.043Z" transform="translate(-170.977 -200.446)" fill="#fff" opacity="0.5"/>
      <path id="Path_1423" data-name="Path 1423" d="M205.013,265.233h-8.764a.54.54,0,0,1-.545-.586h0a.643.643,0,0,1,.63-.586H205.1a.54.54,0,0,1,.543.586h0a.64.64,0,0,1-.627.586Z" transform="translate(-187.023 -233.444)" fill="#f7d606" opacity="0.4"/>
      <path id="Path_1424" data-name="Path 1424" d="M207.389,274.182h-5.549a.54.54,0,0,1-.545-.586h0a.64.64,0,0,1,.627-.586h5.562a.538.538,0,0,1,.543.586h0A.64.64,0,0,1,207.389,274.182Z" transform="translate(-191.175 -240.092)" fill="#fff" opacity="0.8"/>
      <path id="Path_1425" data-name="Path 1425" d="M203.244,289.923H194.48a.543.543,0,0,1-.545-.586h0a.643.643,0,0,1,.63-.586h8.764a.54.54,0,0,1,.543.586h0A.64.64,0,0,1,203.244,289.923Z" transform="translate(-185.709 -251.785)" fill="#f7d606" opacity="0.4"/>
      <path id="Path_1426" data-name="Path 1426" d="M205.629,298.87h-5.56a.537.537,0,0,1-.545-.584h0a.64.64,0,0,1,.635-.586h5.554a.54.54,0,0,1,.545.586h0A.64.64,0,0,1,205.629,298.87Z" transform="translate(-189.861 -258.433)" fill="#fff" opacity="0.8"/>
      <path id="Path_1427" data-name="Path 1427" d="M201.474,314.612H192.71a.543.543,0,0,1-.545-.586h0a.64.64,0,0,1,.63-.586h8.764a.537.537,0,0,1,.543.586h0a.64.64,0,0,1-.627.586Z" transform="translate(-184.394 -270.126)" fill="#f7d606" opacity="0.4"/>
      <path id="Path_1428" data-name="Path 1428" d="M203.859,323.553H198.3a.54.54,0,0,1-.545-.586h0a.643.643,0,0,1,.627-.586h5.562a.543.543,0,0,1,.545.586h0a.64.64,0,0,1-.63.586Z" transform="translate(-188.546 -276.767)" fill="#fff" opacity="0.8"/>
      <path id="Path_1429" data-name="Path 1429" d="M294.821,280.947a.641.641,0,0,1,1.2.334l-.843,11.767a1.126,1.126,0,0,1-1.029,1.1H251.772a.949.949,0,0,1-.861-1.1l.514-6.992a1.515,1.515,0,0,1,1.908-1.345,8.147,8.147,0,0,0,6.339-.638c4.068-2.019,7.473-6.354,12.15-6.354.18,0,.357,0,.53.015,6.958.419,9.077,9.064,14.467,9.064a7.109,7.109,0,0,0,4.315-1.669A17.733,17.733,0,0,0,294.821,280.947Z" transform="translate(-228.032 -243.591)" fill="#f7d606" opacity="0.5"/>
      <path id="Path_1430" data-name="Path 1430" d="M295.7,275.959l-.514,7.254a1.126,1.126,0,0,1-1.029,1.1H251.772a.949.949,0,0,1-.861-1.1l1.029-14.416a1.056,1.056,0,0,1,1.887-.6c1.353,2.057,3.433,4.729,5.827,6.046a5.954,5.954,0,0,0,2.862.81c3.425,0,6.339-4.06,9.818-7.149,2.132-1.893,4.477-3.42,7.282-3.42,5.855,0,6.719,9.514,11.5,10.816a5.119,5.119,0,0,0,3.263-.291.949.949,0,0,1,1.322.954Z" transform="translate(-228.032 -233.756)" fill="#f7d606" opacity="0.5"/>
      <g id="Group_652" data-name="Group 652" transform="translate(23.139 38.67)" opacity="0.8">
        <path id="Path_1431" data-name="Path 1431" d="M425.675,297.676a.1.1,0,0,1-.062-.026.067.067,0,0,1-.018-.028.081.081,0,0,1,0-.033.085.085,0,0,1,.026-.062.087.087,0,0,1,.123,0,.08.08,0,0,1,.026.062.151.151,0,0,1,0,.033.113.113,0,0,1-.021.028A.09.09,0,0,1,425.675,297.676Z" transform="translate(-380.937 -296.955)" fill="#fff"/>
        <path id="Path_1432" data-name="Path 1432" d="M257.927,302.125a.087.087,0,0,1-.087-.087h0a.087.087,0,0,1,.087-.085h0a.087.087,0,0,1,.087.087h0a.09.09,0,0,1-.087.09h0Zm-.882-.049h0a.085.085,0,0,1-.08-.1h0a.087.087,0,0,1,.1-.077h0a.087.087,0,0,1,.077.1h0a.09.09,0,0,1-.087.08h0Zm1.664-.077a.088.088,0,0,1,.077-.1h0a.088.088,0,0,1,.1.077h0a.088.088,0,0,1-.077.1h0a.087.087,0,0,1-.1-.077Zm-2.533-.057a.093.093,0,0,1-.069-.105h0a.093.093,0,0,1,.105-.069h0a.093.093,0,0,1,.069.105h0a.09.09,0,0,1-.087.069Zm3.392-.087a.087.087,0,0,1,.064-.108h0a.09.09,0,0,1,.105.064h0a.09.09,0,0,1-.064.108h-.021a.085.085,0,0,1-.09-.064Zm28.124.036a.087.087,0,0,1-.087-.087h0a.087.087,0,0,1,.087-.087h0a.087.087,0,0,1,.087.087h0A.087.087,0,0,1,287.692,301.891Zm.784-.123a.085.085,0,0,1,.077-.1h0a.085.085,0,0,1,.1.077h0a.09.09,0,0,1-.08.1h0A.09.09,0,0,1,288.477,301.768Zm-1.664.069a.085.085,0,0,1-.075-.1h0a.087.087,0,0,1,.1-.077h0a.09.09,0,0,1,.077.1h0a.09.09,0,0,1-.087.08h0Zm-31.49-.105a.087.087,0,0,1-.062-.108h0a.093.093,0,0,1,.111-.062h0a.09.09,0,0,1,.059.111h0a.085.085,0,0,1-.085.062h-.023Zm34.018-.085a.085.085,0,0,1,.069-.1h0a.087.087,0,0,1,.1.069h0a.088.088,0,0,1-.069.1h-.015A.09.09,0,0,1,289.341,301.647Zm-3.392.031a.082.082,0,0,1-.064-.105h0a.087.087,0,0,1,.105-.064h0a.087.087,0,0,1,.064.105h0a.087.087,0,0,1-.085.067h-.021Zm-25.548-.072a.085.085,0,0,1,.051-.113h0a.087.087,0,0,1,.113.049h0a.087.087,0,0,1-.051.113h0a.069.069,0,0,1-.031,0h0a.09.09,0,0,1-.082-.049Zm29.791-.152a.087.087,0,0,1,.062-.111h0a.087.087,0,0,1,.108.062h0a.087.087,0,0,1-.062.108h-.023A.087.087,0,0,1,290.192,301.454Zm-5.086-.031h0a.087.087,0,0,1-.054-.111h0a.09.09,0,0,1,.113-.054h0a.09.09,0,0,1,.054.113h0a.09.09,0,0,1-.085.057h0a.051.051,0,0,1-.028-.005Zm-23.915-.165a.087.087,0,0,1,.039-.118h0a.09.09,0,0,1,.118.041h0a.085.085,0,0,1-.039.116h0a.074.074,0,0,1-.041,0h0a.087.087,0,0,1-.067-.039Zm29.829-.062a.085.085,0,0,1,.051-.111h0a.09.09,0,0,1,.111.054h0a.09.09,0,0,1-.054.113H291.1a.087.087,0,0,1-.072-.057Zm-6.735-.108h0a.087.087,0,0,1-.044-.116h0a.09.09,0,0,1,.116-.044h0a.087.087,0,0,1,.044.118h0a.09.09,0,0,1-.08.051h0a.059.059,0,0,1-.028-.01Zm7.55-.2a.085.085,0,0,1,.049-.113h0a.082.082,0,0,1,.113.046h0a.088.088,0,0,1-.046.116h0a.079.079,0,0,1-.033,0h0a.09.09,0,0,1-.075-.049Zm-29.881-.051a.09.09,0,0,1,.028-.123h0a.087.087,0,0,1,.121.028h0a.087.087,0,0,1-.028.121h0a.077.077,0,0,1-.046.015h0a.093.093,0,0,1-.067-.041ZM283.5,300.7h0a.09.09,0,0,1-.036-.121h0a.09.09,0,0,1,.121-.033h0a.087.087,0,0,1,.033.118h0a.09.09,0,0,1-.077.046h0a.121.121,0,0,1-.033-.01Zm9.134-.159a.087.087,0,0,1,.041-.116h0a.09.09,0,0,1,.118.041h0a.087.087,0,0,1-.044.116h-.039a.087.087,0,0,1-.069-.041Zm-29.955-.183a.09.09,0,0,1,.021-.123h0a.09.09,0,0,1,.123.018h0a.09.09,0,0,1-.021.123h0a.1.1,0,0,1-.051.018h0a.09.09,0,0,1-.064-.036Zm20.058-.1h0a.085.085,0,0,1-.028-.118h0a.082.082,0,0,1,.118-.031h0a.087.087,0,0,1,.031.121h0a.09.09,0,0,1-.075.044h0a.1.1,0,0,1-.033-.015Zm10.674-.111a.087.087,0,0,1,.036-.118h0a.09.09,0,0,1,.118.036h0a.09.09,0,0,1-.036.121h0a.118.118,0,0,1-.041,0h0a.087.087,0,0,1-.064-.039Zm-30.038-.319a.087.087,0,0,1,.013-.123h0a.09.09,0,0,1,.123.013h0a.093.093,0,0,1,0,.126h0a.093.093,0,0,1-.057.018h0a.077.077,0,0,1-.067-.033ZM282,299.787h0a.087.087,0,0,1-.026-.121h0a.09.09,0,0,1,.123-.026h0a.09.09,0,0,1,.026.121h0a.087.087,0,0,1-.075.041h0a.1.1,0,0,1-.036-.015Zm12.178-.064a.087.087,0,0,1,.031-.121h0a.09.09,0,0,1,.121.031h0a.09.09,0,0,1-.031.121h0a.105.105,0,0,1-.046.013h0a.087.087,0,0,1-.062-.044Zm-12.906-.422a.09.09,0,0,1-.023-.123h0a.093.093,0,0,1,.123-.023h0a.093.093,0,0,1,.023.123h0a.09.09,0,0,1-.075.039h0a.089.089,0,0,1-.036-.015Zm13.652-.031a.093.093,0,0,1,.028-.123h0a.087.087,0,0,1,.121.028h0a.087.087,0,0,1-.028.121h0a.072.072,0,0,1-.046.015h0a.093.093,0,0,1-.062-.041Zm-30.858,0a.09.09,0,0,1,0-.123h0a.093.093,0,0,1,.126,0h0a.087.087,0,0,1,0,.123h0a.077.077,0,0,1-.057.021h0a.09.09,0,0,1-.069-.015Zm31.6-.483a.09.09,0,0,1,.021-.123h0a.087.087,0,0,1,.123.023h0a.087.087,0,0,1-.023.121h0a.09.09,0,0,1-.049.015h0a.087.087,0,0,1-.072-.031Zm-15.107.021a.085.085,0,0,1-.023-.121h0a.087.087,0,0,1,.121-.026h0a.088.088,0,0,1,.023.123h0a.082.082,0,0,1-.072.039h0a.09.09,0,0,1-.049-.01Zm-15.825-.1a.085.085,0,0,1,0-.123h0a.09.09,0,0,1,.123,0h0a.087.087,0,0,1,0,.123h0a.082.082,0,0,1-.057.021h0a.082.082,0,0,1-.067-.015Zm15.1-.386a.085.085,0,0,1-.026-.121h0a.085.085,0,0,1,.121-.026h0a.087.087,0,0,1,.026.121h0a.082.082,0,0,1-.072.039h0a.082.082,0,0,1-.049-.008Zm16.548-.041a.085.085,0,0,1,.018-.121h0a.09.09,0,0,1,.123.018h0a.09.09,0,0,1-.021.123h0a.093.093,0,0,1-.051.015h0a.08.08,0,0,1-.069-.031Zm-30.976-.131a.087.087,0,0,1,0-.123h0a.09.09,0,0,1,.123.013h0a.088.088,0,0,1-.013.123h0a.077.077,0,0,1-.057.021h0a.085.085,0,0,1-.054-.028Zm13.7-.3a.087.087,0,0,1-.028-.121h0a.087.087,0,0,1,.121-.028h0a.088.088,0,0,1,.028.121h0a.09.09,0,0,1-.075.044h0a.077.077,0,0,1-.046-.015Zm17.98-.093a.087.087,0,0,1,.015-.123h0a.088.088,0,0,1,.123.015h0a.093.093,0,0,1-.015.123h0a.079.079,0,0,1-.051.018h0a.088.088,0,0,1-.077-.028Zm-30.991-.149a.09.09,0,0,1,.018-.123h0a.09.09,0,0,1,.123.018h0a.09.09,0,0,1-.018.123h0a.1.1,0,0,1-.051.018h0a.09.09,0,0,1-.077-.031Zm12.263-.2a.087.087,0,0,1-.031-.121h0a.085.085,0,0,1,.118-.031h0a.085.085,0,0,1,.033.118h0a.09.09,0,0,1-.077.046h0a.106.106,0,0,1-.049-.008Zm19.41-.193a.087.087,0,0,1,.013-.123h0a.088.088,0,0,1,.123.013h0a.09.09,0,0,1,0,.123h0a.1.1,0,0,1-.057.021h0a.087.087,0,0,1-.085-.028ZM266.8,297.1a.087.087,0,0,1,.023-.123h0a.09.09,0,0,1,.123.026h0a.087.087,0,0,1-.026.121h0a.085.085,0,0,1-.049.015h0a.09.09,0,0,1-.077-.033Zm10.8-.108a.087.087,0,0,1-.036-.118h0a.087.087,0,0,1,.118-.039h0a.1.1,0,0,1,.039.121h0a.1.1,0,0,1-.08.046h0a.082.082,0,0,1-.057-.005Zm20.829-.342a.087.087,0,0,1,0-.123h0a.09.09,0,0,1,.123,0h0a.09.09,0,0,1,0,.123h0a.08.08,0,0,1-.057.023h0a.087.087,0,0,1-.069-.018Zm-30.9-.01a.087.087,0,0,1,.033-.121h0a.088.088,0,0,1,.118.033h0a.087.087,0,0,1-.033.121h0a.1.1,0,0,1-.044,0h0A.087.087,0,0,1,267.534,296.643Zm9.27-.015h0a.087.087,0,0,1-.044-.116h0a.087.087,0,0,1,.116-.044h0a.085.085,0,0,1,.044.116h0a.088.088,0,0,1-.08.051h0a.091.091,0,0,1-.033-.008Zm-.8-.316a.085.085,0,0,1-.051-.113h0a.09.09,0,0,1,.113-.051h0a.09.09,0,0,1,.051.113h0a.085.085,0,0,1-.082.057h0A.065.065,0,0,1,276,296.311Zm-7.7-.072a.09.09,0,0,1,.044-.116h0a.087.087,0,0,1,.118.044h0a.088.088,0,0,1-.046.116h0a.081.081,0,0,1-.036,0h0A.087.087,0,0,1,268.306,296.239Zm6.874-.208a.09.09,0,0,1-.059-.111h0a.09.09,0,0,1,.111-.059h0a.09.09,0,0,1,.059.111h0a.09.09,0,0,1-.085.062h-.026Zm-6.066-.121a.087.087,0,0,1,.057-.111h0a.087.087,0,0,1,.111.057h0a.087.087,0,0,1-.057.111H269.2a.088.088,0,0,1-.08-.057Zm5.228-.093a.087.087,0,0,1-.067-.1h0a.085.085,0,0,1,.105-.067h0a.085.085,0,0,1,.067.1h0a.087.087,0,0,1-.087.069h-.018Zm-4.392-.147a.087.087,0,0,1,.069-.105h0a.087.087,0,0,1,.1.067h0a.087.087,0,0,1-.067.105h-.018a.09.09,0,0,1-.085-.067Zm3.541,0h0a.09.09,0,0,1-.075-.1h0a.085.085,0,0,1,.1-.075h0a.09.09,0,0,1,.075.1h0a.09.09,0,0,1-.087.075h-.013Zm-2.682-.147a.087.087,0,0,1,.077-.1h0a.085.085,0,0,1,.1.077h0a.09.09,0,0,1-.08.1h0a.09.09,0,0,1-.093-.082Zm1.821.057h0a.085.085,0,0,1-.082-.093h0a.087.087,0,0,1,.093-.082h0a.09.09,0,0,1,.082.1h0a.087.087,0,0,1-.087.082h0Zm-.951-.113a.085.085,0,0,1,.087-.087h0a.087.087,0,0,1,.087.087h0a.087.087,0,0,1-.087.087h0a.087.087,0,0,1-.085-.09Z" transform="translate(-254.402 -295.38)" fill="#fff"/>
        <path id="Path_1433" data-name="Path 1433" d="M252.014,318.51a.079.079,0,0,1-.033,0,.072.072,0,0,1-.028-.021.054.054,0,0,1-.018-.028.072.072,0,0,1,0-.033.1.1,0,0,1,.026-.062.067.067,0,0,1,.028-.018.077.077,0,0,1,.067,0,.054.054,0,0,1,.028.018.085.085,0,0,1,.026.062.07.07,0,0,1,0,.033.059.059,0,0,1-.021.028.066.066,0,0,1-.075.021Z" transform="translate(-251.932 -312.436)" fill="#fff"/>
      </g>
      <path id="Path_1434" data-name="Path 1434" d="M274.313,207.621h0l-.6-.648a5.886,5.886,0,0,1-4,1.61,5.032,5.032,0,0,1-5.02-4.073l-.9.237h0l-.823.216a6.624,6.624,0,0,0,1.643,3.248,7.275,7.275,0,0,0,10.25,0Z" transform="translate(-236.993 -189.207)" fill="#fff"/>
      <path id="Path_1435" data-name="Path 1435" d="M306.632,179.05l-.789.733h0l-.543.514a5.117,5.117,0,0,1,1.337,3.883,5.914,5.914,0,0,1-1.887,3.886l.471.514h0l.679.73a7.815,7.815,0,0,0,2.489-5.13A6.768,6.768,0,0,0,306.632,179.05Z" transform="translate(-268.029 -170.294)" fill="#263238"/>
      <path id="Path_1436" data-name="Path 1436" d="M275.274,172.96a7.277,7.277,0,0,0-10.247,0,7.666,7.666,0,0,0-2.371,7l1.029-.257h0l.7-.185a5.412,5.412,0,0,1-.082-1.422,6,6,0,0,1,5.889-5.5,5.089,5.089,0,0,1,3.77,1.61l.694-.651h0Z" transform="translate(-236.671 -164.204)" fill="#f7d606"/>
      <path id="Path_1437" data-name="Path 1437" d="M333.883,183.3h0l.692-.648a5.112,5.112,0,0,1-1.329-3.88,6.025,6.025,0,0,1,4.454-5.31l-.175-.885h0l-.157-.807a7.947,7.947,0,0,0-3.384,1.877,7.325,7.325,0,0,0-.735,10.25Z" transform="translate(-287.892 -164.886)" fill="#fff"/>
      <path id="Path_1438" data-name="Path 1438" d="M348.58,215.3l-.681-.735h0l-.468-.514a5.884,5.884,0,0,1-4,1.612,5.094,5.094,0,0,1-3.772-1.61l-.543.514h0l-.784.733a6.747,6.747,0,0,0,4.973,2.121A7.789,7.789,0,0,0,348.58,215.3Z" transform="translate(-292.974 -196.294)" fill="#263238"/>
      <path id="Path_1439" data-name="Path 1439" d="M360.48,183.131a7.328,7.328,0,0,0,.735-10.25A6.91,6.91,0,0,0,354.35,171l.2,1h0l.136.692a5.658,5.658,0,0,1,1.435-.185,5.048,5.048,0,0,1,5.1,5.5,5.914,5.914,0,0,1-1.888,3.883l.6.651h0Z" transform="translate(-304.875 -164.125)" fill="#f7d606"/>
      <path id="Path_1440" data-name="Path 1440" d="M409.226,172.649a.514.514,0,0,1,.514.55l-.319,4.436a.645.645,0,0,1-.625.584h-4.438a.514.514,0,0,1-.514-.553l.316-4.436a.643.643,0,0,1,.625-.581h4.436m0-.229H404.79a.872.872,0,0,0-.851.795l-.316,4.436a.733.733,0,0,0,.735.795h4.436a.869.869,0,0,0,.851-.795l.319-4.436a.733.733,0,0,0-.738-.795Z" transform="translate(-341.475 -165.369)" fill="#f7d606" opacity="0.3"/>
      <path id="Path_1441" data-name="Path 1441" d="M407.1,202.339a.514.514,0,0,1,.514.55l-.316,4.436a.648.648,0,0,1-.625.584H402.23a.514.514,0,0,1-.514-.553l.319-4.436a.643.643,0,0,1,.625-.581h4.433m0-.229h-4.431a.869.869,0,0,0-.851.795l-.319,4.436a.733.733,0,0,0,.738.795h4.436a.872.872,0,0,0,.851-.795l.316-4.436a.733.733,0,0,0-.738-.795Z" transform="translate(-339.893 -187.424)" fill="#f7d606" opacity="0.3"/>
      <path id="Path_1442" data-name="Path 1442" d="M395.808,297.776a.422.422,0,0,1,.319.134.429.429,0,0,1,.111.329.543.543,0,0,1-.53.5.419.419,0,0,1-.429-.463.54.54,0,0,1,.53-.5m0-.226a.771.771,0,0,0-.756.7.648.648,0,0,0,.656.707.771.771,0,0,0,.756-.707.648.648,0,0,0-.656-.7Z" transform="translate(-335.108 -258.322)" fill="#f7d606"/>
      <path id="Path_1443" data-name="Path 1443" d="M397.933,296.884l-.113-.008.018-.226.111.008Z" transform="translate(-337.166 -257.653)" fill="#f7d606"/>
      <path id="Path_1444" data-name="Path 1444" d="M398.123,266.7h-.113l.033-.463h.113Zm.067-.931h-.113l.033-.463h.113Zm.067-.928h-.113l.033-.465h.113Zm.067-.928h-.113l.033-.465h.113Zm.067-.928h-.113l.033-.465h.113Zm.067-.928h-.113l.033-.465h.113Zm.067-.931h-.113l.033-.463h.113Zm.067-.928h-.113l.033-.465h.113Zm.067-.928h-.113l.033-.465h.113Zm.064-.928h-.113l.033-.465h.113Zm.067-.928h-.113l.033-.465h.113Z" transform="translate(-337.308 -228.162)" fill="#f7d606"/>
      <rect id="Rectangle_114" data-name="Rectangle 114" width="0.226" height="0.113" transform="matrix(0.071, -0.997, 0.997, 0.071, 61.432, 28.315)" fill="#f7d606"/>
      <path id="Path_1445" data-name="Path 1445" d="M299.817,241.663H259.1a.8.8,0,0,1-.594-.257.808.808,0,0,1-.213-.615l.2-2.8a.926.926,0,0,1,.91-.849H300.13a.8.8,0,0,1,.8.867l-.2,2.8A.928.928,0,0,1,299.817,241.663Zm-40.411-4.276a.679.679,0,0,0-.666.622l-.2,2.8a.566.566,0,0,0,.147.429.558.558,0,0,0,.414.175h40.717a.676.676,0,0,0,.666-.622l.2-2.8a.561.561,0,0,0-.555-.6Z" transform="translate(-233.516 -213.446)" fill="#f7d606"/>
      <path id="Path_1446" data-name="Path 1446" d="M303.849,241.974h-38.6a.352.352,0,0,1-.355-.383h0a.419.419,0,0,1,.409-.381h38.6a.35.35,0,0,1,.352.381h0A.417.417,0,0,1,303.849,241.974Z" transform="translate(-238.423 -216.469)" fill="#fff" fill-rule="evenodd" opacity="0.8"/>
      <path id="Path_1447" data-name="Path 1447" d="M297.091,248.223H264.808a.35.35,0,0,1-.352-.381h0a.417.417,0,0,1,.409-.383h32.28a.352.352,0,0,1,.365.4h0a.419.419,0,0,1-.419.368Z" transform="translate(-238.096 -221.111)" fill="#fff" fill-rule="evenodd" opacity="0.8"/>
    </g>
  </g>
</svg>
