<svg xmlns="http://www.w3.org/2000/svg" width="13.908" height="17.068" viewBox="0 0 13.908 17.068">
  <g id="Group_44" data-name="Group 44" transform="translate(-42.358 -271.274)">
    <path id="Line_9" data-name="Line 9" d="M-2.311-6.736H-7.368A.632.632,0,0,1-8-7.368.632.632,0,0,1-7.368-8h5.057a.632.632,0,0,1,.632.632A.632.632,0,0,1-2.311-6.736Z" transform="translate(54.151 289.389)" fill="#9a636b"/>
    <path id="Line_10" data-name="Line 10" d="M-2.311-6.736H-7.368A.632.632,0,0,1-8-7.368.632.632,0,0,1-7.368-8h5.057a.632.632,0,0,1,.632.632A.632.632,0,0,1-2.311-6.736Z" transform="translate(54.151 286.86)" fill="#9a636b"/>
    <path id="Path_93" data-name="Path 93" d="M52.643,47.8H41.264A1.266,1.266,0,0,1,40,46.54V33.264A1.266,1.266,0,0,1,41.264,32h3.161a.632.632,0,0,1,0,1.264H41.264V46.54H52.643V33.264H49.483a.632.632,0,0,1,0-1.264h3.161a1.266,1.266,0,0,1,1.264,1.264V46.54A1.266,1.266,0,0,1,52.643,47.8Z" transform="translate(2.358 240.538)" fill="#9a636b"/>
    <path id="Path_94" data-name="Path 94" d="M86.954,21.057H80.632A.632.632,0,0,1,80,20.425v-.632a3.793,3.793,0,1,1,7.586,0v.632A.632.632,0,0,1,86.954,21.057Zm-5.689-1.264h5.057a2.529,2.529,0,1,0-5.057,0Z" transform="translate(-34.481 255.274)" fill="#9a636b"/>
  </g>
</svg>
