<svg xmlns="http://www.w3.org/2000/svg" width="112.1" height="89.35" viewBox="0 0 112.1 89.35">
  <g id="Documents-amico_1_" data-name="Documents-amico (1)" transform="translate(-32.405 -65.5)">
    <g id="freepik--Floor--inject-85" transform="translate(32.405 96.285)">
      <path id="Path_1448" data-name="Path 1448" d="M48.821,238.5c21.888,11.435,57.379,11.435,79.268,0s21.888-29.975,0-41.412-57.369-11.435-79.268,0S26.943,227.063,48.821,238.5Z" transform="translate(-32.405 -188.509)" fill="#222c70"/>
    </g>
    <g id="freepik--filing-cabinets--inject-85" transform="translate(35.605 86.145)">
      <path id="Path_1449" data-name="Path 1449" d="M52.305,255.3l-7.115-4.107V235.93l7.115,4.109Z" transform="translate(-45.19 -213.921)" fill="#e0e0e0"/>
      <path id="Path_1450" data-name="Path 1450" d="M73.62,234.769,83.786,228.9v15.259L73.62,250.028Z" transform="translate(-66.505 -208.651)" fill="#ebebeb"/>
      <path id="Path_1451" data-name="Path 1451" d="M62.471,216.589l-10.166,5.869-7.115-4.109,10.166-5.869Z" transform="translate(-45.19 -196.34)" fill="#f5f5f5"/>
      <path id="Path_1452" data-name="Path 1452" d="M77.683,240.625l8.131-4.7.188.108v5.654l-8.134,4.7-.188-.108Z" transform="translate(-69.549 -213.921)" fill="#e0e0e0"/>
      <path id="Path_1453" data-name="Path 1453" d="M78.43,241.058l8.134-4.7v5.654l-8.134,4.7Z" transform="translate(-70.111 -214.244)" fill="#f5f5f5"/>
      <path id="Path_1454" data-name="Path 1454" d="M90.2,249.041l1.384-.8c.178-.105.323-.058.323.105a.648.648,0,0,1-.323.48l-1.384.8c-.18.105-.325.058-.325-.105A.646.646,0,0,1,90.2,249.041Z" transform="translate(-78.688 -223.111)" fill="#e0e0e0"/>
      <path id="Path_1455" data-name="Path 1455" d="M76.94,269.205l8.131-4.7v5.654l.188.108-8.134,4.7-.185-.108Z" transform="translate(-68.994 -235.349)" fill="#e0e0e0"/>
      <path id="Path_1456" data-name="Path 1456" d="M77.68,269.635l8.134-4.7v5.654l-8.134,4.7Z" transform="translate(-69.549 -235.671)" fill="#f5f5f5"/>
      <path id="Path_1457" data-name="Path 1457" d="M89.483,277.628l1.4-.8c.18-.105.325-.058.325.105a.646.646,0,0,1-.325.481l-1.384.8c-.18.105-.325.058-.325-.105A.646.646,0,0,1,89.483,277.628Z" transform="translate(-78.163 -244.545)" fill="#e0e0e0"/>
      <path id="Path_1458" data-name="Path 1458" d="M52.305,190.808,45.19,186.7V171.44l7.115,4.107Z" transform="translate(-45.19 -165.571)" fill="#e0e0e0"/>
      <path id="Path_1459" data-name="Path 1459" d="M73.62,170.269,83.786,164.4v15.261L73.62,185.53Z" transform="translate(-66.505 -160.293)" fill="#ebebeb"/>
      <path id="Path_1460" data-name="Path 1460" d="M62.471,152.1l-10.166,5.869-7.115-4.107,10.166-5.869Z" transform="translate(-45.19 -147.99)" fill="#f5f5f5"/>
      <path id="Path_1461" data-name="Path 1461" d="M77.68,176.135l8.134-4.7.188.108V177.2l-8.134,4.7-.188-.11Z" transform="translate(-69.549 -165.571)" fill="#e0e0e0"/>
      <path id="Path_1462" data-name="Path 1462" d="M90.2,184.546l1.381-.8c.18-.1.325-.055.325.108a.651.651,0,0,1-.325.481l-1.381.8c-.18.1-.325.058-.325-.105A.653.653,0,0,1,90.2,184.546Z" transform="translate(-78.688 -174.758)" fill="#e0e0e0"/>
      <path id="Path_1463" data-name="Path 1463" d="M76.94,204.715l8.131-4.7v5.651l.188.108-8.134,4.7-.185-.108Z" transform="translate(-68.994 -186.999)" fill="#e0e0e0"/>
      <path id="Path_1464" data-name="Path 1464" d="M77.68,205.145l8.134-4.7V206.1l-8.134,4.7Z" transform="translate(-69.549 -187.321)" fill="#f5f5f5"/>
      <path id="Path_1465" data-name="Path 1465" d="M89.445,213.126l1.4-.8c.178-.1.325-.055.325.108a.661.661,0,0,1-.325.481l-1.4.791c-.18.1-.325.055-.325-.105a.653.653,0,0,1,.325-.476Z" transform="translate(-78.126 -196.186)" fill="#e0e0e0"/>
      <path id="Path_1466" data-name="Path 1466" d="M77.68,176.135l8.134-4.7v5.651l-8.134,4.7Z" transform="translate(-69.549 -165.571)" fill="#e0e0e0"/>
      <path id="Path_1467" data-name="Path 1467" d="M113.092,174.9l-4.452-2.57v4.98l4.452,2.568Z" transform="translate(-92.76 -166.238)" fill="#e0e0e0"/>
      <path id="Path_1468" data-name="Path 1468" d="M89.87,184.346V177.3l1.744-1.011.288.425,5.083-2.936v6.457Z" transform="translate(-78.688 -167.326)" fill="#ebebeb"/>
      <path id="Path_1469" data-name="Path 1469" d="M89.87,185.231l.508-6.164,7.115-4.107-.508,6.162Z" transform="translate(-78.688 -168.21)" fill="#f5f5f5"/>
      <path id="Path_1470" data-name="Path 1470" d="M82.309,194.65l-3.879-2.24v4.98l3.879,2.237Z" transform="translate(-70.111 -181.293)" fill="#ebebeb"/>
      <path id="Path_1471" data-name="Path 1471" d="M93.93,185.515l8.134-4.7v5.651l-8.134,4.7Z" transform="translate(-81.732 -172.604)" fill="#f5f5f5"/>
      <path id="Path_1472" data-name="Path 1472" d="M105.7,193.5l1.381-.8c.18-.1.325-.055.325.108a.653.653,0,0,1-.325.481l-1.381.8c-.18.1-.325.055-.325-.105a.653.653,0,0,1,.325-.483Z" transform="translate(-90.309 -181.468)" fill="#e0e0e0"/>
      <path id="Path_1473" data-name="Path 1473" d="M93.12,199.115l-.27-.155v5.651l.27.155Z" transform="translate(-80.922 -186.204)" fill="#e0e0e0"/>
      <path id="Path_1474" data-name="Path 1474" d="M92.85,184.888l8.131-4.7.273.158-8.134,4.7Z" transform="translate(-80.922 -172.131)" fill="#ebebeb"/>
      <path id="Path_1475" data-name="Path 1475" d="M388.178,218.358l-7.118-4.109V198.99l7.118,4.107Z" transform="translate(-297.002 -186.226)" fill="#e0e0e0"/>
      <path id="Path_1476" data-name="Path 1476" d="M409.5,197.819l10.166-5.869v15.261L409.5,213.08Z" transform="translate(-318.325 -180.948)" fill="#ebebeb"/>
      <path id="Path_1477" data-name="Path 1477" d="M398.344,179.639l-10.166,5.869L381.06,181.4l10.168-5.871Z" transform="translate(-297.002 -168.638)" fill="#f5f5f5"/>
      <path id="Path_1478" data-name="Path 1478" d="M413.56,203.685l8.134-4.7.188.108,0,5.651-8.131,4.7-.188-.108Z" transform="translate(-321.368 -186.226)" fill="#e0e0e0"/>
      <path id="Path_1479" data-name="Path 1479" d="M414.31,204.115l8.134-4.7,0,5.651-8.131,4.7Z" transform="translate(-321.931 -186.549)" fill="#f5f5f5"/>
      <path id="Path_1480" data-name="Path 1480" d="M426.075,212.1l1.381-.8c.18-.1.325-.055.325.105a.653.653,0,0,1-.325.483l-1.381.8c-.18.1-.325.055-.325-.105A.653.653,0,0,1,426.075,212.1Z" transform="translate(-330.508 -195.413)" fill="#e0e0e0"/>
      <path id="Path_1481" data-name="Path 1481" d="M412.81,232.258l8.134-4.7v5.654l.188.108-8.134,4.7-.188-.108Z" transform="translate(-320.806 -207.646)" fill="#e0e0e0"/>
      <path id="Path_1482" data-name="Path 1482" d="M413.56,232.7l8.134-4.7v5.651l-8.134,4.7Z" transform="translate(-321.368 -207.976)" fill="#f5f5f5"/>
      <path id="Path_1483" data-name="Path 1483" d="M425.325,240.676l1.384-.8c.178-.1.323-.055.323.105a.658.658,0,0,1-.323.483l-1.384.8c-.18.1-.325.055-.325-.108A.653.653,0,0,1,425.325,240.676Z" transform="translate(-329.945 -216.84)" fill="#e0e0e0"/>
    </g>
    <g id="freepik--Plants--inject-85" transform="translate(50.426 117.453)">
      <path id="Path_1484" data-name="Path 1484" d="M122.91,302.495a11.84,11.84,0,0,0-2.475-6.945c-2.215-2.635-3.394-4.307-2.7-5.078s2.2-.956,4.225,1.176,2.182,8.039,1.9,9.375Z" transform="translate(-114.253 -285.722)" fill="#f7d606"/>
      <path id="Path_1485" data-name="Path 1485" d="M122.91,302.495a11.84,11.84,0,0,0-2.475-6.945c-2.215-2.635-3.394-4.307-2.7-5.078s2.2-.956,4.225,1.176,2.182,8.039,1.9,9.375Z" transform="translate(-114.253 -285.722)" opacity="0.2"/>
      <path id="Path_1486" data-name="Path 1486" d="M127.025,300.085a.125.125,0,0,1-.123-.1,12.465,12.465,0,0,0-4.387-7.348.125.125,0,0,1-.023-.175.128.128,0,0,1,.178-.022,12.708,12.708,0,0,1,4.477,7.493.123.123,0,0,1-.1.148Z" transform="translate(-117.948 -287.579)" fill="#fff"/>
      <path id="Path_1487" data-name="Path 1487" d="M112.973,318.482l-1.019.588a1.842,1.842,0,0,0-1.371-1.174c-1.114-.25-2.27-.208-3.051-1.174s.17-2.017,0-2.728-.28-.916-1.677-1.627-1.947-1.89-.9-2.688,2.753-.213,3.784.5a5.844,5.844,0,0,0,2.811.918,2.538,2.538,0,0,1,2.435,3.073A18.735,18.735,0,0,1,112.973,318.482Z" transform="translate(-104.411 -300.235)" fill="#f7d606"/>
      <path id="Path_1488" data-name="Path 1488" d="M122.624,331.836a.125.125,0,0,1-.038-.245c.09-.028,2.252-.713,3.171.023a.125.125,0,0,1-.155.2c-.811-.651-2.918.015-2.941.023Z" transform="translate(-117.972 -316.712)" fill="#fff"/>
      <path id="Path_1489" data-name="Path 1489" d="M117.579,320.83a.123.123,0,0,1-.123-.11c-.558-5.271-6.907-7.771-6.97-7.8a.125.125,0,0,1-.073-.163.128.128,0,0,1,.16-.073c.068.028,6.557,2.58,7.13,8.009a.125.125,0,0,1-.11.138Z" transform="translate(-108.906 -302.773)" fill="#fff"/>
      <path id="Path_1490" data-name="Path 1490" d="M369,287.875c.028-.088,1.1-5.613,0-9.533-1-3.594-2.307-4.92-4.169-5.213s-2.67,1.049-1.682,2.866,3.369,4.227,3.952,8.286c.25,1.672.44,3.123.44,3.123Z" transform="translate(-298.075 -273.089)" fill="#f7d606"/>
      <path id="Path_1491" data-name="Path 1491" d="M369,287.875c.028-.088,1.1-5.613,0-9.533-1-3.594-2.307-4.92-4.169-5.213s-2.67,1.049-1.682,2.866,3.369,4.227,3.952,8.286c.25,1.672.44,3.123.44,3.123Z" transform="translate(-298.075 -273.089)" opacity="0.2"/>
      <path id="Path_1492" data-name="Path 1492" d="M373.309,287.179h0a.125.125,0,0,1-.118-.133c.25-4.475-1.211-8.469-3.832-10.429a.125.125,0,0,1-.025-.175.128.128,0,0,1,.175-.025c2.685,2,4.192,6.087,3.929,10.644A.125.125,0,0,1,373.309,287.179Z" transform="translate(-303.014 -275.567)" fill="#fff"/>
      <path id="Path_1493" data-name="Path 1493" d="M387.4,297.888a2.722,2.722,0,0,1,1.852-2.936c1.4-.365,2.03-1.171,1.524-2.052s-.388-1.689.886-2.055,2.39-1,1.657-2.348c-.533-.974-.651-1.6.656-3.521,1.084-1.592.2-2.525-1.159-2.35s-2.195,1.792-3.043,2.062-1.044-1.171-2.162-.526-1.051,2.3-1.086,3.454-.11,1.414-1.121,1.274-2,.025-1.98,2.47a14.8,14.8,0,0,0,1.136,4.7Z" transform="translate(-313.592 -280.224)" fill="#f7d606"/>
      <path id="Path_1494" data-name="Path 1494" d="M391.843,298.874h-.013a.128.128,0,0,1-.113-.14c.706-6.3,6.117-11.622,7.528-12.7a.126.126,0,1,1,.153.2c-1.394,1.064-6.735,6.312-7.43,12.528A.128.128,0,0,1,391.843,298.874Z" transform="translate(-319.814 -282.774)" fill="#fff"/>
      <path id="Path_1495" data-name="Path 1495" d="M401.707,308.332a.128.128,0,0,1-.118-.08.13.13,0,0,1,.075-.163,9.8,9.8,0,0,1,4.4-.38.125.125,0,0,1,.1.143.13.13,0,0,1-.143.105,9.768,9.768,0,0,0-4.275.368A.144.144,0,0,1,401.707,308.332Z" transform="translate(-327.21 -298.972)" fill="#fff"/>
      <path id="Path_1496" data-name="Path 1496" d="M389.678,314.822a.125.125,0,0,1-.093-.043,7.377,7.377,0,0,1-1.649-3.421.125.125,0,1,1,.248-.038,7.232,7.232,0,0,0,1.589,3.291.128.128,0,0,1-.1.21Z" transform="translate(-316.977 -301.673)" fill="#fff"/>
    </g>
    <g id="freepik--folder-2--inject-85" transform="translate(58.987 77.598)">
      <path id="Path_1497" data-name="Path 1497" d="M138.62,133.208v38.737l39.648-22.89,0-35.215-29.479,17.021-1.019-2.936Z" transform="translate(-138.62 -113.84)" fill="#f7d606"/>
      <path id="Path_1498" data-name="Path 1498" d="M138.62,133.208v38.737l39.648-22.89,0-35.215-29.479,17.021-1.019-2.936Z" transform="translate(-138.62 -113.84)" opacity="0.7"/>
      <path id="Path_1499" data-name="Path 1499" d="M138.62,171.945l2.032-35.215L180.3,113.84l-2.032,35.215Z" transform="translate(-138.62 -113.84)" fill="#e0e0e0"/>
      <path id="Path_1500" data-name="Path 1500" d="M138.62,173.7l3.048-34.627,39.648-22.892-3.048,34.63Z" transform="translate(-138.62 -115.594)" fill="#f7d606"/>
      <path id="Path_1501" data-name="Path 1501" d="M138.62,173.7l3.048-34.627,39.648-22.892-3.048,34.63Z" transform="translate(-138.62 -115.594)" opacity="0.7"/>
    </g>
    <g id="freepik--folder-1--inject-85" transform="translate(65.086 81.119)">
      <path id="Path_1502" data-name="Path 1502" d="M162.99,147.278v38.739l39.648-22.892V127.91l-29.482,17.021L172.14,142Z" transform="translate(-162.99 -127.91)" fill="#f7d606"/>
      <path id="Path_1503" data-name="Path 1503" d="M162.99,147.278v38.739l39.648-22.892V127.91l-29.482,17.021L172.14,142Z" transform="translate(-162.99 -127.91)" opacity="0.5"/>
      <path id="Path_1504" data-name="Path 1504" d="M162.99,186.017l2.032-35.218,39.648-22.89-2.032,35.215Z" transform="translate(-162.99 -127.91)" fill="#e0e0e0"/>
      <path id="Path_1505" data-name="Path 1505" d="M162.99,187.772l3.048-34.63,39.648-22.892-3.048,34.63Z" transform="translate(-162.99 -129.664)" fill="#f7d606"/>
      <path id="Path_1506" data-name="Path 1506" d="M162.99,187.772l3.048-34.63,39.648-22.892-3.048,34.63Z" transform="translate(-162.99 -129.664)" opacity="0.5"/>
    </g>
    <g id="freepik--Documents--inject-85" transform="translate(72.201 65.5)">
      <path id="Path_1507" data-name="Path 1507" d="M246.873,352.105c-7.118-4.109-13.72-8.577-16.733-13.817L239.3,333Z" transform="translate(-220.45 -266.053)" fill="#e0e0e0"/>
      <path id="Path_1508" data-name="Path 1508" d="M191.42,163.7v38.737l39.648-22.89V144.33l-29.482,17.021-1.016-2.936Z" transform="translate(-191.42 -124.601)" fill="#f7d606"/>
      <path id="Path_1509" data-name="Path 1509" d="M191.42,163.7v38.737l39.648-22.89V144.33l-29.482,17.021-1.016-2.936Z" transform="translate(-191.42 -124.601)" opacity="0.2"/>
      <path id="Path_1510" data-name="Path 1510" d="M236.715,116.447c-.1,0-.115-.115-.115-.183V83.228a.831.831,0,0,1,.37-.641L265.586,66.07a.265.265,0,0,1,.13-.04c.1,0,.115.115.115.183V99.248a.833.833,0,0,1-.37.643l-28.616,16.518A.273.273,0,0,1,236.715,116.447Z" transform="translate(-225.293 -65.897)" fill="#fff"/>
      <path id="Path_1511" data-name="Path 1511" d="M265.334,65.748a.248.248,0,0,1,0,.055V98.838a.718.718,0,0,1-.308.536L236.41,115.891l-.05.023a.152.152,0,0,1,0-.055V82.823a.718.718,0,0,1,.308-.533l28.616-16.518a.14.14,0,0,1,.053-.023m.015-.25a.391.391,0,0,0-.193.058L236.543,82.075a.964.964,0,0,0-.433.751v33.035c0,.2.1.308.25.308a.385.385,0,0,0,.193-.058l28.616-16.518a.954.954,0,0,0,.433-.751V65.808C265.6,65.612,265.5,65.5,265.351,65.5Z" transform="translate(-224.925 -65.5)" fill="#f7d606"/>
      <path id="Path_1512" data-name="Path 1512" d="M265.334,65.748a.248.248,0,0,1,0,.055V98.838a.718.718,0,0,1-.308.536L236.41,115.891l-.05.023a.152.152,0,0,1,0-.055V82.823a.718.718,0,0,1,.308-.533l28.616-16.518a.14.14,0,0,1,.053-.023m.015-.25a.391.391,0,0,0-.193.058L236.543,82.075a.964.964,0,0,0-.433.751v33.035c0,.2.1.308.25.308a.385.385,0,0,0,.193-.058l28.616-16.518a.954.954,0,0,0,.433-.751V65.808C265.6,65.612,265.5,65.5,265.351,65.5Z" transform="translate(-224.925 -65.5)" fill="#fff" opacity="0.7"/>
      <path id="Path_1513" data-name="Path 1513" d="M248.29,122.179l10.166-5.869v11.738l-10.166,5.869Z" transform="translate(-234.057 -103.594)" fill="#f7d606"/>
      <path id="Path_1514" data-name="Path 1514" d="M248.29,122.179l10.166-5.869v11.738l-10.166,5.869Z" transform="translate(-234.057 -103.594)" fill="#fff" opacity="0.8"/>
      <path id="Path_1515" data-name="Path 1515" d="M261.513,128v3.529l-.32.178v-1.079c0-.6-.483-.8-1.084-.453l-4.307,2.49a2.244,2.244,0,0,0-1.084,1.7v1.079l-.318.19v-3.521Z" transform="translate(-238.638 -112.358)" fill="#fff"/>
      <path id="Path_1516" data-name="Path 1516" d="M262.592,144.857c-.521.3-.944-.015-.944-.708V138.5l-1.309.711V144.9a2.239,2.239,0,0,1-.943,1.794l-.946.546v.375l5.083-2.936v-.373Z" transform="translate(-241.675 -120.23)" fill="#fff"/>
      <path id="Path_1517" data-name="Path 1517" d="M297,93.66c0,.325.293.418.651.213l9.891-5.719a1.306,1.306,0,0,0,.651-.964c0-.323-.293-.418-.651-.21l-9.883,5.706a1.3,1.3,0,0,0-.658.974Z" transform="translate(-270.577 -81.522)" fill="#455a64"/>
      <path id="Path_1518" data-name="Path 1518" d="M297,107.7c0,.325.293.42.651.213l9.883-5.706a1.307,1.307,0,0,0,.651-.964c0-.323-.293-.418-.651-.21l-9.883,5.706A1.306,1.306,0,0,0,297,107.7Z" transform="translate(-270.577 -92.055)" fill="#455a64"/>
      <path id="Path_1519" data-name="Path 1519" d="M297,121.8c0,.325.293.42.651.213l9.883-5.706a1.306,1.306,0,0,0,.651-.961c0-.325-.293-.42-.651-.213l-9.883,5.706A1.306,1.306,0,0,0,297,121.8Z" transform="translate(-270.577 -102.627)" fill="#455a64"/>
      <path id="Path_1520" data-name="Path 1520" d="M297,135.868c0,.325.293.42.651.213l9.883-5.706a1.306,1.306,0,0,0,.651-.961c0-.325-.293-.42-.651-.213l-9.883,5.706A1.306,1.306,0,0,0,297,135.868Z" transform="translate(-270.577 -113.176)" fill="#455a64"/>
      <path id="Path_1521" data-name="Path 1521" d="M248.29,156.949c0,.325.29.42.651.213L271.022,144.4a1.3,1.3,0,0,0,.651-.961c0-.325-.293-.418-.651-.213l-22.081,12.764A1.3,1.3,0,0,0,248.29,156.949Z" transform="translate(-234.057 -123.69)" fill="#455a64"/>
      <path id="Path_1522" data-name="Path 1522" d="M248.29,171.06c0,.325.29.42.651.213l22.081-12.749a1.307,1.307,0,0,0,.651-.964c0-.323-.293-.418-.651-.21L248.941,170.1A1.3,1.3,0,0,0,248.29,171.06Z" transform="translate(-234.057 -134.28)" fill="#455a64"/>
      <path id="Path_1523" data-name="Path 1523" d="M248.29,185.132c0,.323.29.418.651.21l22.081-12.749a1.307,1.307,0,0,0,.651-.964c0-.323-.293-.418-.651-.21l-22.081,12.749A1.3,1.3,0,0,0,248.29,185.132Z" transform="translate(-234.057 -144.829)" fill="#455a64"/>
      <path id="Path_1524" data-name="Path 1524" d="M191.42,214.738l7.115-31.106,39.648-22.892-7.115,31.108Z" transform="translate(-191.42 -136.904)" fill="#f7d606"/>
      <path id="Path_1525" data-name="Path 1525" d="M230.18,246.121v23.072l9.15-5.283V240.84Z" transform="translate(-220.48 -196.958)" fill="#f7d606"/>
      <path id="Path_1526" data-name="Path 1526" d="M230.18,246.121v23.072l9.15-5.283V240.84Z" transform="translate(-220.48 -196.958)" opacity="0.2"/>
      <path id="Path_1527" data-name="Path 1527" d="M248.69,249.8c-.778-.581-8.281-6.314-12.1-14.516-4.059-8.719-4.054-18.89-4.054-22.717v-.12l27.2-15.7c0,3.862,0,14.048,4.077,22.8,3.727,8.009,10.942,13.67,12.085,14.536Z" transform="translate(-222.249 -163.902)" fill="#fff"/>
      <path id="Path_1528" data-name="Path 1528" d="M259.209,196.338c0,4.024.078,14.015,4.089,22.634,3.6,7.733,10.449,13.294,11.973,14.468l-26.979,15.577c-1.054-.793-8.274-6.432-11.988-14.408-4.054-8.694-4.054-18.845-4.054-22.667v-.048L259.2,196.335m.25-.433L232,211.752c0,3.6-.075,14.065,4.067,22.962,4.077,8.732,12.2,14.6,12.2,14.6l27.457-15.852s-8.134-5.871-12.2-14.6c-4.144-8.9-4.067-19.361-4.067-22.962Z" transform="translate(-221.844 -163.265)" fill="#f7d606"/>
      <path id="Path_1529" data-name="Path 1529" d="M259.209,196.338c0,4.024.078,14.015,4.089,22.634,3.6,7.733,10.449,13.294,11.973,14.468l-26.979,15.577c-1.054-.793-8.274-6.432-11.988-14.408-4.054-8.694-4.054-18.845-4.054-22.667v-.048L259.2,196.335m.25-.433L232,211.752c0,3.6-.075,14.065,4.067,22.962,4.077,8.732,12.2,14.6,12.2,14.6l27.457-15.852s-8.134-5.871-12.2-14.6c-4.144-8.9-4.067-19.361-4.067-22.962Z" transform="translate(-221.844 -163.265)" fill="#fff" opacity="0.7"/>
      <path id="Path_1530" data-name="Path 1530" d="M301.42,216.817l-8.679,5.005a1.231,1.231,0,0,0-.631.949c.012.318.315.408.673.2l8.682-5.005a1.231,1.231,0,0,0,.628-.936C302.078,216.7,301.78,216.609,301.42,216.817Z" transform="translate(-266.91 -178.863)" fill="#455a64"/>
      <path id="Path_1531" data-name="Path 1531" d="M302.235,230.467l-8.679,5.005a1.156,1.156,0,0,0-.606.936c.028.308.343.39.7.183l8.682-5.005a1.141,1.141,0,0,0,.6-.934C302.906,230.342,302.6,230.267,302.235,230.467Z" transform="translate(-267.54 -189.097)" fill="#455a64"/>
      <path id="Path_1532" data-name="Path 1532" d="M303.694,243.723l-8.682,5.005a1.076,1.076,0,0,0-.576.918c.043.3.37.375.731.168l8.682-5.005a1.059,1.059,0,0,0,.568-.916C304.372,243.595,304.052,243.515,303.694,243.723Z" transform="translate(-268.651 -199.032)" fill="#455a64"/>
      <path id="Path_1533" data-name="Path 1533" d="M305.85,256.579l-8.682,5.005a.994.994,0,0,0-.546.9c.06.29.4.355.751.148l8.679-5.005a.98.98,0,0,0,.541-.9C306.534,256.439,306.221,256.371,305.85,256.579Z" transform="translate(-270.287 -208.667)" fill="#455a64"/>
      <path id="Path_1534" data-name="Path 1534" d="M308.774,269.009l-8.682,5.005a.877.877,0,0,0-.5.881c.09.278.433.34.791.133l8.682-5.005a.879.879,0,0,0,.5-.881C309.48,268.862,309.132,268.8,308.774,269.009Z" transform="translate(-272.505 -217.984)" fill="#455a64"/>
      <path id="Path_1535" data-name="Path 1535" d="M275.116,280.983,253.958,293.2c-.358.208-.576.593-.478.861s.471.318.828.11l21.158-12.216a.814.814,0,0,0,.471-.861C275.839,280.823,275.461,280.776,275.116,280.983Z" transform="translate(-237.931 -226.958)" fill="#455a64"/>
      <path id="Path_1536" data-name="Path 1536" d="M279.658,292.424,258.5,304.64c-.36.208-.558.583-.438.838s.5.3.866.088l21.158-12.216c.36-.208.553-.583.433-.838S280.018,292.219,279.658,292.424Z" transform="translate(-241.359 -235.533)" fill="#455a64"/>
      <path id="Path_1537" data-name="Path 1537" d="M285.285,303.316l-21.158,12.216c-.36.208-.538.573-.4.816s.551.268.911.06l21.143-12.216c.358-.205.531-.568.388-.811S285.636,303.108,285.285,303.316Z" transform="translate(-245.598 -243.694)" fill="#455a64"/>
      <path id="Path_1538" data-name="Path 1538" d="M291.833,313.616l-21.155,12.213c-.36.208-.521.566-.358.793a.75.75,0,0,0,.951.04l21.155-12.216c.36-.208.516-.561.353-.791A.743.743,0,0,0,291.833,313.616Z" transform="translate(-250.526 -251.412)" fill="#455a64"/>
      <path id="Path_1539" data-name="Path 1539" d="M299.275,323.4l-21.158,12.213c-.358.208-.5.556-.32.773a.822.822,0,0,0,.984.02l21.158-12.221c.358-.208.5-.551.315-.768A.8.8,0,0,0,299.275,323.4Z" transform="translate(-256.121 -258.74)" fill="#455a64"/>
      <path id="Path_1540" data-name="Path 1540" d="M307.476,332.732l-21.15,12.213c-.36.208-.5.548-.29.751a.9.9,0,0,0,1.014,0l21.158-12.216c.36-.208.486-.543.285-.751A.9.9,0,0,0,307.476,332.732Z" transform="translate(-262.282 -265.735)" fill="#455a64"/>
      <path id="Path_1541" data-name="Path 1541" d="M316.524,341.649l-21.158,12.213c-.358.208-.476.541-.25.738a.973.973,0,0,0,1.046-.018l21.14-12.216c.358-.208.471-.533.25-.733A.938.938,0,0,0,316.524,341.649Z" transform="translate(-269.078 -272.417)" fill="#455a64"/>
      <path id="Path_1542" data-name="Path 1542" d="M252.161,244.44,242.18,250.2a58.23,58.23,0,0,0,2.035,14.085l9.983-5.756A58.139,58.139,0,0,1,252.161,244.44Z" transform="translate(-229.476 -199.657)" fill="#f7d606"/>
      <path id="Path_1543" data-name="Path 1543" d="M252.161,244.44,242.18,250.2a58.23,58.23,0,0,0,2.035,14.085l9.983-5.756A58.139,58.139,0,0,1,252.161,244.44Z" transform="translate(-229.476 -199.657)" fill="#fff" opacity="0.8"/>
      <path id="Path_1544" data-name="Path 1544" d="M246.249,260.466a1.649,1.649,0,0,0-.486-1.266l-3.584,2.067c.03.956.08,2.025.168,3.176a2.35,2.35,0,0,0,1.354-.25A4.561,4.561,0,0,0,246.249,260.466Z" transform="translate(-229.476 -210.723)" fill="#f7d606"/>
      <path id="Path_1545" data-name="Path 1545" d="M246.249,260.466a1.649,1.649,0,0,0-.486-1.266l-3.584,2.067c.03.956.08,2.025.168,3.176a2.35,2.35,0,0,0,1.354-.25A4.561,4.561,0,0,0,246.249,260.466Z" transform="translate(-229.476 -210.723)" fill="#fff" opacity="0.6"/>
      <path id="Path_1546" data-name="Path 1546" d="M264.82,272.858h0a41.737,41.737,0,0,1-2.6-4.557.25.25,0,0,0-.463.043,27.469,27.469,0,0,0-1.081,6.57,9.511,9.511,0,0,1-2.12-2.358.223.223,0,0,0-.4.07,24.546,24.546,0,0,0-.543,8.336h0l8.051-4.65C265.333,275.15,265.056,273.994,264.82,272.858Z" transform="translate(-240.947 -217.443)" fill="#f7d606"/>
      <path id="Path_1547" data-name="Path 1547" d="M264.82,272.858h0a41.737,41.737,0,0,1-2.6-4.557.25.25,0,0,0-.463.043,27.469,27.469,0,0,0-1.081,6.57,9.511,9.511,0,0,1-2.12-2.358.223.223,0,0,0-.4.07,24.546,24.546,0,0,0-.543,8.336h0l8.051-4.65C265.333,275.15,265.056,273.994,264.82,272.858Z" transform="translate(-240.947 -217.443)" fill="#fff" opacity="0.6"/>
    </g>
  </g>
</svg>
