<svg id="calendar-week" xmlns="http://www.w3.org/2000/svg" width="15.57" height="15.57" viewBox="0 0 15.57 15.57">
  <path id="Path_909" data-name="Path 909" d="M.973,5.169V14.9a.973.973,0,0,0,.973.973H13.624A.973.973,0,0,0,14.6,14.9V5.169ZM1.946,2.25A1.946,1.946,0,0,0,0,4.2V14.9a1.946,1.946,0,0,0,1.946,1.946H13.624A1.946,1.946,0,0,0,15.57,14.9V4.2A1.946,1.946,0,0,0,13.624,2.25Z" transform="translate(0 -1.277)" fill="#817356" fill-rule="evenodd"/>
  <path id="Path_910" data-name="Path 910" d="M7.237,0a.487.487,0,0,1,.487.487V.973a.487.487,0,1,1-.973,0V.487A.487.487,0,0,1,7.237,0Zm8.758,0a.487.487,0,0,1,.487.487V.973a.487.487,0,0,1-.973,0V.487A.487.487,0,0,1,15.995,0Z" transform="translate(-3.831)" fill="#817356" fill-rule="evenodd"/>
  <path id="Path_911" data-name="Path 911" d="M14.535,13.987a.487.487,0,0,1,.487-.487h.973a.487.487,0,0,1,.487.487v.973a.487.487,0,0,1-.487.487h-.973a.487.487,0,0,1-.487-.487Zm-2.919,0A.487.487,0,0,1,12.1,13.5h.973a.487.487,0,0,1,.487.487v.973a.487.487,0,0,1-.487.487H12.1a.487.487,0,0,1-.487-.487ZM6.75,16.906a.487.487,0,0,1,.487-.487H8.21a.487.487,0,0,1,.487.487v.973a.487.487,0,0,1-.487.487H7.237a.487.487,0,0,1-.487-.487Zm2.919,0a.487.487,0,0,1,.487-.487h.973a.487.487,0,0,1,.487.487v.973a.487.487,0,0,1-.487.487h-.973a.487.487,0,0,1-.487-.487Z" transform="translate(-3.831 -7.661)" fill="#817356"/>
</svg>
