<svg xmlns="http://www.w3.org/2000/svg" width="43" height="42" viewBox="0 0 43 42">
  <g id="Group_201" data-name="Group 201" transform="translate(-193 -313)">
    <g id="Ellipse_9" data-name="Ellipse 9" transform="translate(193 313)" fill="#2dbeff" stroke="#b4b4b4" stroke-width="0.2">
      <ellipse cx="21.5" cy="21" rx="21.5" ry="21" stroke="none"/>
      <ellipse cx="21.5" cy="21" rx="21.4" ry="20.9" fill="none"/>
    </g>
    <path id="twitter" d="M17.715,4.727a4.761,4.761,0,0,1-.661.948,4.883,4.883,0,0,1-1.195,1.007q.02.158.03.3a10.749,10.749,0,0,1-.76,4.118,10.843,10.843,0,0,1-4.315,5.362,11.346,11.346,0,0,1-6.754,1.234A7.755,7.755,0,0,1,0,16.122a7.563,7.563,0,0,0,5.411-1.56,3.728,3.728,0,0,1-3.436-2.548,2.311,2.311,0,0,0,.77.039,7.165,7.165,0,0,0,.869-.119,4.074,4.074,0,0,1-2.469-1.916A4.13,4.13,0,0,1,.731,8.2,3.47,3.47,0,0,0,2.37,8.7,4.235,4.235,0,0,1,.76,6.079,4.846,4.846,0,0,1,1.2,3.719a12.412,12.412,0,0,0,4.217,3.16,8.735,8.735,0,0,0,3.308.691,4.421,4.421,0,0,1,.444-2.8,3.821,3.821,0,0,1,2.281-1.659,3.367,3.367,0,0,1,3.377,1.047,6.011,6.011,0,0,0,2.35-.869,3.566,3.566,0,0,1-1.619,2.093,10.269,10.269,0,0,0,2.152-.652Z" transform="translate(206.542 323.619)" fill="#fff"/>
  </g>
</svg>
