<svg xmlns="http://www.w3.org/2000/svg" width="98.863" height="99.561" viewBox="0 0 98.863 99.561">
  <g id="Online_test-pana_1_" data-name="Online test-pana (1)" transform="translate(-28.86 -29.168)">
    <g id="freepik--background-simple--inject-4" transform="translate(30.836 29.168)">
      <path id="Path_1109" data-name="Path 1109" d="M125.119,41.779l-.548-.9A23.907,23.907,0,0,0,102.76,29.214a23.1,23.1,0,0,0-3.383.465A25.1,25.1,0,0,0,81.5,45.223c-1.7,4.567-2.176,9.826-5.412,13.45-4.2,4.72-11.332,4.867-17.6,4.673s-13.4-.029-17.59,4.706c-2.618,2.968-3.45,7.185-3.238,11.158.559,10.518,7.893,19.924,17.209,24.6s20.3,5.094,30.5,3.038c14.291-2.88,27.88-10.791,36.051-23S131.657,54.967,125.119,41.779Z" transform="translate(-37.62 -29.168)" fill="#222c70"/>
    </g>
    <g id="freepik--Table--inject-4" transform="translate(28.86 119.728)">
      <path id="Path_1110" data-name="Path 1110" d="M127.723,430.8c0,.032-22.134.059-49.428.059s-49.435-.038-49.435-.059,22.13-.059,49.435-.059S127.723,430.754,127.723,430.8Z" transform="translate(-28.86 -430.74)"/>
    </g>
    <g id="freepik--Screen--inject-4" transform="translate(40.652 39.865)">
      <rect id="Rectangle_80" data-name="Rectangle 80" width="57.914" height="58.751" transform="translate(0.099 0.142)" fill="#fff"/>
      <path id="Path_1111" data-name="Path 1111" d="M139.163,135.493V134.4c0-.717,0-1.775-.011-3.157,0-2.76-.016-6.806-.027-11.952-.011-10.277-.029-24.953-.052-42.55l.1.1-57.907.016h0l.117-.117c0,21.53,0,41.7-.016,58.748l-.1-.1,41.959.05,11.774.027,3.108.011h.023l-3.09.011-11.749.027-42.024.05h-.1v-.1c0-17.051,0-37.21-.016-58.748V76.6h.124l57.907.016h.1v.1c-.023,17.624-.041,32.321-.052,42.622-.014,5.137-.023,9.174-.027,11.93,0,1.371,0,2.424-.014,3.137v1a.386.386,0,0,1-.029.086Z" transform="translate(-81.15 -76.6)" fill="#263238"/>
      <path id="Path_1112" data-name="Path 1112" d="M99.62,119.72v1.558h-.291v-1.315H99v-.244Z" transform="translate(-94.975 -109.996)"/>
      <path id="Path_1113" data-name="Path 1113" d="M103.08,125.253a.183.183,0,1,1,.183.183A.183.183,0,0,1,103.08,125.253Z" transform="translate(-98.134 -114.139)"/>
      <path id="Path_1114" data-name="Path 1114" d="M187.857,88.777a.839.839,0,1,1,.839.8.8.8,0,0,1-.839-.8Zm1.387,0a.548.548,0,1,0-.548.548.532.532,0,0,0,.546-.548Z" transform="translate(-163.792 -85.352)"/>
      <path id="Path_1115" data-name="Path 1115" d="M198.045,88.34V89.9h-.237l-.859-1.055V89.9h-.289V88.34h.239l.859,1.051V88.34Z" transform="translate(-170.611 -85.692)"/>
      <path id="Path_1116" data-name="Path 1116" d="M204.66,88.34h.289v1.312h.816V89.9H204.66Z" transform="translate(-176.807 -85.692)"/>
      <path id="Path_1117" data-name="Path 1117" d="M210.57,88.34h.289V89.9h-.289Z" transform="translate(-181.384 -85.692)"/>
      <path id="Path_1118" data-name="Path 1118" d="M215.112,88.34V89.9h-.239l-.857-1.055V89.9h-.286V88.34h.239l.857,1.051V88.34Z" transform="translate(-183.831 -85.692)"/>
      <path id="Path_1119" data-name="Path 1119" d="M222.88,89.655V89.9h-1.17V88.34h1.128v.241H222v.406h.753v.237H222v.431Z" transform="translate(-190.012 -85.692)"/>
      <path id="Path_1120" data-name="Path 1120" d="M230.676,88.584h-.516V88.34h1.317v.244h-.516V89.9h-.291Z" transform="translate(-196.556 -85.692)"/>
      <path id="Path_1121" data-name="Path 1121" d="M238.168,89.655V89.9H237V88.34h1.128v.241h-.848v.406h.751v.237h-.751v.431Z" transform="translate(-201.854 -85.692)"/>
      <path id="Path_1122" data-name="Path 1122" d="M243,89.656l.1-.226a.868.868,0,0,0,.514.171c.244,0,.345-.088.345-.2,0-.336-.927-.115-.927-.695,0-.253.2-.465.629-.465a.979.979,0,0,1,.519.138l-.092.226a.855.855,0,0,0-.428-.124c-.241,0-.338.095-.338.212,0,.332.922.115.922.688,0,.25-.2.451-.629.451A1.015,1.015,0,0,1,243,89.656Z" transform="translate(-206.501 -85.614)"/>
      <path id="Path_1123" data-name="Path 1123" d="M249.346,88.584h-.516V88.34h1.322v.244h-.516V89.9h-.289Z" transform="translate(-211.016 -85.692)"/>
      <path id="Path_1124" data-name="Path 1124" d="M129.521,145.967h-.78l-.153.361h-.3l.7-1.558h.284l.7,1.558h-.3Zm-.1-.225-.293-.677-.291.677Z" transform="translate(-117.659 -129.397)"/>
      <circle id="Ellipse_31" data-name="Ellipse 31" cx="0.634" cy="0.634" r="0.634" transform="translate(3.374 2.936)"/>
      <circle id="Ellipse_32" data-name="Ellipse 32" cx="0.634" cy="0.634" r="0.634" transform="translate(5.293 2.936)"/>
      <circle id="Ellipse_33" data-name="Ellipse 33" cx="0.634" cy="0.634" r="0.634" transform="translate(7.212 2.936)"/>
      <path id="Path_1125" data-name="Path 1125" d="M140.511,106.129c0,.032-12.9.059-28.809.059s-28.812-.027-28.812-.059,12.9-.059,28.812-.059S140.511,106.1,140.511,106.129Z" transform="translate(-82.498 -99.424)"/>
      <path id="Path_1126" data-name="Path 1126" d="M156.259,125.449c0,.032-10.042.059-22.427.059s-22.432-.027-22.432-.059,10.042-.059,22.432-.059S156.259,125.415,156.259,125.449Z" transform="translate(-104.578 -114.387)"/>
      <path id="Path_1127" data-name="Path 1127" d="M129.253,132.209c0,.032-3.834.059-8.569.059s-8.583-.027-8.583-.059,3.834-.059,8.583-.059S129.253,132.175,129.253,132.209Z" transform="translate(-105.12 -119.623)"/>
      <path id="Path_1128" data-name="Path 1128" d="M115.944,145.714H113.89V143.66h2.054Zm-1.829-.226h1.6v-1.6h-1.6Z" transform="translate(-106.507 -128.537)"/>
      <path id="Path_1129" data-name="Path 1129" d="M130.6,163.2c0,.266-.21.422-.611.422h-.773V162.06h.728c.374,0,.575.158.575.406a.372.372,0,0,1-.2.343A.386.386,0,0,1,130.6,163.2Zm-1.1-.9v.428h.41c.2,0,.313-.07.313-.212s-.115-.226-.313-.226Zm.8.88c0-.156-.117-.226-.336-.226h-.467v.451h.467C130.194,163.4,130.311,163.323,130.311,163.174Z" transform="translate(-118.38 -142.788)"/>
      <path id="Path_1130" data-name="Path 1130" d="M115.944,163.045H113.89V161h2.054Zm-1.829-.226h1.6v-1.594h-1.6Z" transform="translate(-106.507 -141.967)"/>
      <path id="Path_1131" data-name="Path 1131" d="M128.72,180.055a.843.843,0,0,1,1.452-.541l-.187.176a.549.549,0,1,0,0,.728l.187.178a.843.843,0,0,1-1.452-.541Z" transform="translate(-117.992 -156.104)"/>
      <path id="Path_1132" data-name="Path 1132" d="M115.944,180.3H113.89V178.25h2.054Zm-1.829-.226h1.6v-1.6h-1.6Z" transform="translate(-106.507 -155.327)"/>
      <path id="Path_1133" data-name="Path 1133" d="M129.22,196.65h.677a.782.782,0,1,1,0,1.558h-.677Zm.677,1.312a.534.534,0,1,0,0-1.067h-.388v1.067Z" transform="translate(-118.38 -169.577)"/>
      <path id="Path_1134" data-name="Path 1134" d="M115.944,197.6H113.89V195.55h2.054Zm-1.829-.226h1.6v-1.6h-1.6Z" transform="translate(-106.507 -168.725)"/>
      <path id="Path_1135" data-name="Path 1135" d="M158.869,148.019c0,.032-3.383.059-7.568.059s-7.57-.027-7.57-.059,3.383-.059,7.57-.059S158.869,147.985,158.869,148.019Z" transform="translate(-129.617 -131.867)"/>
      <path id="Path_1136" data-name="Path 1136" d="M179.706,165.309c0,.034-8.055.059-17.987.059s-17.989-.025-17.989-.059,8.053-.059,17.989-.059S179.706,165.277,179.706,165.309Z" transform="translate(-129.617 -145.258)"/>
      <path id="Path_1137" data-name="Path 1137" d="M148.641,199.9c0,.032-1.107.059-2.481.059s-2.481-.027-2.481-.059,1.107-.059,2.481-.059S148.641,199.876,148.641,199.9Z" transform="translate(-129.579 -172.048)"/>
      <path id="Path_1138" data-name="Path 1138" d="M161.717,182.609c0,.032-4.025.059-8.993.059s-8.993-.027-8.993-.059,4.025-.059,8.993-.059S161.717,182.575,161.717,182.609Z" transform="translate(-129.617 -158.657)"/>
      <path id="Path_1139" data-name="Path 1139" d="M97.849,220.124v.244H96.7v-.194l.62-.586c.151-.144.178-.237.178-.322,0-.144-.1-.226-.291-.226a.438.438,0,0,0-.363.162l-.2-.156a.719.719,0,0,1,.591-.259c.338,0,.557.171.557.451a.629.629,0,0,1-.257.492l-.417.4Z" transform="translate(-93.147 -186.721)"/>
      <path id="Path_1140" data-name="Path 1140" d="M102.75,224.423a.183.183,0,1,1,.183.183.183.183,0,0,1-.183-.183Z" transform="translate(-97.879 -190.945)"/>
      <path id="Path_1141" data-name="Path 1141" d="M127.1,245.137h-.778l-.153.361h-.3l.7-1.558h.286l.7,1.558h-.309Zm-.095-.226-.293-.677-.293.677Z" transform="translate(-115.785 -206.203)"/>
      <path id="Path_1142" data-name="Path 1142" d="M153.855,224.619c0,.032-10.042.059-22.427.059S109,224.659,109,224.619s10.04-.059,22.43-.059S153.855,224.587,153.855,224.619Z" transform="translate(-102.719 -191.193)"/>
      <path id="Path_1143" data-name="Path 1143" d="M126.8,231.379c0,.032-3.834.059-8.583.059s-8.583-.027-8.583-.059,3.834-.059,8.583-.059S126.8,231.345,126.8,231.379Z" transform="translate(-103.207 -196.429)"/>
      <path id="Path_1144" data-name="Path 1144" d="M113.484,244.944H111.43V242.89h2.054Zm-1.829-.226h1.6v-1.6h-1.6Z" transform="translate(-104.601 -205.389)"/>
      <path id="Path_1145" data-name="Path 1145" d="M128.185,262.367c0,.266-.21.422-.609.422H126.8V261.23h.722c.374,0,.575.158.575.406a.377.377,0,0,1-.2.343A.383.383,0,0,1,128.185,262.367Zm-1.094-.9v.431h.408c.2,0,.313-.072.313-.214s-.113-.226-.313-.226Zm.8.88c0-.156-.117-.226-.336-.226h-.467v.451h.467c.219-.007.336-.077.336-.232Z" transform="translate(-116.505 -219.593)"/>
      <path id="Path_1146" data-name="Path 1146" d="M113.484,262.184H111.43V260.13h2.054Zm-1.829-.225h1.6v-1.6h-1.6Z" transform="translate(-104.601 -218.742)"/>
      <path id="Path_1147" data-name="Path 1147" d="M126.31,279.247a.794.794,0,0,1,.834-.8.785.785,0,0,1,.616.259l-.185.176a.555.555,0,0,0-.417-.183.548.548,0,1,0,.417.911l.185.178a.841.841,0,0,1-1.45-.541Z" transform="translate(-116.126 -232.927)"/>
      <path id="Path_1148" data-name="Path 1148" d="M113.484,279.474H111.43V277.42h2.054Zm-1.829-.225h1.6v-1.6h-1.6Z" transform="translate(-104.601 -232.132)"/>
      <path id="Path_1149" data-name="Path 1149" d="M126.8,295.82h.677a.782.782,0,1,1,0,1.558H126.8Zm.677,1.315a.537.537,0,1,0,0-1.069H127.1v1.069Z" transform="translate(-116.505 -246.383)"/>
      <path id="Path_1150" data-name="Path 1150" d="M113.484,296.774H111.43V294.72h2.054Zm-1.829-.225h1.6v-1.6h-1.6Z" transform="translate(-104.601 -245.531)"/>
      <path id="Path_1151" data-name="Path 1151" d="M156.451,247.189c0,.032-3.383.059-7.57.059s-7.57-.027-7.57-.059,3.383-.059,7.57-.059S156.451,247.157,156.451,247.189Z" transform="translate(-127.743 -208.673)"/>
      <path id="Path_1152" data-name="Path 1152" d="M177.286,264.479c0,.034-8.053.059-17.987.059s-17.989-.025-17.989-.059,8.053-.059,17.989-.059S177.286,264.447,177.286,264.479Z" transform="translate(-127.743 -222.064)"/>
      <path id="Path_1153" data-name="Path 1153" d="M146.231,299.069c0,.034-1.11.059-2.481.059s-2.481-.025-2.481-.059,1.11-.059,2.481-.059S146.231,299.037,146.231,299.069Z" transform="translate(-127.712 -248.854)"/>
      <path id="Path_1154" data-name="Path 1154" d="M159.3,281.8c0,.032-4.028.059-8.993.059s-9-.027-9-.059,4.028-.059,9-.059S159.3,281.76,159.3,281.8Z" transform="translate(-127.743 -235.478)"/>
      <path id="Path_1155" data-name="Path 1155" d="M243.993,303.429h-9.284a2.848,2.848,0,0,1-2.848-2.85h0a2.848,2.848,0,0,1,2.848-2.848h9.284a2.848,2.848,0,0,1,2.848,2.848h0A2.848,2.848,0,0,1,243.993,303.429Z" transform="translate(-197.873 -247.862)" fill="#f7d606"/>
      <path id="Path_1156" data-name="Path 1156" d="M249.86,307.36v1.549h-.3l-.78-.94v.94h-.354V307.36h.3l.769.94v-.94Z" transform="translate(-210.706 -255.321)" fill="#fff"/>
      <path id="Path_1157" data-name="Path 1157" d="M257.59,308.671v.289h-1.2V307.41h1.17v.289h-.807v.336h.719v.277h-.719v.359Z" transform="translate(-216.871 -255.359)" fill="#fff"/>
      <path id="Path_1158" data-name="Path 1158" d="M263.272,308.909l-.374-.537-.368.537h-.41l.573-.787-.543-.762h.406l.356.5.35-.5h.388l-.541.749.58.8Z" transform="translate(-221.309 -255.321)" fill="#fff"/>
      <path id="Path_1159" data-name="Path 1159" d="M269.3,307.653h-.5v-.293h1.353v.293h-.5v1.256H269.3Z" transform="translate(-226.482 -255.321)" fill="#fff"/>
      <path id="Path_1160" data-name="Path 1160" d="M283.1,308.715a.115.115,0,0,1-.095-.052.113.113,0,0,1,.032-.156l.719-.48a.077.077,0,0,0,.036-.068.079.079,0,0,0-.038-.068l-.713-.422a.113.113,0,1,1,.115-.194l.713.419a.309.309,0,0,1,.014.521l-.719.478A.115.115,0,0,1,283.1,308.715Z" transform="translate(-237.469 -255.243)" fill="#fff"/>
      <path id="Path_1161" data-name="Path 1161" d="M112.736,162.335c-.068-.068.368-.616.974-1.225s1.155-1.042,1.225-.974-.368.618-.974,1.225S112.806,162.4,112.736,162.335Z" transform="translate(-105.608 -141.292)" fill="#f7d606"/>
      <path id="Path_1162" data-name="Path 1162" d="M116.044,162.735c-.068.07-.652-.4-1.3-1.055s-1.128-1.234-1.055-1.3.654.4,1.3,1.055S116.114,162.668,116.044,162.735Z" transform="translate(-106.342 -141.479)" fill="#f7d606"/>
      <path id="Path_1163" data-name="Path 1163" d="M110.545,244.865c-.07-.07.368-.618.974-1.225s1.155-1.042,1.225-.974-.368.616-.976,1.225S110.612,244.933,110.545,244.865Z" transform="translate(-103.91 -205.211)" fill="#f7d606"/>
      <path id="Path_1164" data-name="Path 1164" d="M113.874,245.267c-.07.068-.652-.4-1.3-1.055s-1.128-1.236-1.055-1.3.652.4,1.3,1.055S113.937,245.2,113.874,245.267Z" transform="translate(-104.662 -205.398)" fill="#f7d606"/>
    </g>
    <g id="freepik--Character--inject-4" transform="translate(40.199 58.5)">
      <path id="Path_1165" data-name="Path 1165" d="M130.166,378.7l-15.833-5.083a.365.365,0,0,0-.131-.016l-12.178.9c-2.14-5.187-4.821-11.67-6.041-14.631A3,3,0,0,0,93.6,358.06l-13.188-1.723a.9.9,0,0,0-.94,1.245L86.894,374.9a1.8,1.8,0,0,0,1.06.992l15.085,6.019a2.24,2.24,0,0,0,1.087.144l.965-.106h0c3.342-.35,19.845-2.03,25.007-2.571a.343.343,0,0,0,.068-.674Z" transform="translate(-79.34 -311.883)" fill="#e0e0e0"/>
      <path id="Path_1166" data-name="Path 1166" d="M129.966,378.479a.35.35,0,0,1,.226.226.356.356,0,0,1-.111.377.41.41,0,0,1-.248.086l-.3.032-3.705.392-13.63,1.418-4.51.469-2.4.248-1.234.133a2.388,2.388,0,0,1-1.265-.147L92.7,377.694l-2.695-1.076-1.373-.546-.692-.275c-.115-.05-.226-.09-.35-.142a1.759,1.759,0,0,1-.334-.194,1.9,1.9,0,0,1-.514-.575c-.126-.225-.207-.462-.311-.695l-.6-1.4q-.607-1.407-1.22-2.844-2.459-5.751-5.079-11.839l-.239-.557a1.238,1.238,0,0,1-.151-.6.965.965,0,0,1,.787-.891c.052-.011.106,0,.16-.016l.156.011.3.041.593.077,1.182.153,4.664.611,4.555.6,1.128.147c.372.056.744.081,1.128.169a3.078,3.078,0,0,1,1.8,1.29,5.939,5.939,0,0,1,.471,1q.207.505.415,1.006l.819,1.987,1.6,3.87c1.042,2.53,2.045,4.961,3,7.275l-.05-.032,11.866-.877.329-.025a.467.467,0,0,1,.174.032l.156.052.6.2,1.2.386,2.262.742,3.992,1.288,5.581,1.8,1.466.48c.331.108.5.167.5.167s-.171-.05-.505-.153l-1.47-.465-5.584-1.791-3.994-1.276-2.278-.731-1.2-.383-.616-.2a1.175,1.175,0,0,0-.3-.079l-.329.025-11.864.9h-.034l-.016-.034q-1.434-3.467-3.006-7.271l-1.6-3.87-.821-1.987c-.138-.334-.277-.677-.415-1.006a5.918,5.918,0,0,0-.462-.981,2.959,2.959,0,0,0-1.73-1.24c-.352-.086-.731-.113-1.1-.167l-1.128-.147-4.558-.593-4.664-.609-1.184-.153-.593-.079a2.121,2.121,0,0,0-.577-.036.85.85,0,0,0-.69.783,1.114,1.114,0,0,0,.142.552l.246.557L84.712,369.9q.616,1.434,1.218,2.844c.2.469.4.936.6,1.4.1.226.189.474.307.677a1.75,1.75,0,0,0,.483.539,1.674,1.674,0,0,0,.313.183c.108.047.226.09.343.138l.692.277,1.371.548,2.706,1.076,10.085,4.03a2.276,2.276,0,0,0,1.218.142l1.236-.133,2.4-.244,4.51-.451,13.635-1.382,3.707-.372.3-.027a.4.4,0,0,0,.239-.079.343.343,0,0,0,.11-.359.315.315,0,0,0-.144-.189C129.993,378.49,129.966,378.481,129.966,378.479Z" transform="translate(-79.14 -311.658)" fill="#263238"/>
      <path id="Path_1167" data-name="Path 1167" d="M214.16,438.7l5.938,2.485,7.4-.771-6.222-2.569Z" transform="translate(-183.711 -375.019)" fill="#f5f5f5"/>
      <path id="Path_1168" data-name="Path 1168" d="M183.885,443.8l11.591-1.046-11.068-4.389-3.559.268,1.881,4.537Z" transform="translate(-157.913 -375.422)" fill="#f5f5f5"/>
      <path id="Path_1169" data-name="Path 1169" d="M206.755,440.988l-.079.014-.237.029-.9.092-3.351.327-11.05,1.031-8.687.785h-.036l-.014-.034-1.924-4.693-.528-1.312-.135-.345a1.177,1.177,0,0,1-.043-.122s.02.038.056.115l.149.341.552,1.3c.474,1.128,1.15,2.74,1.962,4.679l-.05-.032,8.685-.805,11.061-1,3.344-.284.9-.072.237-.016Z" transform="translate(-157.077 -374.175)"/>
      <path id="Path_1170" data-name="Path 1170" d="M81.41,359.14h.1l.293.034,1.128.147,4.136.564c1.745.244,3.834.537,6.132.877l1.768.273.451.077c.074.011.153.029.226.047a.441.441,0,0,1,.117.027,1.508,1.508,0,0,1,.507.336.7.7,0,0,1,.138.214l.088.226c.471,1.177.958,2.4,1.459,3.644,1.994,5,3.8,9.519,5.1,12.8.647,1.635,1.17,2.961,1.536,3.881.176.451.313.812.41,1.06.045.117.079.208.1.275a.694.694,0,0,1,.032.095.927.927,0,0,1-.043-.09l-.115-.273-.431-1.049c-.372-.92-.9-2.239-1.579-3.87l-5.115-12.784c-.5-1.247-.988-2.467-1.459-3.644l-.088-.226a.6.6,0,0,0-.115-.18,1.108,1.108,0,0,0-.359-.259,1.011,1.011,0,0,0-.1-.043l-.108-.027c-.072-.016-.144-.032-.226-.043l-.451-.079-1.768-.277-6.125-.9-4.131-.6-1.128-.167-.291-.047Z" transform="translate(-80.898 -314.059)"/>
      <path id="Path_1171" data-name="Path 1171" d="M126.083,401.985c.564.755.677,1.624.255,1.939s-1.225-.038-1.788-.794-.677-1.621-.255-1.939S125.519,401.232,126.083,401.985Z" transform="translate(-113.914 -346.538)" fill="#fff"/>
      <path id="Path_1172" data-name="Path 1172" d="M425.239,319.522c-.755-4.285-5.494-6.867-7.059-8.292l2.352,3.146a51.339,51.339,0,0,1,1.353,15.182c-.032.557.029,1.308.426,1.387a.553.553,0,0,0,.4-.124c1.389-.891,2.291-2.932,2.492-5.033A24.2,24.2,0,0,0,425.239,319.522Z" transform="translate(-341.722 -276.953)" fill="#f7d606"/>
      <path id="Path_1173" data-name="Path 1173" d="M326.727,303.7c-.226-.431-.133-1.8-1.353-.37l-.079-.537-7.539-5.8-16.8.873c-1.612.1-4.034,2.893-4.639,4.059-.5,4.337-.6,8.186-.6,8.186s-.577,4.821,0,7.1a19.227,19.227,0,0,0,2.154,4.876,15.212,15.212,0,0,0,2.422,3.32l.785,6.089,17.554,1.579,8.035-.451s-.719-12.009-.719-12.221c0-.1,1-2.418,2.082-4.878C329.861,311.322,328.829,307.766,326.727,303.7Z" transform="translate(-246.679 -265.932)" fill="#455a64"/>
      <path id="Path_1174" data-name="Path 1174" d="M238.62,342.473c.088,0,.965-5.929,1.54-7.275.541-1.27,12.13-16.338,12.13-16.338l2.729,8.8-1.17,4.7-6.314,7.6-1.784,5.507Z" transform="translate(-202.655 -282.863)" fill="#455a64"/>
      <path id="Path_1175" data-name="Path 1175" d="M344.543,329.37c-.832-5.275-4.941-5.045-4.941-5.045l-4.084,7.106v14.694l-19.7,1.7-.365,4.948s19.631,4.488,24.166,2.984a8.276,8.276,0,0,0,5.814-7.607A111.66,111.66,0,0,0,344.543,329.37Z" transform="translate(-262.159 -287.094)" fill="#455a64"/>
      <path id="Path_1176" data-name="Path 1176" d="M262.193,397.247a9.534,9.534,0,0,0-.225-1,4.8,4.8,0,0,0-3.437-3.227,9.672,9.672,0,0,0-1.01-.171,1.177,1.177,0,0,1,.28,0,4.184,4.184,0,0,1,.751.1,4.673,4.673,0,0,1,3.484,3.283,4.1,4.1,0,0,1,.144.744A1.086,1.086,0,0,1,262.193,397.247Z" transform="translate(-217.293 -340.162)"/>
      <path id="Path_1177" data-name="Path 1177" d="M320.06,371.332a.544.544,0,0,1,.086-.016l.25-.036.965-.129,3.556-.451,11.727-1.425,2.607-.311-.052.056c.151-4,.225-7.519.2-10.042,0-1.261-.027-2.273-.043-2.97,0-.343-.016-.611-.02-.8v-.28a.37.37,0,0,1,0,.072,1.233,1.233,0,0,0,.014.205c0,.189.023.451.038.8.029.695.061,1.707.079,2.97.041,2.523-.014,6.051-.16,10.044v.05h-.05l-2.607.313-11.738,1.391-3.559.408-.97.1-.253.025Z" transform="translate(-265.729 -310.798)"/>
      <path id="Path_1178" data-name="Path 1178" d="M347.851,427.66a.45.45,0,0,1,0,.09,2.027,2.027,0,0,1-.014.262,9.436,9.436,0,0,1-.115,1,10.449,10.449,0,0,1-.386,1.554,8.97,8.97,0,0,1-.92,1.908,7.527,7.527,0,0,1-1.73,1.9,6.885,6.885,0,0,1-2.652,1.265,11.381,11.381,0,0,1-1.579.264,16.184,16.184,0,0,1-1.664.063,23.937,23.937,0,0,1-3.475-.325l-6.655-1.094-2.9-.483-2.528-.467c-1.54-.289-2.79-.507-3.656-.638l-1-.147-.259-.036a.4.4,0,0,1-.088-.018h.088l.262.027c.226.025.568.063,1,.124.868.117,2.12.325,3.665.6l2.523.451,2.9.471,6.655,1.087a23.778,23.778,0,0,0,3.464.332c.564,0,1.114-.016,1.653-.059a11.091,11.091,0,0,0,1.561-.257,6.8,6.8,0,0,0,2.62-1.24,7.487,7.487,0,0,0,1.718-1.865,9,9,0,0,0,.927-1.885,10.786,10.786,0,0,0,.4-1.538c.074-.431.119-.769.135-1l.027-.262A.669.669,0,0,1,347.851,427.66Z" transform="translate(-264.312 -367.127)"/>
      <path id="Path_1179" data-name="Path 1179" d="M303.164,359.163a.453.453,0,0,1-.018-.092c-.011-.07-.027-.162-.043-.275-.036-.253-.088-.6-.151-1.051v.016l-1.493-1.653h0a11.37,11.37,0,0,1-.787-1.3,14.746,14.746,0,0,1-.69-1.579,17.4,17.4,0,0,1-.9-3.768,23.449,23.449,0,0,1-.1-4.192c.07-1.285.2-2.44.329-3.405s.246-1.743.332-2.282l.1-.618c.011-.065.02-.117.029-.16a.183.183,0,0,1,.014-.054.239.239,0,0,1,0,.054.564.564,0,0,1-.018.162c-.02.153-.045.361-.079.622-.072.539-.178,1.319-.3,2.287s-.223,2.118-.293,3.4a24.073,24.073,0,0,0,.1,4.17,17.657,17.657,0,0,0,.884,3.748,14.529,14.529,0,0,0,.677,1.563,11.687,11.687,0,0,0,.769,1.294h0l1.473,1.673h0l.122,1.053c.011.115.02.208.029.277A.3.3,0,0,1,303.164,359.163Z" transform="translate(-249.365 -298.267)"/>
      <path id="Path_1180" data-name="Path 1180" d="M407.72,419.734a4.555,4.555,0,0,1-.408-.525c-.246-.332-.591-.783-.995-1.263s-.785-.9-1.067-1.2a4.721,4.721,0,0,1-.451-.5,3.131,3.131,0,0,1,.505.438,14.623,14.623,0,0,1,1.1,1.184,15.313,15.313,0,0,1,.972,1.288A3.32,3.32,0,0,1,407.72,419.734Z" transform="translate(-331.359 -358.29)"/>
      <path id="Path_1181" data-name="Path 1181" d="M224.509,415.5a3.4,3.4,0,0,0-1.044-1.714s-.419-1.173-1.046-1.482-1.128.309-1.673.142a3.933,3.933,0,0,0-2.093,0c-.377.21-.837,1.38-.837,1.38a2.543,2.543,0,0,0-1.087.293,2.054,2.054,0,0,0-.719.618.866.866,0,0,0-.956.225,2.56,2.56,0,0,0-.5.916l-.3.8a.816.816,0,0,0-.077.39.5.5,0,0,0,.478.4.816.816,0,0,0,.609-.268,2.8,2.8,0,0,0,.4-.5l.074.523s.124.828.794.877c.462.036.963-.5.963-.5l1.17-.126.167,1.17a1.114,1.114,0,0,0,1.089.753c.419,0,.961-.71.961-.71l1.089.417s1.254.879,1.84.586a.81.81,0,0,0,.419-.92,3.184,3.184,0,0,0,.584-.963A6.546,6.546,0,0,0,224.509,415.5Z" transform="translate(-183.723 -355.169)" fill="#ffbe9d"/>
      <path id="Path_1182" data-name="Path 1182" d="M220.906,425.1a4.183,4.183,0,0,1,.043-1.243,4.1,4.1,0,0,1,.3-1.2c.032,0-.092.548-.187,1.222A12.171,12.171,0,0,1,220.906,425.1Z" transform="translate(-188.914 -363.247)" fill="#eb996e"/>
      <path id="Path_1183" data-name="Path 1183" d="M228.667,428.62a3.344,3.344,0,0,1,.1.87,1.5,1.5,0,0,1-.063.629c-.065.158-.158.226-.165.208s.047-.088.086-.226a1.969,1.969,0,0,0,.025-.6A3.243,3.243,0,0,1,228.667,428.62Z" transform="translate(-194.846 -367.87)" fill="#eb996e"/>
      <path id="Path_1184" data-name="Path 1184" d="M229.9,426.4c.023.023-.131.226-.345.433s-.4.374-.428.352.131-.226.345-.433S229.882,426.38,229.9,426.4Z" transform="translate(-195.304 -366.152)" fill="#eb996e"/>
      <path id="Path_1185" data-name="Path 1185" d="M233.025,416.43a4.145,4.145,0,0,1,.027.636c0,.395.016.936.047,1.533s.079,1.139.113,1.531a3.651,3.651,0,0,1,.041.636,3.07,3.07,0,0,1-.122-.627c-.056-.39-.115-.931-.149-1.534s-.029-1.146-.014-1.54A3.078,3.078,0,0,1,233.025,416.43Z" transform="translate(-198.269 -358.429)" fill="#eb996e"/>
      <path id="Path_1186" data-name="Path 1186" d="M243.521,416.36s-.05.113-.129.316a5.931,5.931,0,0,0-.262.884c-.041.194-.083.4-.131.627a4.194,4.194,0,0,1-.2.717,1.619,1.619,0,0,1-.476.677.981.981,0,0,1-.866.214.771.771,0,0,1-.406-.239.826.826,0,0,1-.183-.417,4.251,4.251,0,0,1-.016-.825,7.027,7.027,0,0,1,.212-1.367,6.365,6.365,0,0,1,.3-.884,2.4,2.4,0,0,1,.1-.225.328.328,0,0,1,.045-.077,2.552,2.552,0,0,1-.106.322,7.945,7.945,0,0,0-.259.886,7.513,7.513,0,0,0-.185,1.353,4.315,4.315,0,0,0,.02.8.726.726,0,0,0,.158.361.676.676,0,0,0,.345.2.87.87,0,0,0,.767-.192,1.559,1.559,0,0,0,.451-.631,11.954,11.954,0,0,0,.35-1.324,4.856,4.856,0,0,1,.3-.882,2.043,2.043,0,0,1,.12-.225C243.5,416.382,243.516,416.358,243.521,416.36Z" transform="translate(-204.376 -357.911)" fill="#eb996e"/>
      <path id="Path_1187" data-name="Path 1187" d="M251.373,420.67a1.188,1.188,0,0,1-.963,1.019,4.827,4.827,0,0,0,.562-.433A4.773,4.773,0,0,0,251.373,420.67Z" transform="translate(-211.786 -361.713)" fill="#eb996e"/>
      <path id="Path_1188" data-name="Path 1188" d="M243.413,433.6a2.778,2.778,0,0,1,.056.956,4.326,4.326,0,0,1-.12.843v.016h0a.063.063,0,0,1-.09-.041v-.032s0,.011.016.02.032.018.038,0l-.014.018c0-.153.034-.474.054-.843a6.68,6.68,0,0,1,.059-.938Z" transform="translate(-206.249 -371.727)" fill="#eb996e"/>
      <path id="Path_1189" data-name="Path 1189" d="M250.961,429.46a2.22,2.22,0,0,1-.307.4,5.763,5.763,0,0,0-.677.974,2.578,2.578,0,0,0-.316,1.128c0,.3.052.489.032.494a1.026,1.026,0,0,1-.115-.494,2.366,2.366,0,0,1,.3-1.184,4.539,4.539,0,0,1,.731-.974A1.941,1.941,0,0,1,250.961,429.46Z" transform="translate(-211.142 -368.521)" fill="#eb996e"/>
      <path id="Path_1190" data-name="Path 1190" d="M251.876,423.486a1.243,1.243,0,0,1,.514-1.371c.787-.559,3.144-2.03,3.193-2.03a32.181,32.181,0,0,1,3.91-1.019c1.143-.117,6.147,2.368,6.147,2.368a5.622,5.622,0,0,1,.974,3.279c-.187,1.606-1.234,1.7-1.234,1.7l-1.452-.354-1.5-.286s-3.313.922-3.834.753-.7-.735-.138-1.042a17.685,17.685,0,0,1,2.185-.787l1.247-.528-4.059.58a32.413,32.413,0,0,1-3.834.582c-.4-.095-.462-.395-.5-.677,0,0-1.382.677-1.793.307A.846.846,0,0,1,251.876,423.486Z" transform="translate(-212.519 -360.468)" fill="#ffbe9d"/>
      <path id="Path_1191" data-name="Path 1191" d="M268.028,434.161a1.41,1.41,0,0,1-.3.016c-.194,0-.476,0-.823.023a6.438,6.438,0,0,0-1.2.169,3.866,3.866,0,0,0-.677.241,7.039,7.039,0,0,0-.677.361,5.212,5.212,0,0,1-.717.341,2.625,2.625,0,0,1-.719.156,5.446,5.446,0,0,0-1.2.135,1.364,1.364,0,0,0-.654.451,1.924,1.924,0,0,0-.151.259.334.334,0,0,1,.014-.079.818.818,0,0,1,.1-.205,1.337,1.337,0,0,1,.665-.5,5.071,5.071,0,0,1,1.222-.165,3.29,3.29,0,0,0,1.38-.489,7.74,7.74,0,0,1,.69-.365,3.828,3.828,0,0,1,.692-.239,5.6,5.6,0,0,1,1.224-.147c.352,0,.634,0,.83.014A1.673,1.673,0,0,1,268.028,434.161Z" transform="translate(-219.911 -372.13)" fill="#eb996e"/>
      <path id="Path_1192" data-name="Path 1192" d="M261.171,426.71a.388.388,0,0,1-.074.038,1.987,1.987,0,0,1-.225.086,5.909,5.909,0,0,1-.846.194c-.359.063-.792.11-1.252.226a6.54,6.54,0,0,0-1.418.62,17.347,17.347,0,0,1-2.6,1.177c-.343.122-.625.212-.821.271a1.661,1.661,0,0,1-.307.079,1.612,1.612,0,0,1,.293-.122l.805-.307a20.449,20.449,0,0,0,2.571-1.2,6.378,6.378,0,0,1,1.448-.622,11.38,11.38,0,0,1,1.267-.212,7.59,7.59,0,0,0,.843-.156A2.88,2.88,0,0,1,261.171,426.71Z" transform="translate(-214.28 -366.391)" fill="#eb996e"/>
      <path id="Path_1193" data-name="Path 1193" d="M297.691,426.5a1.557,1.557,0,0,1-.065-.271,1.353,1.353,0,0,0-.834-.931,1.658,1.658,0,0,1-.262-.095c0-.014.113-.027.289.016a1.231,1.231,0,0,1,.593.363,1.218,1.218,0,0,1,.3.629A.494.494,0,0,1,297.691,426.5Z" transform="translate(-247.506 -365.215)" fill="#eb996e"/>
      <path id="Path_1194" data-name="Path 1194" d="M304.16,436.437a3.379,3.379,0,0,0-.034-.379,1.353,1.353,0,0,0-.492-.735,3.064,3.064,0,0,0-.814-.422,1.427,1.427,0,0,1-.361-.151,1.151,1.151,0,0,1,.386.072,2.528,2.528,0,0,1,.864.408,1.3,1.3,0,0,1,.5.814A.557.557,0,0,1,304.16,436.437Z" transform="translate(-252.098 -372.618)" fill="#eb996e"/>
      <path id="Path_1195" data-name="Path 1195" d="M253.274,434.11a.608.608,0,0,1-.2.117,4.432,4.432,0,0,1-.582.225,3.173,3.173,0,0,1-.419.115,1.112,1.112,0,0,1-.51-.052.7.7,0,0,1-.41-.4,1.074,1.074,0,0,1-.108-.6.636.636,0,0,1,.226-.4,1.454,1.454,0,0,1,.345-.226l-.029.068a1.128,1.128,0,0,1,.059-.848,1.743,1.743,0,0,1,.426-.516,2.632,2.632,0,0,1,.356-.25.477.477,0,0,1,.142-.07c.011.016-.183.129-.451.372a1.8,1.8,0,0,0-.388.507,1.04,1.04,0,0,0-.036.774l.014.043-.043.023c-.212.11-.467.273-.492.539a.99.99,0,0,0,.095.534.6.6,0,0,0,.343.343,1.033,1.033,0,0,0,.451.059,3.935,3.935,0,0,0,.41-.1c.25-.07.451-.14.586-.189A1.068,1.068,0,0,1,253.274,434.11Z" transform="translate(-212.275 -369.931)" fill="#eb996e"/>
      <path id="Path_1196" data-name="Path 1196" d="M307.722,191.2c-.489-4.885-1.524-9.747-1.31-14.658l-4.016,2.508c.2,1.944-1.547,3.45-2.56,5.119a7.5,7.5,0,0,0-.435,6.808,9.99,9.99,0,0,1,1.006,2.458c.226,1.484-.692,2.993-.354,4.456a3.327,3.327,0,0,0,4.111,2.136,5.276,5.276,0,0,0,3.342-3.678A13.47,13.47,0,0,0,307.722,191.2Z" transform="translate(-249.251 -172.638)" fill="#263238"/>
      <path id="Path_1197" data-name="Path 1197" d="M315.435,164.821a6.838,6.838,0,0,1,11.276-3.847,14.879,14.879,0,0,0,2.181,1.973,7.089,7.089,0,0,0,2.138.713c1.055.341,3.123,3.1,3.157,4.206l.821,4.826c.027,1.139-1.394,1.872-2.494,1.579a4.794,4.794,0,0,1-2.508-2.217,7.938,7.938,0,0,0-2.2-2.58c-1.612-.99-3.683-.485-5.509,0s-3.949.9-5.469-.226A4.521,4.521,0,0,1,315.435,164.821Z" transform="translate(-262.074 -159.236)" fill="#263238"/>
      <path id="Path_1198" data-name="Path 1198" d="M313.178,190.815c0-3.175,1.87-7.183,5.04-7.038l9.99,1.894a1.856,1.856,0,0,1,1.773,1.782l.377,23.792h.068s-3.471,8.727-10.1,7.09c-1.315-.325-.343-3.6-.69-5.031l-.065.014c-.014-.174-.025-.334-.038-.5a15.592,15.592,0,0,1-.241-3.254h0c-.138-1.915-.185-2.706-.185-2.681s-4.082-.428-5.236-5.649A56.209,56.209,0,0,1,313.178,190.815Z" transform="translate(-260.399 -178.24)" fill="#ffbe9d"/>
      <path id="Path_1199" data-name="Path 1199" d="M321,231.181a.677.677,0,0,0,.692.643.647.647,0,0,0,.661-.652.677.677,0,0,0-.692-.643.647.647,0,0,0-.661.652Z" transform="translate(-266.457 -214.452)" fill="#263238"/>
      <path id="Path_1200" data-name="Path 1200" d="M317.864,221.944c.088.083.577-.327,1.306-.368s1.283.289,1.353.2c.038-.043-.059-.2-.3-.352a1.856,1.856,0,0,0-1.094-.266,1.784,1.784,0,0,0-1.019.413C317.884,221.743,317.819,221.908,317.864,221.944Z" transform="translate(-264.018 -207.188)" fill="#263238"/>
      <path id="Path_1201" data-name="Path 1201" d="M350.1,229.55a.677.677,0,0,0,.692.643.647.647,0,0,0,.661-.652.677.677,0,0,0-.7-.643.647.647,0,0,0-.654.652Z" transform="translate(-288.995 -213.189)" fill="#263238"/>
      <path id="Path_1202" data-name="Path 1202" d="M349.614,220.637c.088.081.577-.327,1.306-.37s1.283.291,1.353.2c.036-.043-.056-.2-.3-.352a1.872,1.872,0,0,0-1.094-.266,1.8,1.8,0,0,0-1.033.4C349.637,220.434,349.569,220.6,349.614,220.637Z" transform="translate(-288.608 -206.174)" fill="#263238"/>
      <path id="Path_1203" data-name="Path 1203" d="M332.933,227.111a4.712,4.712,0,0,0-1.2-.142c-.187,0-.365-.036-.4-.16a.954.954,0,0,1,.09-.559c.149-.451.3-.94.465-1.446a24.162,24.162,0,0,0,1.01-3.775,23.664,23.664,0,0,0-1.312,3.683l-.44,1.457a1.06,1.06,0,0,0-.052.733.465.465,0,0,0,.322.255,1.249,1.249,0,0,0,.318.025A4.8,4.8,0,0,0,332.933,227.111Z" transform="translate(-274.243 -207.094)" fill="#263238"/>
      <path id="Path_1204" data-name="Path 1204" d="M339.46,278.379a13.445,13.445,0,0,0,6.946-2.309s-1.561,3.777-6.865,3.608Z" transform="translate(-280.754 -249.722)" fill="#eb996e"/>
      <path id="Path_1205" data-name="Path 1205" d="M340.988,253.77a1.308,1.308,0,0,1,1.146-.557,1.186,1.186,0,0,1,.852.392.76.76,0,0,1,.111.864.882.882,0,0,1-.938.3,2.734,2.734,0,0,1-.963-.5.794.794,0,0,1-.226-.2.244.244,0,0,1-.016-.271" transform="translate(-281.886 -232.018)" fill="#eb996e"/>
      <path id="Path_1206" data-name="Path 1206" d="M341.433,249.659c-.12,0-.074.789-.715,1.389s-1.488.566-1.488.677c0,.05.2.142.552.131a1.969,1.969,0,0,0,1.245-.519,1.712,1.712,0,0,0,.548-1.164C341.591,249.842,341.49,249.65,341.433,249.659Z" transform="translate(-280.576 -229.267)" fill="#263238"/>
      <path id="Path_1207" data-name="Path 1207" d="M348.1,208.921c.083.194.805.056,1.664.108s1.565.241,1.667.056c.045-.088-.086-.266-.374-.451a2.9,2.9,0,0,0-2.539-.126C348.213,208.664,348.075,208.828,348.1,208.921Z" transform="translate(-287.444 -197.216)" fill="#263238"/>
      <path id="Path_1208" data-name="Path 1208" d="M318.451,212.4c.138.158.629-.043,1.231-.088s1.128.045,1.227-.135c.047-.088-.043-.248-.277-.39a1.779,1.779,0,0,0-1.98.18C318.449,212.149,318.391,212.323,318.451,212.4Z" transform="translate(-264.466 -199.765)" fill="#263238"/>
      <path id="Path_1209" data-name="Path 1209" d="M335.916,175.71l.41-.6a33.884,33.884,0,0,1,9.009,1.709,7.4,7.4,0,0,1,3.18,1.77c1.15,1.236,1.432,3.022,1.657,4.7.861,6.366,1.655,12.931.023,19.146a3.4,3.4,0,0,0-2.413-1.159,9.9,9.9,0,0,1-2.706-.483,3.622,3.622,0,0,1-1.944-2.2,4.332,4.332,0,0,1,.142-2.956c.426-1.044,1.236-2.077.954-3.157-.3-1.143-1.664-1.723-2.048-2.839-.661-1.93,1.984-3.865,1.306-5.789a2.759,2.759,0,0,0-1.61-1.491c-.695-.293-1.443-.435-2.145-.708A6.188,6.188,0,0,1,335.916,175.71Z" transform="translate(-278.006 -171.53)" fill="#263238"/>
      <path id="Path_1210" data-name="Path 1210" d="M348.2,173.434c-3.279-4.6-5.5-5.153-8.585-5.324l4.285,9.607a18.576,18.576,0,0,1,1.664,5.09,9.632,9.632,0,0,1-1.441,5.39,15.87,15.87,0,0,1-4.2,5.566c-1.892,1.443-6.1,3.259-8.292,2.323l3.051,1.707,7.289.027,8.491.034a8.379,8.379,0,0,0,1.865-3.117C354.515,189.11,351.858,178.56,348.2,173.434Z" transform="translate(-274.69 -166.109)" fill="#f7d606"/>
      <path id="Path_1211" data-name="Path 1211" d="M335.5,288.578a21.531,21.531,0,0,0-4.21-5.809c-2.384-2.061-3.847-2.041-7.248-1.752s-8.159.825-9.287.539l-.106-1.579a8.117,8.117,0,0,1-3.3-1.847,3.073,3.073,0,0,0-1.031,2.794l-.557.21a3.561,3.561,0,0,0-2.237,4.183,1.925,1.925,0,0,0,1.752,1.488c4.082.706,14.994-2.244,18.28-2.255S335.5,288.578,335.5,288.578Z" transform="translate(-255.942 -251.318)" fill="#f7d606"/>
      <path id="Path_1212" data-name="Path 1212" d="M314,306.95a1.7,1.7,0,0,1,.286.016c.185.018.451.047.81.072a24.437,24.437,0,0,0,2.99.05,26.579,26.579,0,0,0,4.388-.6c.816-.178,1.667-.395,2.539-.647l2.693-.832a14.266,14.266,0,0,1,5.392-.778,10.253,10.253,0,0,1,4.231,1.353,9.843,9.843,0,0,1,2.33,1.9,7.146,7.146,0,0,1,.514.636,1.831,1.831,0,0,1,.16.226,1.23,1.23,0,0,1-.189-.212c-.115-.147-.3-.352-.539-.609a10.256,10.256,0,0,0-6.522-3.135,14.32,14.32,0,0,0-5.322.785c-.922.277-1.818.573-2.695.828s-1.732.467-2.555.64a25.4,25.4,0,0,1-4.42.559,21.4,21.4,0,0,1-3-.111c-.352-.036-.625-.077-.807-.106A1.654,1.654,0,0,1,314,306.95Z" transform="translate(-261.036 -271.505)" fill="#263238"/>
      <path id="Path_1213" data-name="Path 1213" d="M331.822,298.758a15.777,15.777,0,0,0-18.215-4.72l-6.54,1.387c-1.725.3-4.492.859-4.623,2.458a8.876,8.876,0,0,0,1.062,4.876c1.52,2.648.695,6.195,2.215,8.842a14.929,14.929,0,0,0,2.5,3.516,5.06,5.06,0,0,0,3.9,1.536,6.263,6.263,0,0,0,3.919-2.582c2.185-2.681,3.55-5.938,5.6-8.725s4.458-4.84,8.757-5.1a11.185,11.185,0,0,1,3.006.99A11.329,11.329,0,0,0,331.822,298.758Z" transform="translate(-252.069 -262.729)" fill="#f7d606"/>
      <g id="Group_649" data-name="Group 649" transform="translate(51.429 32.845)" opacity="0.3">
        <path id="Path_1214" data-name="Path 1214" d="M326.714,304.88c-2.844,0-5.638,1.367-8.394,1.975-11.086,2.44-11.086-1.741-11.086-1.741h0c-.347,1.964,1.5,2.866,3.439,3.317,3.707.857,7.667,1.317,10.342.462,2.156-.677,4.407-1.179,6.583-1.8s5.311-.386,6.959,1.161C333.083,305.827,329.558,304.873,326.714,304.88Z" transform="translate(-307.192 -304.88)"/>
      </g>
      <g id="Group_650" data-name="Group 650" transform="translate(56.342 32.216)" opacity="0.3">
        <path id="Path_1215" data-name="Path 1215" d="M329.181,302.42a2.224,2.224,0,0,0,1.4,1.211,4.9,4.9,0,0,0,1.892.162,26.063,26.063,0,0,0,6.741-1.7,22.369,22.369,0,0,0-5.173.9,6.324,6.324,0,0,1-5.058-.677" transform="translate(-328.98 -302.091)"/>
      </g>
      <path id="Path_1216" data-name="Path 1216" d="M345.148,316.2a.5.5,0,0,1-.052-.05l-.138-.158c-.12-.142-.3-.341-.543-.593A7.076,7.076,0,0,0,342,313.741a6.883,6.883,0,0,0-1.98-.428,10.348,10.348,0,0,0-2.329.074,40.1,40.1,0,0,0-5.2,1.324,24.865,24.865,0,0,1-5.254,1.157,19.256,19.256,0,0,1-4.386-.313c-1.231-.226-2.212-.487-2.891-.656l-.78-.2-.2-.054-.07-.023a.247.247,0,0,1,.072,0l.205.043.785.178c.677.156,1.664.4,2.9.618a19.461,19.461,0,0,0,4.364.289,23.6,23.6,0,0,0,5.23-1.161,34.983,34.983,0,0,1,5.218-1.319,10.41,10.41,0,0,1,2.354-.063,6.362,6.362,0,0,1,4.413,2.151c.239.259.417.462.53.609l.129.165Z" transform="translate(-264.839 -278.454)"/>
      <path id="Path_1217" data-name="Path 1217" d="M345.593,283.539a.306.306,0,0,1-.047-.038l-.131-.12c-.111-.108-.284-.259-.51-.451a10.105,10.105,0,0,0-2.12-1.317,12.358,12.358,0,0,0-3.55-1.019,18.026,18.026,0,0,0-4.531.011,42.994,42.994,0,0,0-4.474.834,6.612,6.612,0,0,1-1.991.158,3.216,3.216,0,0,1-1.63-.591,4,4,0,0,1-.97-1.06,6.568,6.568,0,0,1-.5-.958c-.115-.273-.192-.492-.241-.64l-.052-.169a.2.2,0,0,1-.014-.059.333.333,0,0,1,.025.054c.014.036.038.1.063.167.056.144.14.359.262.629a6.839,6.839,0,0,0,.516.94,3.963,3.963,0,0,0,.963,1.028,3.158,3.158,0,0,0,1.592.562,6.58,6.58,0,0,0,1.957-.167,40.892,40.892,0,0,1,4.483-.843,17.815,17.815,0,0,1,4.56,0,12.285,12.285,0,0,1,3.57,1.053,9.587,9.587,0,0,1,2.113,1.353,6.677,6.677,0,0,1,.5.469l.122.126C345.582,283.523,345.6,283.537,345.593,283.539Z" transform="translate(-269.424 -251.31)"/>
      <path id="Path_1218" data-name="Path 1218" d="M340.7,293.032h-.056l-.167-.027-.643-.106a23.159,23.159,0,0,0-2.377-.241,21.9,21.9,0,0,0-3.541.113,36.129,36.129,0,0,0-4.267.837,17.868,17.868,0,0,1-4.305.656,7.644,7.644,0,0,1-1.892-.226,3.792,3.792,0,0,1-1.461-.792,5.951,5.951,0,0,1-1.448-1.9,4.251,4.251,0,0,1-.313-.823.2.2,0,0,1,.025.052l.061.158c.056.14.142.341.268.591a6.09,6.09,0,0,0,1.461,1.863,3.751,3.751,0,0,0,1.432.76,7.576,7.576,0,0,0,1.867.214,18.854,18.854,0,0,0,4.285-.663,34.952,34.952,0,0,1,4.285-.834,21.575,21.575,0,0,1,3.556-.088,20.708,20.708,0,0,1,2.381.277c.28.052.494.095.64.129l.165.038A.111.111,0,0,1,340.7,293.032Z" transform="translate(-265.861 -260.914)"/>
      <path id="Path_1219" data-name="Path 1219" d="M390.413,256.78a2.937,2.937,0,0,1-.086.379,4,4,0,0,1-.131.438c-.059.169-.115.363-.205.568s-.178.435-.3.677-.253.483-.4.742a10.5,10.5,0,0,1-2.528,2.884c-.237.18-.451.354-.677.494s-.428.273-.625.383-.377.2-.534.28a3.781,3.781,0,0,1-.417.187,2.591,2.591,0,0,1-.363.135,2.384,2.384,0,0,1,.345-.176c.113-.052.25-.117.406-.205s.336-.171.523-.293.4-.239.611-.392.435-.318.677-.5a11.049,11.049,0,0,0,2.5-2.86c.147-.255.291-.494.4-.728s.226-.451.309-.658.156-.392.225-.557a4.061,4.061,0,0,0,.147-.428A2.281,2.281,0,0,1,390.413,256.78Z" transform="translate(-315.366 -234.783)"/>
      <path id="Path_1220" data-name="Path 1220" d="M358.45,316a1.082,1.082,0,0,1-.183-.016l-.225-.029c-.086-.011-.187,0-.3-.016a5.367,5.367,0,0,0-1.876.291,8.915,8.915,0,0,0-1.211.519,14.392,14.392,0,0,0-1.3.776c-.888.593-1.818,1.319-2.814,2.052l-5.088,3.777-1.554,1.128-.426.293a.856.856,0,0,1-.153.1,1.269,1.269,0,0,1,.138-.117l.413-.32,1.531-1.161,5.074-3.793c1-.731,1.926-1.457,2.826-2.048a14.184,14.184,0,0,1,1.315-.774,9,9,0,0,1,1.231-.51,5.2,5.2,0,0,1,1.9-.257,1.913,1.913,0,0,1,.3.025l.226.041a1,1,0,0,1,.174.041Z" transform="translate(-283.744 -280.562)"/>
      <path id="Path_1221" data-name="Path 1221" d="M423.426,330.5a1.647,1.647,0,0,1-.1-.318c-.054-.205-.131-.505-.239-.87a8.681,8.681,0,0,0-.462-1.252,4.737,4.737,0,0,0-.913-1.331,3.132,3.132,0,0,0-1.367-.828,3.8,3.8,0,0,0-1.312-.115,10.709,10.709,0,0,0-1.213.207.276.276,0,0,1,.079-.036c.054-.02.133-.047.225-.077a4.793,4.793,0,0,1,.9-.176,3.7,3.7,0,0,1,1.353.092,3.191,3.191,0,0,1,1.421.848,4.693,4.693,0,0,1,.929,1.369,8.271,8.271,0,0,1,.451,1.274c.1.37.162.677.2.884A1.907,1.907,0,0,1,423.426,330.5Z" transform="translate(-341.443 -288.144)"/>
    </g>
    <g id="freepik--speech-bubble--inject-4" transform="translate(109.406 42.335)">
      <circle id="Ellipse_34" data-name="Ellipse 34" cx="8.037" cy="8.037" r="8.037" transform="matrix(0.999, -0.046, 0.046, 0.999, 0, 0.746)" fill="#fff"/>
      <path id="Path_1222" data-name="Path 1222" d="M401.317,165.63q.111-.031.225-.052a1.047,1.047,0,0,1,.629.12,1.018,1.018,0,0,1,.338.284.887.887,0,0,1,.169.471.963.963,0,0,1-1.617.805.9.9,0,0,1-.275-.417,1.026,1.026,0,0,1-.025-.451,1.062,1.062,0,0,1,.284-.575c.108-.11.187-.149.183-.156a.209.209,0,0,0-.056.027.481.481,0,0,0-.065.041.92.92,0,0,0-.081.068,1.078,1.078,0,0,0-.3,1.053.932.932,0,0,0,.289.451,1.08,1.08,0,0,0,.534.257.97.97,0,0,0,1.078-.537,1.1,1.1,0,0,0,.117-.582.94.94,0,0,0-.187-.5,1.008,1.008,0,0,0-.363-.3,1.046,1.046,0,0,0-.658-.1.554.554,0,0,0-.1.025.4.4,0,0,0-.074.027C401.335,165.614,401.315,165.63,401.317,165.63Z" transform="translate(-397.386 -147.94)" fill="#263238"/>
      <path id="Path_1223" data-name="Path 1223" d="M388.772,101.494l-.065-.115-.2-.329c-.043-.074-.092-.156-.147-.244s-.095-.2-.149-.309-.111-.226-.171-.361a1.368,1.368,0,0,1-.083-.2c-.025-.072-.052-.144-.079-.226a7.714,7.714,0,0,1-.476-2.28,8.089,8.089,0,0,1,.4-3.049l.142-.41c.056-.138.122-.271.183-.408.029-.068.061-.135.092-.205a1.325,1.325,0,0,1,.1-.2l.226-.4c.038-.068.077-.135.117-.2l.14-.194.282-.392c.1-.129.212-.248.32-.374l.165-.187c.027-.029.054-.063.083-.092l.092-.086a7.443,7.443,0,0,1,.773-.677c.14-.1.275-.226.424-.313l.451-.277c.077-.045.151-.1.226-.138l.246-.117c.165-.077.327-.162.5-.226a8.8,8.8,0,0,1,1.067-.347l.275-.07.14-.034.142-.02.571-.086c.194-.02.388-.025.584-.036a1.846,1.846,0,0,1,.3,0l.3.014a8.955,8.955,0,0,1,1.193.124l.593.142.149.036c.05.014.1.032.147.047l.291.1.293.1.284.126.284.131.142.063c.047.025.09.052.138.079l.546.313.519.37a7.99,7.99,0,0,1,2.887,4.183c.054.205.106.413.158.616l.095.625.023.156v.156l.016.311.016.311-.014.309-.014.309v.153l-.02.151c-.029.2-.056.4-.083.6a8.957,8.957,0,0,1-.318,1.159l-.095.28c-.032.095-.079.18-.117.271-.083.178-.156.359-.246.53s-.192.336-.286.5l-.072.124c-.027.041-.056.079-.083.117l-.165.226a8.6,8.6,0,0,1-.71.866c-.129.133-.266.253-.4.379l-.2.185c-.065.061-.142.113-.212.167l-.424.325c-.144.1-.3.187-.451.28a7.3,7.3,0,0,1-.9.478l-.113.054-.117.045-.226.083c-.158.054-.309.12-.465.165l-.469.12-.226.059-.225.036-.451.07a1.528,1.528,0,0,1-.226.023h-.225c-.149,0-.3.02-.451.023l-.435-.018a8.046,8.046,0,0,1-2.986-.735c-.1-.047-.207-.09-.307-.138l-.28-.162-.271-.153c-.045-.027-.09-.05-.131-.077l-.12-.086-.451-.325c-.142-.108-.264-.226-.388-.329l-.176-.153a1.722,1.722,0,0,1-.16-.151l-.3-.271c-.083-.09-.165-.171-.225-.25l-.174-.226-.226-.3c-.052-.068-.081-.1-.081-.1l.077.106c.052.072.129.174.226.309l.169.226c.068.081.149.162.226.253l.271.3a1.483,1.483,0,0,0,.16.153l.176.156c.122.1.244.226.386.332l.451.329.12.086c.043.029.088.052.131.079l.271.156.282.165.307.14a8.05,8.05,0,0,0,3,.749l.438.02c.147,0,.3-.014.451-.02l.226-.014a1.323,1.323,0,0,0,.226-.02l.462-.07.226-.036.226-.059.474-.12c.156-.045.309-.108.467-.162l.237-.086c.038-.016.079-.027.117-.045l.115-.054a7.587,7.587,0,0,0,.918-.48c.149-.092.3-.178.451-.28l.428-.327c.072-.056.147-.106.225-.167l.2-.187c.131-.126.273-.248.4-.381a8.732,8.732,0,0,0,.717-.873c.054-.079.111-.156.167-.226.027-.038.056-.077.083-.117l.072-.126.291-.505c.09-.174.165-.356.248-.534.038-.092.088-.18.12-.273l.095-.284a8.747,8.747,0,0,0,.32-1.168c.029-.2.059-.406.086-.609l.023-.153v-.156l.014-.309.014-.313-.016-.313-.018-.313V96.1l-.025-.156-.095-.629c-.052-.207-.1-.415-.158-.622a8.033,8.033,0,0,0-2.9-4.237l-.523-.374-.552-.316c-.045-.027-.09-.054-.138-.079l-.144-.065-.286-.131-.286-.126-.3-.1-.3-.1-.147-.05-.151-.034c-.2-.05-.4-.1-.6-.142a8.762,8.762,0,0,0-1.2-.126l-.3-.014h-.3c-.2.014-.395.016-.589.036l-.577.088-.142.023a.6.6,0,0,0-.14.034l-.28.072a8.41,8.41,0,0,0-1.073.35c-.171.072-.336.16-.5.237l-.246.12a2.009,2.009,0,0,0-.225.14l-.451.28c-.149.1-.286.214-.426.318a7.549,7.549,0,0,0-.78.677l-.092.088c-.029.029-.056.063-.083.095s-.111.126-.167.187c-.108.129-.226.248-.32.377l-.284.4-.14.2c-.041.068-.079.138-.117.205l-.226.406a1.447,1.447,0,0,0-.1.205l-.095.207c-.061.138-.126.273-.18.41s-.095.277-.142.415a8.074,8.074,0,0,0-.392,3.067,7.668,7.668,0,0,0,.489,2.289l.081.226a1.362,1.362,0,0,0,.083.2l.176.361c.056.11.1.214.153.307l.149.241.205.327A.521.521,0,0,0,388.772,101.494Z" transform="translate(-387.063 -88.519)" fill="#263238"/>
      <path id="Path_1224" data-name="Path 1224" d="M405.29,113.736l1.191-1.191,2.3,2.041,4.506-4.337,1.105,1.191-5.78,5.442Z" transform="translate(-400.946 -105.132)" fill="#f7d606"/>
    </g>
  </g>
</svg>
