<svg xmlns="http://www.w3.org/2000/svg" width="15.128" height="15.968" viewBox="0 0 15.128 15.968">
  <g id="bx-user" transform="translate(-4.5 -3)">
    <path id="Path_907" data-name="Path 907" d="M18.543,8.521A2.521,2.521,0,1,1,16.021,6,2.521,2.521,0,0,1,18.543,8.521Z" transform="translate(-3.957 -1.319)" fill="none"/>
    <path id="Path_908" data-name="Path 908" d="M12.064,3a4.2,4.2,0,1,0,4.2,4.2A4.207,4.207,0,0,0,12.064,3Zm0,6.723A2.521,2.521,0,1,1,14.585,7.2,2.524,2.524,0,0,1,12.064,9.723Zm7.564,9.245v-.84a5.891,5.891,0,0,0-5.883-5.883H10.383A5.89,5.89,0,0,0,4.5,18.128v.84H6.181v-.84a4.207,4.207,0,0,1,4.2-4.2h3.362a4.207,4.207,0,0,1,4.2,4.2v.84Z" fill="#5e84a0"/>
  </g>
</svg>
